<?xml version="1.0" standalone="no"?><!DOCTYPE svg PUBLIC "-//W3C//DTD SVG 1.1//EN" "http://www.w3.org/Graphics/SVG/1.1/DTD/svg11.dtd">
<svg t="1544351195227" class="icon" style="" viewBox="0 0 1028 1024" version="1.1" 
    xmlns="http://www.w3.org/2000/svg" p-id="4328" 
    xmlns:xlink="http://www.w3.org/1999/xlink" width="200.78125" height="200">
    <defs>
        <style type="text/css"></style>
    </defs>
    <path d="M512.755348 1023.999692C240.412096 1024.307715-0.410183 798.578539 0.000513 514.427757S231.838803-3.05009 516.194933 0.030135c295.342267 3.234237 508.750542 221.006164 512.036116 508.853216 3.285574 283.4834-231.324918 515.219015-515.475701 515.116341z m1.283427-74.644126c242.105707 0 439.291462-196.467036 439.3428-437.956698 0-237.99874-177.677662-435.389843-438.367395-437.03263-242.516404-1.540113-440.164192 196.980407-440.215529 439.85617-0.051337 237.947403 199.03389 435.184495 439.240124 435.133158z" fill="#ee1166" p-id="4329"></path>
    <path d="M447.197887 612.173572c0-33.420444-0.513371-66.738214 0-100.209996 0.770056-41.06967 28.235398-69.613091 66.327518-70.023788 39.170198-0.410697 67.764956 28.748769 68.124315 70.999193q0.718719 97.540467 0 195.080934c-0.308023 41.942401-29.210803 71.871923-67.816293 71.512564s-66.070832-29.724174-66.738214-72.487968c-0.462034-31.520972 0.051337-63.195955 0.102674-94.870939zM581.803732 307.128595a69.151058 69.151058 0 0 1-67.764957 66.738215c-40.453625-0.410697-67.713619-26.951971-66.738214-64.941417a66.738214 66.738214 0 0 1 68.483675-65.04409c37.938108 0.924068 66.738214 28.543421 66.019496 63.247292z" fill="#ee1166" p-id="4330"></path>
</svg>