<?xml version="1.0" standalone="no"?><!DOCTYPE svg PUBLIC "-//W3C//DTD SVG 1.1//EN" "http://www.w3.org/Graphics/SVG/1.1/DTD/svg11.dtd">
<svg t="1543396614532" class="icon" style="" viewBox="0 0 1024 1024" version="1.1" 
    xmlns="http://www.w3.org/2000/svg" p-id="5910" 
    xmlns:xlink="http://www.w3.org/1999/xlink" width="200" height="200">
    <defs>
        <style type="text/css"></style>
    </defs>
    <path d="M512 896a384 384 0 1 1 384-384 384 384 0 0 1-384 384z m0-682.666667a298.666667 298.666667 0 1 0 298.666667 298.666667 298.666667 298.666667 0 0 0-298.666667-298.666667z" fill="#FC455D" p-id="5911"></path>
    <path d="M512 618.666667a32 32 0 0 1-32-32v-64A32 32 0 0 1 512 490.666667a58.88 58.88 0 1 0-58.88-58.88 32 32 0 0 1-64 0 122.88 122.88 0 1 1 154.88 118.613333v36.266667A32 32 0 0 1 512 618.666667z" fill="#FD8F9E" p-id="5912"></path>
    <path d="M511.975006 681.112994m-30.169889 30.169889a42.666667 42.666667 0 1 0 60.339779-60.339779 42.666667 42.666667 0 1 0-60.339779 60.339779Z" fill="#FF9B57" p-id="5913"></path>
</svg>