<?xml version="1.0" standalone="no"?>
<!DOCTYPE svg PUBLIC "-//W3C//DTD SVG 1.1//EN" "http://www.w3.org/Graphics/SVG/1.1/DTD/svg11.dtd">
<svg t="1543390830235" class="icon" style="" viewBox="0 0 1024 1024" version="1.1" 
    xmlns="http://www.w3.org/2000/svg" p-id="1947" 
    xmlns:xlink="http://www.w3.org/1999/xlink" width="200" height="200">
    <defs>
        <style type="text/css"></style>
    </defs>
    <path d="M803.201324 958.881585L605.655589 567.022015a43.470621 43.470621 0 0 1 10.455669-52.510335l205.033496-176.418404c23.759246-20.439352 60.774072-9.727691 69.917783 20.271357l131.011844 429.770368a43.462621 43.462621 0 0 1-10.839656 43.406624l-138.491607 138.499607c-20.879338 20.879338-56.190218 15.311514-69.541794-11.167646z" fill="#A7A9AC" p-id="1948"></path>
    <path d="M456.932307 418.306732L65.088736 220.776997c-26.383163-13.303578-32.094982-48.606458-11.167646-69.541794L192.420697 12.735596A43.454622 43.454622 0 0 1 235.81932 1.88794l429.778368 131.019844c29.975049 9.14371 40.718708 46.150536 20.271357 69.917783l-176.426404 205.033496a43.462621 43.462621 0 0 1-52.510334 10.455669z" fill="#BCBEC0" p-id="1949"></path>
    <path d="M372.990969 767.207665l-38.958764-77.277549-77.277549-38.942765c-25.2312-12.719597-31.774992-45.782548-13.375576-67.157869L687.940979 67.133871c0.367988-0.423987 0.751976-0.847973 1.135964-1.26396 73.397672-78.877498 197.481736-81.397418 273.951311-4.935844 75.245613 75.245613 75.117617 198.657699-4.671852 273.719318-1.223961 1.159963-516.927604 444.83389-518.207563 445.937856-21.279325 18.303419-54.366276 12.015619-67.15787-13.375576z" fill="#D1D3D4" p-id="1950"></path>
    <path d="M963.028254 60.942067v-0.008L334.016206 689.930116h0.007999l38.958765 77.277549c12.799594 25.399194 45.886545 31.678995 67.157869 13.391575 1.279959-1.103965 516.975602-444.785892 518.207563-445.945855a190.193967 190.193967 0 0 0 4.671852-273.711318z" fill="#BCBEC0" p-id="1951"></path>
    <path d="M327.592409 1000.072279L225.787638 798.174683 23.898042 696.385912c-26.391163-13.303578-32.102982-48.614458-11.167646-69.541795l108.236567-108.236567a43.462621 43.462621 0 0 1 50.302405-8.079743l214.68919 108.236567a43.454622 43.454622 0 0 1 19.23939 19.247389l108.236567 214.68919a43.454622 43.454622 0 0 1-8.071744 50.302405l-108.236567 108.236567c-20.879338 20.879338-56.190218 15.319514-69.541794-11.167646z" fill="#BCBEC0" p-id="1952"></path>
    <path d="M513.442514 852.692954l-108.236567-214.681191a43.398623 43.398623 0 0 0-8.079743-11.167646L225.795638 798.174683l101.788772 201.897596c13.359576 26.47916 48.662456 32.054983 69.541794 11.167646l108.236567-108.236567a43.462621 43.462621 0 0 0 8.079743-50.302405z" fill="#A7A9AC" p-id="1953"></path>
</svg>