<?xml version="1.0" standalone="no"?><!DOCTYPE svg PUBLIC "-//W3C//DTD SVG 1.1//EN" "http://www.w3.org/Graphics/SVG/1.1/DTD/svg11.dtd">
<svg t="1544350704011" class="icon" style="" viewBox="0 0 1024 1024" version="1.1" 
    xmlns="http://www.w3.org/2000/svg" p-id="1430" 
    xmlns:xlink="http://www.w3.org/1999/xlink" width="200" height="200">
    <defs>
        <style type="text/css"></style>
    </defs>
    <path d="M437.477493 886.169997l-289.810621-289.810621a38.18627 38.18627 0 1 0-54.003884 54.003885l102.239172 102.177805-103.788716 103.788716-31.742624-31.681256a35.366408 35.366408 0 0 0-50.014961 50.014961l138.845215 138.845215a35.366408 35.366408 0 1 0 50.014961-50.014961l-21.831684-21.831684 103.788716-103.788716 102.300541 102.30054a38.18627 38.18627 0 1 0 54.003885-54.003884zM1016.607789 13.056053L846.065975 6.136805 518.836186 332.691546 185.469592 0 14.912436 6.919248l2.408696 164.128852 329.74588 333.075096-126.755709 126.494895 176.095622 170.603181 122.398577-123.625938 116.307798 117.489133 176.095622-170.603181-120.634246-120.388774 323.624417-326.907607 2.408696-164.128852zM1014.030331 824.648526a35.378681 35.378681 0 0 0-50.014962 0l-31.78865 31.819334-103.804058-103.804058 102.300541-102.300541a38.18627 38.18627 0 1 0-54.003885-54.003885l-289.81062 289.810621a38.18627 38.18627 0 1 0 54.003884 54.003884l102.239173-102.239172 103.850084 103.850084-21.831684 21.862368a35.311176 35.311176 0 0 0 50.014961 49.861541l138.845216-138.845215a35.378681 35.378681 0 0 0 0-50.014961z" p-id="1431" fill="#33ee66"></path>
</svg>