<?xml version="1.0" standalone="no"?><!DOCTYPE svg PUBLIC "-//W3C//DTD SVG 1.1//EN" "http://www.w3.org/Graphics/SVG/1.1/DTD/svg11.dtd">
<svg t="1545016454535" class="icon" style="" viewBox="0 0 1024 1024" version="1.1" 
    xmlns="http://www.w3.org/2000/svg" p-id="16471" 
    xmlns:xlink="http://www.w3.org/1999/xlink" width="40" height="40">
    <defs>
        <style type="text/css"></style>
    </defs>
    <path d="M844.16 940.32a75.84 75.84 0 0 1-40-6.72 120.8 120.8 0 0 1-43.52 4.16c-67.52 0-78.72-2.72-85.92-20.8-2.72-5.92-2.72-7.52-2.72-186.88 1.12-181.76 1.76-183.04 6.4-191.2a32 32 0 0 1 2.88-4.32H657.6a23.52 23.52 0 0 1 8.48 16c1.44 7.2 1.28 49.92 1.28 54.72 0 49.76 0 61.92-14.88 71.36-8 5.28-8.64 5.76-76.16 5.76-214.4 0-218.72-4.32-227.52-13.12a17.92 17.92 0 0 1-3.2-4.64c4.48 240.96 2.88 242.24-11.04 252.16-11.2 8-44.96 9.76-71.2 9.76a109.76 109.76 0 0 1-46.24-6.88 27.36 27.36 0 0 1-10.88 2.24h-3.52c-12.32 0-41.28 2.72-63.04 2.72s-41.28 0-49.44-20c-2.24-5.6-3.68-9.28-8.64-192C77.12 528 77.44 528 82.72 518.4a49.12 49.12 0 0 1 25.44-17.92c0-6.88-0.8-16-1.28-24.64-20.96-13.44-26.08-22.24-27.36-32 0-6.24-1.92-101.6-2.24-164.16C76.8 109.28 80 107.04 90.4 96.96s20-11.2 64-11.2a276.8 276.8 0 0 1 53.6 2.88 184.8 184.8 0 0 1 60.16-4.96c41.28 0 71.04 0 74.24 28.32 0 7.04-3.68 123.68-5.44 168.48h7.36v-3.2c-5.6-60.8-6.88-75.2 14.56-83.68 4.48-1.76 7.84-3.2 62.08-3.2 68.8 0 89.6 0 96 24.48a346.56 346.56 0 0 1 0 43.52 28.16 28.16 0 0 1 4-4.32 64 64 0 0 1 13.92-52.64 51.36 51.36 0 0 1 70.08-12.8 54.08 54.08 0 0 1 8.48 6.24 58.4 58.4 0 0 1 18.24-3.52 36.64 36.64 0 0 1 8.8 1.12 38.4 38.4 0 0 1 26.24 22.72 42.4 42.4 0 0 1-10.72 48 33.76 33.76 0 0 1 4.48 21.12l13.28 1.44c-5.6-176-3.36-177.28 10.72-187.52 10.4-7.68 41.12-11.36 91.04-11.36a103.2 103.2 0 0 1 33.28 3.52 325.76 325.76 0 0 1 67.2-3.84c29.76 0 49.44 0 57.6 19.04 2.72 6.56 3.68 8.64 3.36 180.32s-0.96 173.76-4.64 181.28-7.04 11.52-25.44 20.32v24.8c23.84 10.88 36 17.76 38.72 33.44a691.68 691.68 0 0 1-1.6 76.16c-2.08 60-4.8 142.24-5.28 185.44-0.96 107.2-7.52 119.52-25.92 128a357.12 357.12 0 0 1-68.96 5.6zM343.2 532.48l1.12-1.6h-1.6z m19.2-80A84.32 84.32 0 0 1 368 416a313.44 313.44 0 0 1-35.84-4c-0.96 20.64-1.76 32.96-2.56 40.96z m274.56-1.6h44.64c0-4.64 0-11.2-1.12-19.04a82.4 82.4 0 0 1-12 0c-8.8 0-21.28 0-35.04-1.6a32 32 0 0 1 2.24 6.08 44.16 44.16 0 0 1 1.28 14.24z" fill="#FFFFFF" p-id="16472"></path>
    <path d="M133.44 459.68s-25.92-14.72-26.72-20-5.28-316 1.92-322.56 96-4 96-1.28-9.92 333.92-12.64 338.56-21.92 3.36-24 6.08-4.64 14.08-1.92 14.08 74.08 8.64 74.72 4a61.76 61.76 0 0 0 0-13.28 132.48 132.48 0 0 1-24-9.92c-1.92-2.72 2.08-337.92 4.64-341.28s96-4.64 96 1.28-11.36 336-13.92 340.64-26.72 9.28-26.72 11.36-2.72 12 0 12h101.28c7.2 0 14.72-1.92 14.72-1.92s-5.92-48 4-52.64a412.16 412.16 0 0 1 66.08-3.36l-1.92-29.28s-125.92-3.36-128-9.28-5.92-69.92 0-73.28 64-2.72 62.72-4.64-1.92-11.36-1.92-11.36-20.64-5.28-20.64-8.64-6.72-64-3.36-66.08 120-2.72 121.28 2.72a352 352 0 0 1-4 72h-41.92l-1.28 12 129.28 6.72s2.08-7.36 0-7.36-9.92-4-14.72-4.64-8 0-9.92-2.72-10.72-20.64-8.64-21.92 14.08-7.36 14.08-7.36-13.28-29.92 2.72-48 28-12 36-7.36a52.48 52.48 0 0 1 14.72 16s20-11.36 28-9.28a13.28 13.28 0 0 1 6.72 20 23.52 23.52 0 0 1-16 9.28l-4.64 17.28s16 8 13.28 16-14.72 20.64-23.36 19.36l-21.92-3.36v12s91.36-1.28 93.28 6.72 5.28 83.04-4.64 87.52-125.28-8.64-125.92-4.64 0 26.08 0 26.08 56.64 14.08 58.08 18.72-1.92 32 0 32 136.64 2.08 136.64 0-1.92-13.92-1.92-13.92-33.92-5.92-35.36-11.36-14.72-326.72-7.36-332S800 110.4 800 115.04s0 329.92-2.72 334.72a98.72 98.72 0 0 1-23.36 13.28s-3.36 12.64 0 13.28 76 3.36 75.36 0-1.28-8.64-1.28-8.64-27.36-9.28-28-12.64S813.44 118.4 816 115.68s91.36-5.28 93.28 0 1.28 334.72 0 338.72a126.88 126.88 0 0 1-28 14.72s-1.28 59.36 0 60.64a206.72 206.72 0 0 1 38.08 20c0 4-6.72 185.28-7.36 258.08s-4.64 100.64-9.28 102.72-81.28 6.08-84 0 0-151.36 2.08-237.28-1.28-116 2.08-118.72 29.28-17.92 29.28-21.28S851.36 512 848 512a666.88 666.88 0 0 0-73.28 1.28c-1.28 2.08-1.92 21.28 1.28 22.72s29.28 13.28 29.28 18.72-9.92 350.08-12.64 354.08a396.32 396.32 0 0 1-93.28-1.28c-1.28-3.36 0-349.92 2.72-354.72s40-19.36 40-22.72v-20.64s-133.92-4-133.28-1.92 3.36 18.08 0 20-66.72 2.72-66.72 6.08-5.28 7.36 0 9.28 96 10.08 96 13.28 2.08 96-1.92 98.08-264.64 0-269.28-4-6.72-96-4-100.64 96-5.92 96-8.64 2.72-10.72 0-10.72-61.92-1.28-64-5.28a208 208 0 0 1-2.72-23.36l-117.92 6.08v16a252.8 252.8 0 0 1 39.36 17.28c0 2.72 7.36 352 2.72 354.72s-89.92 9.28-92-1.92S224 544 224 540.48s17.28-16 18.08-19.36 1.28-13.28 1.28-13.28l-77.28-4.64v12.64s40 16 40.64 24.64 2.08 354.08 0 354.08-88 6.72-90.72 0-12-358.88-9.92-362.08 29.28-12.64 30.08-16-2.72-56.8-2.72-56.8z" fill="#1D1D1B" p-id="16473"></path>
    <path d="M138.72 140.48c4.64 0 34.72-2.72 35.36 2.08a152.8 152.8 0 0 1-1.92 43.36 84.96 84.96 0 0 1-36.64 0c-1.44-3.52-2.08-44.8 3.2-45.44zM137.44 201.76a90.88 90.88 0 0 1 33.92 1.28v33.28s-36.64 4-36.64 0-1.28-31.84 2.72-34.56zM135.36 252.48a113.92 113.92 0 0 1 35.36 1.28c0 2.72 0 41.28-2.72 41.28H134.08s0-41.92 1.28-42.56zM136.64 311.04a119.52 119.52 0 0 1 32 1.28 168.16 168.16 0 0 1 0 44.64 147.2 147.2 0 0 1-34.72-1.92 158.88 158.88 0 0 1 2.72-44zM137.44 369.76s29.28 0 29.92 2.72a253.28 253.28 0 0 1-3.36 56c-3.36 0-28 2.08-28.64-1.28a401.44 401.44 0 0 1 2.08-57.44zM246.72 143.04c4.64 0 34.72-2.72 35.36 2.08a152.8 152.8 0 0 1-1.92 43.36 84.96 84.96 0 0 1-36.64 0c-1.44-3.36-2.08-44.48 3.2-45.44zM245.44 204.48a90.88 90.88 0 0 1 34.08 1.28v33.28s-36.64 4-36.64 0-1.44-32 2.56-34.56zM243.36 255.04a113.92 113.92 0 0 1 35.36 1.28c0 2.72 0 41.28-2.72 41.28h-34.08s0.16-41.6 1.44-42.56zM244.64 313.76a119.52 119.52 0 0 1 32 1.28 168.16 168.16 0 0 1 0 44.64 147.2 147.2 0 0 1-34.72-1.92 158.88 158.88 0 0 1 2.72-44zM245.44 372.48s29.28 0 30.08 2.72a253.28 253.28 0 0 1-3.36 56c-3.36 0-28 2.08-28.64-1.28a401.44 401.44 0 0 1 1.92-57.44zM736 141.44c4.64 0 34.56-3.52 35.36 1.12a152.8 152.8 0 0 1-0.96 43.36 84.96 84.96 0 0 1-36.64 0.8c-2.08-3.2-3.84-44.48 2.24-45.28zM736 202.88a90.88 90.88 0 0 1 34.08 0v33.28s-36.64 4.8-36.64 1.6-1.92-32.16 2.56-34.88zM734.56 253.6a113.92 113.92 0 0 1 35.36 0c0 2.72 1.6 41.28-1.76 41.44h-33.92s-0.96-40.8 0.32-41.44zM737.28 312.16a119.52 119.52 0 0 1 32 0 168.16 168.16 0 0 1 1.76 44.64 147.2 147.2 0 0 1-35.04-0.64 158.88 158.88 0 0 1 1.28-44zM739.36 370.72s29.28-1.28 30.08 1.92A253.28 253.28 0 0 1 768 428.8c-3.36 0-28 2.72-28.64 0a401.44 401.44 0 0 1 0-58.08zM846.72 141.44c4.64 0 34.56-3.52 35.36 1.12a152.8 152.8 0 0 1-0.96 43.36 84.96 84.96 0 0 1-36.64 0.8c-1.44-3.2-3.2-44.48 2.24-45.28zM846.72 202.88a90.88 90.88 0 0 1 34.08 0v33.28s-36.64 4.8-36.64 1.6-1.28-32.16 2.56-34.88zM845.92 253.6a113.92 113.92 0 0 1 35.36 0c0 2.72 1.6 41.28-1.76 41.44h-33.92s-0.96-40.8 0.32-41.44zM848 312.16a119.52 119.52 0 0 1 32 0 168.16 168.16 0 0 1 1.76 44.64 147.2 147.2 0 0 1-33.76-0.64 158.88 158.88 0 0 1 0-44zM850.72 370.72s29.28-1.28 29.28 2.08a253.28 253.28 0 0 1-2.08 56c-3.36 0-28 2.72-28.64 0a401.44 401.44 0 0 1 1.44-58.08zM844.64 875.68c4.64 0.8 34.56 4 35.36-1.6a225.28 225.28 0 0 0 0-52.8c-3.2-2.56-35.2-4.96-36.64-0.8s-4 54.24 1.28 55.2zM848 801.28a90.88 90.88 0 0 0 34.08 0V768s-36.64-4.8-36.64-1.6-1.92 32 2.56 34.88zM849.92 748a130.24 130.24 0 0 0 35.36 0c0-2.4 1.44-36-1.76-36.16h-34.08a342.24 342.24 0 0 0 0.48 36.16zM852.64 698.72a160 160 0 0 0 32 0 94.56 94.56 0 0 0 1.44-33.44 195.84 195.84 0 0 0-34.72 0 89.6 89.6 0 0 0 1.28 33.44zM856.48 604.16a132 132 0 0 0 30.08-1.12 125.28 125.28 0 0 0-2.4-39.36 95.04 95.04 0 0 0-28.64 0 197.6 197.6 0 0 0 0.96 40.48zM853.44 653.28a174.08 174.08 0 0 0 33.28-0.96c0-2.08 0.8-36-2.88-36.48a125.6 125.6 0 0 0-32 0 154.08 154.08 0 0 0 1.6 37.44zM730.72 871.68c4.64 0.8 34.56 4 35.36-1.6a225.28 225.28 0 0 0 0-52.8c-3.2-2.56-35.2-4.96-36.64-0.8s-4.16 54.24 1.28 55.2zM733.44 797.28a90.88 90.88 0 0 0 34.08 0v-33.28s-36.64-4.8-36.64-1.6-1.44 32 2.56 34.88zM736 744a130.24 130.24 0 0 0 35.36 0c0-2.4 1.44-36-1.76-36.16H736a342.24 342.24 0 0 0 0 36.16zM738.72 694.72a160 160 0 0 0 32 0 94.56 94.56 0 0 0 1.44-33.44 195.84 195.84 0 0 0-34.72 0 89.6 89.6 0 0 0 1.28 33.44zM742.4 600.16a132 132 0 0 0 30.08-1.12 125.28 125.28 0 0 0-2.4-39.04 95.04 95.04 0 0 0-28.64 0 197.6 197.6 0 0 0 0.96 40.16zM739.36 649.28a174.08 174.08 0 0 0 33.28-0.96c0-2.08 0.8-36-2.88-36.48a125.6 125.6 0 0 0-32 0 154.08 154.08 0 0 0 1.6 37.44zM258.56 869.76c4.64 0 34.72 2.4 35.2-3.2a225.28 225.28 0 0 0-3.2-52.64c-3.36-2.4-35.36-3.2-36.64 0.8s-0.64 54.4 4.64 55.04zM257.92 795.36a90.88 90.88 0 0 0 33.92-2.08c0-2.72-1.44-33.28-1.44-33.28s-36.8-3.2-36.64 0 0.16 32.8 4.16 35.36zM257.92 741.92a130.24 130.24 0 0 0 35.36-1.92c0-2.4 0-36.16-3.52-36l-33.76 1.28a342.24 342.24 0 0 0 1.92 36.64zM258.4 692.64a160 160 0 0 0 32-1.76 94.56 94.56 0 0 0 0-33.44 195.84 195.84 0 0 0-34.56 2.24 89.6 89.6 0 0 0 2.56 32.96zM257.76 597.92a132 132 0 0 0 30.24-2.56 125.28 125.28 0 0 0-4.16-39.2 95.04 95.04 0 0 0-28.64 1.6 197.6 197.6 0 0 0 2.56 40.16zM256.96 647.36a174.08 174.08 0 0 0 33.28-2.56c0-2.24-0.8-36-4.48-36.32a125.6 125.6 0 0 0-32 1.6 154.08 154.08 0 0 0 3.2 37.28zM144 867.2c4.64 0 34.72 2.4 35.2-3.2a225.28 225.28 0 0 0-3.2-52.8c-3.36-2.4-35.36-3.2-36.64 0.8s-0.16 54.4 4.64 55.2zM144 792.64a90.88 90.88 0 0 0 33.92-2.08c0-2.72-1.44-33.28-1.44-33.28s-36.8-3.2-36.64 0 0 32.8 4.16 35.36zM144 739.36a130.24 130.24 0 0 0 35.36-1.92c0-2.4 0-36.16-3.52-36l-33.92 1.44A342.24 342.24 0 0 0 144 739.36zM144 689.92a160 160 0 0 0 32-1.92 94.56 94.56 0 0 0 0-33.44 195.84 195.84 0 0 0-34.56 2.24A89.6 89.6 0 0 0 144 689.92zM144 595.36a132 132 0 0 0 29.76-3.36 125.28 125.28 0 0 0-4.16-39.2 95.04 95.04 0 0 0-28.64 1.6A197.6 197.6 0 0 0 144 595.36zM142.88 644.64a174.08 174.08 0 0 0 33.12-2.56c0-2.24-0.8-36-4.48-36.32a125.6 125.6 0 0 0-32 1.6 154.08 154.08 0 0 0 3.36 37.28z" fill="#85BFE9" p-id="16474"></path>
    <path d="M390.72 235.04s82.72-1.28 83.36 1.28a162.4 162.4 0 0 1-3.36 41.28c-2.72 0-80 0-81.92-2.72a154.72 154.72 0 0 1 1.92-39.84z" fill="#CBE7F5" p-id="16475"></path>
    <path d="M583.36 223.04c2.72 0 12.64 5.28 8 9.28s-13.92 3.36-14.72 7.36-8.64 9.28 4 10.08a92.64 92.64 0 0 0 33.44-9.76s-9.92 25.28-8 28 8 4 9.28 6.08 2.72 9.28 0 10.08a36.48 36.48 0 0 1-41.28-12.16c-16.64-20.96-11.36-45.6 9.28-48.96z" fill="#DDC07C" p-id="16476"></path>
    <path d="M364 331.04c4.8-6.4 85.28 0 167.36 2.72s124 4 126.08 8 2.08 34.08-1.92 34.08-125.28-10.72-128-5.28a285.28 285.28 0 0 0-4.64 74.08c3.36 2.08 60 10.72 61.28 16a69.44 69.44 0 0 1 0 18.08l-16-12s-5.28 6.08-3.36 8.64 22.72 23.36 19.36 25.28-6.72 4-9.28 2.72-28-33.92-32-34.72a34.4 34.4 0 0 0-11.36 2.08l22.72 33.28a35.04 35.04 0 0 1-11.36 0c-1.92-1.28-23.36-28-28-28.64a13.12 13.12 0 0 0-8 1.28l18.72 32s-14.72 2.72-14.72 9.28-5.28 44.64 2.72 46.08 94.72 10.08 96 14.08a32 32 0 0 1 1.28 12.64s-17.28-4.64-17.28 0 16 30.08 12 33.28-9.28 6.08-10.72 3.36-32-40.64-32-40.64-11.36 0-10.72 2.72S579.36 622.4 576 624a64 64 0 0 1-16 0 255.04 255.04 0 0 0-25.92-32c-3.36 0-8.64 0-9.28 2.72a178.08 178.08 0 0 0 17.28 30.08s-72.64-1.28-104.64 0-42.72 2.08-42.72-1.28a388.16 388.16 0 0 1-1.28-55.36c2.72-1.92 94.08-1.92 94.72-5.92s-2.72-48-2.72-48a528 528 0 0 1-61.28-7.36c-1.92-2.72-5.28-60-1.28-61.28s70.08 0 71.36-7.36a420 420 0 0 0-2.72-72.64c-2.72-1.28-122.72-2.72-125.28-5.28a60 60 0 0 1-2.24-29.28z" fill="#E6E4DA" p-id="16477"></path>
    <path d="M436.64 454.4c1.12-1.6 14.72-3.36 16 0a182.4 182.4 0 0 1 0 42.72c-1.92 2.08-12 4.64-14.72 0a136.8 136.8 0 0 1-1.28-42.72z" fill="#1D1D1B" p-id="16478"></path>
</svg>