<?xml version="1.0" standalone="no"?><!DOCTYPE svg PUBLIC "-//W3C//DTD SVG 1.1//EN" "http://www.w3.org/Graphics/SVG/1.1/DTD/svg11.dtd">
<svg t="1545016478918" class="icon" style="" viewBox="0 0 1024 1024" version="1.1" 
    xmlns="http://www.w3.org/2000/svg" p-id="18049" 
    xmlns:xlink="http://www.w3.org/1999/xlink" width="40" height="40">
    <defs>
        <style type="text/css"></style>
    </defs>
    <path d="M304.7 642.7l-33.5 33.5c-18.5 18.5-16.4 50.6 4.8 71.8 21.1 21.1 53.3 23.3 71.8 4.8l33.5-33.5-76.6-76.6z m0 0" fill="#EEAC38" p-id="18050"></path>
    <path d="M419.6 700.1l-95.7-95.7L611 317.2l95.7 95.7-287.1 287.2z m0 0" fill="#206BAB" p-id="18051"></path>
    <path d="M371.8 652.3l-47.9-47.9L611 317.2l47.9 47.9-287.1 287.2z m0 0" fill="#74A2CA" p-id="18052"></path>
    <path d="M668.5 451.2l-95.7-95.7 38.3-38.3 95.7 95.7-38.3 38.3z m0 0" fill="#F0BB5D" p-id="18053"></path>
    <path d="M850.3 958.5L553.6 661.8l95.7-95.7L946 862.8l-95.7 95.7z m0 0" fill="#EEAC38" p-id="18054"></path>
    <path d="M850.3 958.5l-57.4-57.4h114.8l-57.4 57.4z m0 0M773.7 690.5H582.3l-28.7-28.7 47.9-47.9 105.3 9.6 66.9 67z m0 0M649.3 757.5h191.4l67 67H716.3l-67-67z m0 0" fill="#206BAB" p-id="18055"></path>
    <path d="M362.2 470.4L65.5 173.7 161.2 78l296.7 296.7-95.7 95.7z m0 0" fill="#F0BB5D" p-id="18056"></path>
    <path d="M362.2 470.4L304.7 413h114.9l-57.4 57.4z m0 0M285.6 202.4H94.2l-28.7-28.7 47.9-47.9 105.3 9.6 66.9 67z m0 0M161.2 269.4h191.4l67 67H228.2l-67-67z m0 0" fill="#74A2CA" p-id="18057"></path>
    <path d="M649.3 546l-47.9 47.9-18.6-18.6-20.1 20.1 18.6 18.6-47.9 47.9 316.8 316.8 115.9-115.8L649.3 546z m101.4 292.8h151.1l24 24-14.5 14.5H789.2l-38.5-38.5z m55.7-95.5H655.2l-38.5-38.5h151.1l38.6 38.5z m28.4 28.5l38.5 38.5H722.2l-38.5-38.5h151.1zM672.4 609.3h-46.1l23-23 23.1 23z m-74.6 28.5h103.1l38.5 38.5H588.2l-14.5-14.5 24.1-24z m219.9 268h65.2l-32.6 32.6-32.6-32.6z m0 0" fill="#1C1C1A" p-id="18058"></path>
    <path d="M573.2 470.9l-20.1-20.1 19.1-19.1 20.1 20.1-19.1 19.1z m0 0M534.9 509.2L514.8 489l19.1-19.1L554 490l-19.1 19.2z m0 0M496.7 547.5l-20.1-20.1 19.1-19.1 20.1 20.1-19.1 19.1z m0 0M458.4 585.7l-20.1-20.1 19.1-19.1 20.1 20.1-19.1 19.1z m0 0M420.1 624L400 603.9l19.1-19.1 20.1 20.1-19.1 19.1z m0 0" fill="#FFFFFF" p-id="18059"></path>
    <path d="M679 365.1l18.6-18.6-20.1-20.1-18.6 18.6-47.9-47.9-307.3 307.3 115.9 115.8L726.9 413 679 365.1z m7.6 47.9l-18.1 18.1-75.6-75.6 18.1-18.1 75.6 75.6zM344 604.4l228.7-228.7 75.6 75.6-228.7 228.6-75.6-75.5z m0 0M410 442.7l18.6 18.6 20.1-20.1-18.6-18.6 47.9-47.9L161.2 57.8 45.3 173.7l316.9 316.9 47.8-47.9z m-80.4-25.1h65.2l-32.6 32.6-32.6-32.6z m93.7-28.5H301.1l-38.5-38.5h151.1l24 24-14.4 14.5z m-105.1-134H167.1l-38.5-38.5h151.2l38.4 38.5z m28.5 28.5l38.5 38.5H234.1l-38.5-38.5h151.1zM184.2 121.1h-46.1l23-23 23.1 23z m-74.6 28.5h103.1l38.5 38.5H100.1l-14.5-14.5 24-24z m0 0M275.5 633.6l9.1 9.1-18.6 18.6c-23.2 23.2-26.2 59.1-9 85.6l-48.4 48.4 20.1 20.1 48.4-48.4c11.3 7.3 24.2 11 37.2 11 17.5 0 35-6.7 48.4-20l18.6-18.6 9.1 9.1 20.1-20.1-114.8-114.9-20.2 20.1z m67 104.3c-15.6 15.6-40.9 15.6-56.4 0-15.6-15.6-15.6-40.9 0-56.4l18.6-18.6 56.4 56.4-18.6 18.6z m0 0M707.2 336.9l-20.1-20.1 19.1-19.1 20.1 20.1-19.1 19.1z m0 0M754.1 327.3l-57.4-57.4 20.1-20.1 57.4 57.4-20.1 20.1z m0 0M802 317.7L706.3 222l20.1-20.1 95.7 95.7-20.1 20.1z m0 0M849.8 308.2l-134-134 20.1-20.1 134 134-20.1 20.1z m0 0" fill="#1C1C1A" p-id="18060"></path>
</svg>