<?xml version="1.0" standalone="no"?><!DOCTYPE svg PUBLIC "-//W3C//DTD SVG 1.1//EN" "http://www.w3.org/Graphics/SVG/1.1/DTD/svg11.dtd">
<svg t="1545016013177" class="icon" style="" viewBox="0 0 1024 1024" version="1.1" 
    xmlns="http://www.w3.org/2000/svg" p-id="2025" 
    xmlns:xlink="http://www.w3.org/1999/xlink" width="40" height="40">
    <defs>
        <style type="text/css"></style>
    </defs>
    <path d="M514.420377 537.215268m-428.081564 0a428.081564 428.081564 0 1 0 856.163127 0 428.081564 428.081564 0 1 0-856.163127 0Z" fill="#E3DEFF" p-id="2026"></path>
    <path d="M791.138079 538.262894l-13.980385-4.226628c0.21675-4.335003 0.325125-8.670006 0.325125-13.041134a266.34982 266.34982 0 0 0-27.52727-118.201087l24.276018-24.239893a25.034643 25.034643 0 0 0 0-35.438651l-74.236929-74.020179a25.287519 25.287519 0 0 0-35.438651 0l-20.62739 20.663515a267.325196 267.325196 0 0 0-220.579412-21.494391l-3.973753-9.826007a16.075637 16.075637 0 0 0-20.952515-8.850631l-62.460171 25.287518a16.111762 16.111762 0 0 0-8.850631 20.988641l9.031256 22.325266a267.325196 267.325196 0 0 0-77.849432 292.793339l-19.868764 13.330135a23.409017 23.409017 0 0 0-6.46638 32.512524l54.47654 81.42581a23.409017 23.409017 0 0 0 32.512524 6.466379l23.336767-15.606011a265.735695 265.735695 0 0 0 198.07352 57.800042l1.806251 7.514006a13.330135 13.330135 0 0 0 16.075637 9.789882l54.18754-13.041135a13.29401 13.29401 0 0 0 9.826007-16.039511l-2.384252-9.970508a268.156071 268.156071 0 0 0 137.564101-141.899104l7.62238 2.312002a14.630636 14.630636 0 0 0 18.279264-9.826007l17.737388-58.847668A14.630636 14.630636 0 0 0 791.138079 538.262894z" fill="#FFFFFF" p-id="2027"></path>
    <path d="M554.952656 818.845975a27.852395 27.852395 0 0 1-25.287518-16.653637c-6.61088 0.469625-13.113385 0.722501-19.471389 0.7225a282.569957 282.569957 0 0 1-168.559374-56.029916l-14.666761 9.789882a37.931278 37.931278 0 0 1-52.525788-10.404007L219.893036 664.700487a37.425527 37.425527 0 0 1-5.671629-28.394271 37.822903 37.822903 0 0 1 16.075637-24.131518l10.837508-7.225005A281.775206 281.775206 0 0 1 318.983984 314.28773l-5.238129-13.005009a30.525647 30.525647 0 0 1 16.834262-39.737529l62.387921-25.287519a30.634022 30.634022 0 0 1 38.653778 14.450011 281.775206 281.775206 0 0 1 209.778029 21.34989l12.968884-12.932759a39.412404 39.412404 0 0 1 55.849291 0l74.164679 74.128554a39.556904 39.556904 0 0 1 0 55.885416l-17.087137 17.051013a279.246455 279.246455 0 0 1 24.565018 115.166584v2.384252l3.395752 1.047625a28.900021 28.900021 0 0 1 19.47139 36.125027l-17.737388 58.811543a29.116771 29.116771 0 0 1-31.501023 20.519015A280.872081 280.872081 0 0 1 636.450716 773.075566a27.74402 27.74402 0 0 1-20.808015 32.042899l-54.18754 13.041134a26.985395 26.985395 0 0 1-6.502505 0.686376z m-3.612502-47.901785l4.515628 18.748888 51.911663-12.499259-4.949128-20.519015 10.837507-4.913003a252.26106 252.26106 0 0 0 130.050096-134.204474l4.985253-12.101884 20.157765 6.069005 18.062513-58.992168v-0.289001L762.238058 544.765399l0.541876-11.271008c0-4.407253 0.289-8.453256 0.289-12.354759a250.527058 250.527058 0 0 0-26.010019-111.806957l-4.587879-9.284132 31.573274-31.573273a10.837508 10.837508 0 0 0 0-14.991886L689.988005 279.318705a10.837508 10.837508 0 0 0-15.028011 0l-28.502646 28.502645-9.609257-5.563254a252.658435 252.658435 0 0 0-208.622027-20.302264l-12.93276 4.407253-9.139632-22.469767a1.625626 1.625626 0 0 0-0.867-0.903125 1.553376 1.553376 0 0 0-1.264376 0l-62.387921 25.287518a1.589501 1.589501 0 0 0-0.903125 0.903126 1.625626 1.625626 0 0 0 0 1.228251l12.968884 31.970648-7.875256 6.75538a252.875185 252.875185 0 0 0-73.695054 276.970578l3.612503 10.620758-29.297396 19.615889a8.778381 8.778381 0 0 0-3.612503 5.671629 8.922882 8.922882 0 0 0 1.336626 6.75538l54.440415 81.42581a8.959007 8.959007 0 0 0 12.427009 2.456502l32.187398-21.494391 8.272631 6.68313a250.021308 250.021308 0 0 0 158.950117 56.174416 260.100191 260.100191 0 0 0 28.574896-1.661751z" fill="#404951" p-id="2028"></path>
    <path d="M786.911451 553.435405l-24.673393-7.47788 0.541876-11.271008c0-4.371128 0.289-8.417131 0.289-12.354759a250.274183 250.274183 0 0 0-26.010019-111.770832l-4.587879-9.284132 31.573274-31.609398a10.837508 10.837508 0 0 0 0-14.991886L689.988005 280.546955a10.620758 10.620758 0 0 0-15.028011 0l-27.491145 27.491146a273.936076 273.936076 0 0 1-404.130671 333.000494 8.886757 8.886757 0 0 0 0.578001 8.922881l54.440415 81.42581a8.959007 8.959007 0 0 0 12.427009 2.456501l32.187398-21.49439 8.272631 6.53863a251.791434 251.791434 0 0 0 187.416638 54.512664l12.679884-1.408876 4.515628 18.748889 51.911663-12.499259-4.949128-20.48289 10.837507-4.949129a252.26106 252.26106 0 0 0 130.050096-134.204473l4.985253-12.101884 20.157765 6.069005 18.062513-58.992169z" fill="#E3DEFF" p-id="2029"></path>
    <path d="M397.519791 459.185211m-52.381288 0a52.381288 52.381288 0 1 0 104.762577 0 52.381288 52.381288 0 1 0-104.762577 0Z" fill="#CBB8FF" p-id="2030"></path>
    <path d="M397.375291 526.01651a66.831299 66.831299 0 1 1 66.831299-66.831299 66.903549 66.903549 0 0 1-66.831299 66.831299z m0-104.762576a37.931278 37.931278 0 1 0 37.931278 37.931277 37.967403 37.967403 0 0 0-37.931278-37.931277z" fill="#404951" p-id="2031"></path>
    <path d="M602.059691 380.757779m-34.174275 0a34.174275 34.174275 0 1 0 68.34855 0 34.174275 34.174275 0 1 0-68.34855 0Z" fill="#CBB8FF" p-id="2032"></path>
    <path d="M602.059691 429.382064a48.624286 48.624286 0 1 1 48.624286-48.624285 48.696536 48.696536 0 0 1-48.624286 48.624285z m0-68.34855a19.724264 19.724264 0 1 0 19.724264 19.724265 19.760389 19.760389 0 0 0-19.724264-19.724265z" fill="#404951" p-id="2033"></path>
    <path d="M588.404431 559.757285m-68.673675 0a68.673675 68.673675 0 1 0 137.34735 0 68.673675 68.673675 0 1 0-137.34735 0Z" fill="#CBB8FF" p-id="2034"></path>
    <path d="M588.404431 643.025471a83.087561 83.087561 0 1 1 83.087561-83.087561 83.087561 83.087561 0 0 1-83.087561 83.087561z m0-137.275101a54.18754 54.18754 0 1 0 54.18754 54.18754 54.18754 54.18754 0 0 0-54.18754-54.40429z" fill="#404951" p-id="2035"></path>
    <path d="M452.285331 701.800889m-28.863896 0a28.863896 28.863896 0 1 0 57.727792 0 28.863896 28.863896 0 1 0-57.727792 0Z" fill="#CBB8FF" p-id="2036"></path>
    <path d="M452.285331 745.150921a43.350032 43.350032 0 1 1 43.350032-43.350032 43.350032 43.350032 0 0 1-43.350032 43.350032z m0-57.800043a14.450011 14.450011 0 1 0 14.450011 14.450011 14.450011 14.450011 0 0 0-14.450011-14.413886z" fill="#404951" p-id="2037"></path>
</svg>