<?xml version="1.0" standalone="no"?><!DOCTYPE svg PUBLIC "-//W3C//DTD SVG 1.1//EN" "http://www.w3.org/Graphics/SVG/1.1/DTD/svg11.dtd">
<svg t="1545016501158" class="icon" style="" viewBox="0 0 1024 1024" version="1.1" 
    xmlns="http://www.w3.org/2000/svg" p-id="18188" 
    xmlns:xlink="http://www.w3.org/1999/xlink" width="40" height="40">
    <defs>
        <style type="text/css"></style>
    </defs>
    <path d="M202.9 629c-80.3 0-145.4-65.1-145.4-145.4 0-80.3 65.1-145.4 145.4-145.4h450.9c16.1 0 29.1 13 29.1 29.1s-13 29.1-29.1 29.1H581c-16.1 0-29.1 13-29.1 29.1s13 29.1 29.1 29.1h349.1c16.1 0 29.1 13 29.1 29.1s-13 29.1-29.1 29.1H741c-16.1 0-29.1 13-29.1 29.1s13 29.1 29.1 29.1h58.2c16.1 0 29.1 13 29.1 29.1s-13 29.1-29.1 29.1l-596.3-0.2z m0 0" fill="#EEAC38" p-id="18189"></path>
    <path d="M290.1 483.5c0 48.2-39.1 87.3-87.3 87.3s-87.3-39.1-87.3-87.3c0-48.2 39.1-87.3 87.3-87.3s87.3 39.1 87.3 87.3z m0 0" fill="#74A2CA" p-id="18190"></path>
    <path d="M202.9 570.8c48.2 0 87.3-39.1 87.3-87.3 0-48.2-39.1-87.3-87.3-87.3 0 0.1 63.6 74.1 0 174.6" fill="#206BAB" p-id="18191"></path>
    <path d="M799.2 643.1H202.9c-88 0-159.6-71.6-159.6-159.6s71.6-159.6 159.6-159.6h450.9c23.8 0 43.2 19.4 43.2 43.2 0 23.8-19.4 43.2-43.2 43.2H581c-8.2 0-15 6.7-15 15 0 8.2 6.7 15 15 15h349.1c23.8 0 43.2 19.4 43.2 43.2 0 23.8-19.4 43.2-43.2 43.2H741c-8.3 0-15 6.7-15 15s6.7 15 15 15h58.2c23.8 0 43.2 19.4 43.2 43.2 0 23.8-19.4 43.2-43.2 43.2zM202.9 352.2c-72.4 0-131.3 58.9-131.3 131.3s58.9 131.3 131.3 131.3h596.3c8.3 0 15-6.7 15-15 0-8.2-6.7-15-15-15H741c-23.8 0-43.2-19.4-43.2-43.2s19.4-43.2 43.2-43.2h189.1c8.3 0 15-6.7 15-15 0-8.2-6.7-15-15-15H581c-23.8 0-43.2-19.4-43.2-43.2S557.2 382 581 382h72.7c8.2 0 15-6.7 15-15s-6.7-15-15-15H202.9z m0 0" fill="#1C1C1A" p-id="18192"></path>
    <path d="M202.9 584.9c-55.9 0-101.4-45.5-101.4-101.4 0-55.9 45.5-101.4 101.4-101.4s101.4 45.5 101.4 101.4c0 55.9-45.5 101.4-101.4 101.4z m0-174.5c-40.3 0-73.1 32.8-73.1 73.1s32.8 73.1 73.1 73.1 73.1-32.8 73.1-73.1-32.8-73.1-73.1-73.1z m0 0" fill="#1C1C1A" p-id="18193"></path>
    <path d="M304.7 382.1H392v28.3h-87.3zM333.8 469.4h174.5v28.3H333.8zM290.1 556.7h58.2V585h-58.2zM377.4 556.7h218.2V585H377.4zM421 382.1h72.7v28.3H421z" fill="#FFFFFF" p-id="18194"></path>
    <path d="M217.4 265.8h58.2v28.3h-58.2zM304.7 236.7h552.7V265H304.7zM362.8 687.6h130.9v28.3H362.8zM522.8 716.6h378.1v28.3H522.8zM537.4 164h421.8v28.3H537.4zM813.7 309.4h43.6v28.3h-43.6zM915.5 353h58.2v28.3h-58.2zM901 76.7h72.7V105H901zM799.2 105.8h43.6v28.3h-43.6zM595.5 803.9h29.1v28.3h-29.1zM697.4 803.9h276.3v28.3H697.4zM886.4 629.4h58.2v28.3h-58.2zM901 934.8h72.7v28.3H901zM813.7 891.2h58.2v28.3h-58.2z" fill="#1C1C1A" p-id="18195"></path>
</svg>