<?xml version="1.0" standalone="no"?><!DOCTYPE svg PUBLIC "-//W3C//DTD SVG 1.1//EN" "http://www.w3.org/Graphics/SVG/1.1/DTD/svg11.dtd">
<svg t="1545016231470" class="icon" style="" viewBox="0 0 1024 1024" version="1.1" 
    xmlns="http://www.w3.org/2000/svg" p-id="5609" 
    xmlns:xlink="http://www.w3.org/1999/xlink" width="100" height="100">
    <defs>
        <style type="text/css"></style>
    </defs>
    <path d="M140.16 983.04a31.04 31.04 0 0 1-30.4-25.92A34.4 34.4 0 0 1 96 948.8a42.88 42.88 0 0 1-10.4-36.8 27.2 27.2 0 0 1 19.84-22.08l12.16-3.36a36.32 36.32 0 0 1 33.28-28.96h2.88a38.24 38.24 0 0 1 30.4 27.36 30.72 30.72 0 0 1 29.28 22.4 28.8 28.8 0 0 1-6.08 25.6 32 32 0 0 1-3.04 24.96 29.44 29.44 0 0 1-25.6 14.08 50.24 50.24 0 0 1-11.68-1.6 40.32 40.32 0 0 1-26.88 12.64z m711.84-3.36a71.68 71.68 0 0 1-40.32-11.68 54.56 54.56 0 0 1-22.56-53.28 61.6 61.6 0 0 1 13.28-30.08 395.84 395.84 0 0 1-60.96-4.64l-16-2.72-23.52-3.84c18.4 5.92 32.96 10.72 37.6 27.84a51.36 51.36 0 0 1-23.2 54.56A229.12 229.12 0 0 1 612.64 976a338.24 338.24 0 0 1-123.2-23.2 339.36 339.36 0 0 1-182.56-158.08 87.36 87.36 0 0 0 12.16 56.32 237.44 237.44 0 0 0 46.88 57.92 44.48 44.48 0 0 1 16 20.64 35.36 35.36 0 0 1-4.96 30.4 40 40 0 0 1-28.8 16h-3.2c-8.48 0-18.88 0-54.24-42.4a296.8 296.8 0 0 1-44.8-69.12A149.12 149.12 0 0 1 236.8 832a32 32 0 0 1-3.52 6.4 48 48 0 0 1-37.6 17.44 34.4 34.4 0 0 1-22.56-7.84c-8.48-7.04-71.36-81.92-68.32-163.2a428.8 428.8 0 0 1 53.92-180 69.28 69.28 0 0 0-8.64 7.68c-16 16-24.16 26.56-29.92 33.44a38.72 38.72 0 0 1-30.4 19.04 32 32 0 0 1-9.76-1.6s-41.92-14.24-41.92-43.2c0-12.64 25.44-140 117.12-195.84a448 448 0 0 1 168-62.88l9.92-1.76a392 392 0 0 1 53.6-5.12c-12.48-30.08-30.72-60-49.28-65.44a189.28 189.28 0 0 0-44.96-9.76h-3.68a59.36 59.36 0 0 1-7.68 0h-1.76a51.2 51.2 0 0 1-8.64 0.96 34.56 34.56 0 0 1-6.08 0c23.68 6.4 46.4 18.56 46.4 40.16a48 48 0 0 1-9.44 27.68 27.2 27.2 0 0 1-33.44 8.32 117.92 117.92 0 0 0-44.16-8.64 84.48 84.48 0 0 0-17.44 1.76 304 304 0 0 0-47.04 14.24 64 64 0 0 1-23.04 5.92 35.84 35.84 0 0 1-7.52-0.96 40.96 40.96 0 0 1-27.04-32 27.52 27.52 0 0 1 1.12-24.32c8.64-16 43.04-26.88 69.44-32a34.88 34.88 0 0 1-22.56-35.04c-17.6-10.08-31.2-21.28-27.36-40S140.32 83.52 155.36 80c1.12-16 5.6-38.88 30.08-38.88a29.12 29.12 0 0 1 7.84 1.12c9.44 2.72 16 8.16 26.24 28.32a32 32 0 0 1 20.48 15.04 36.32 36.32 0 0 1 5.12 20.96A40.64 40.64 0 0 1 263.36 96a315.36 315.36 0 0 1 99.84-14.88 452.8 452.8 0 0 1 73.76 6.24c97.92 16 177.44 66.72 218.24 137.44a108.64 108.64 0 0 0-15.2-34.88 356 356 0 0 0-53.12-58.24 44 44 0 0 1-8.48-8.96 27.2 27.2 0 0 1 7.52-37.76 49.92 49.92 0 0 1 29.12-11.2c22.56 0 78.08 50.08 98.88 107.2 4 11.04 38.4 108.64-1.44 128a41.6 41.6 0 0 1-18.56 4.96h-5.12c3.2 12.96 5.28 24.64 6.72 34.72a129.28 129.28 0 0 0 52.32-46.88A298.24 298.24 0 0 0 783.2 208a74.08 74.08 0 0 1 6.08-20.32c-16-7.36-18.4-24.48-19.2-40.8a55.36 55.36 0 0 1-20-14.56 33.28 33.28 0 0 1-7.04-28.32A29.6 29.6 0 0 1 772.32 80a32.96 32.96 0 0 1 25.92-25.92h5.44A43.68 43.68 0 0 1 839.36 80a32 32 0 0 1 30.72 26.08A39.36 39.36 0 0 1 864 133.6l-1.92 14.24a27.2 27.2 0 0 1-7.68 16 43.52 43.52 0 0 1 19.2 13.76c19.84 24.48 36.48 108.32 28.64 200.8-1.28 16-3.04 31.04-4.96 44.8a36.96 36.96 0 0 1 13.6-12.16 32 32 0 0 1 13.12-3.04A48 48 0 0 1 960 426.72a29.76 29.76 0 0 1 2.4 25.28v1.92a203.68 203.68 0 0 1-38.56 72.48c-26.24 29.28-32 32-34.72 34.08a27.2 27.2 0 0 1-36.16-8.64l-1.28-1.92A260.32 260.32 0 0 1 829.76 576c-4.8 5.12-9.28 9.6-13.6 13.76H830.72a503.04 503.04 0 0 0 77.12-11.84 202.08 202.08 0 0 1 36.16-5.76 35.04 35.04 0 0 1 10.56 1.44c32 9.92 27.2 55.68 22.72 70.88-6.08 21.28-72.48 99.68-165.92 132.16a417.6 417.6 0 0 1-102.56 20.96 178.24 178.24 0 0 0 48 12.96c6.24 0 13.92 0.96 22.72 0.96 16 0 32-0.96 45.6-1.76 10.4 0 19.36-1.12 25.28-1.12a45.44 45.44 0 0 1 17.6 2.88v-1.28a28.16 28.16 0 0 1 22.88-27.52c4.16-16 12.8-31.04 32-31.04h2.88a38.88 38.88 0 0 1 29.76 24.8 38.72 38.72 0 0 1 21.44 12.8 36 36 0 0 1 6.88 28.96 34.24 34.24 0 0 1-13.44 21.92 27.84 27.84 0 0 1-16 29.76 34.88 34.88 0 0 1-16 3.68 42.24 42.24 0 0 1-6.24 0 39.2 39.2 0 0 1-19.04 5.44 30.72 30.72 0 0 1-13.6-3.2l1.44 1.44a60.32 60.32 0 0 1 16 45.76 61.76 61.76 0 0 1-66.24 56.96zM882.72 864a62.4 62.4 0 0 1 8.48 4.32 30.72 30.72 0 0 1-6.08-10.88 38.56 38.56 0 0 1-2.4 6.56z m-312.32-76a137.12 137.12 0 0 0 48 49.92c9.92 5.76 19.36 10.56 28.16 14.72a32 32 0 0 1-6.72-16 48 48 0 0 1 11.04-37.92 396.32 396.32 0 0 1-74.88-9.44z m-285.92-85.92a110.88 110.88 0 0 0-25.28 21.76 86.08 86.08 0 0 0-12.64 23.2 83.2 83.2 0 0 1 13.76-21.6 30.08 30.08 0 0 1 22.56-9.76h2.88c-0.48-4.64-0.96-9.12-1.28-13.6z m-52.8-528a210.56 210.56 0 0 1 28 4.64 32 32 0 0 1-16.8-13.44l-0.96 1.28a29.12 29.12 0 0 1-10.24 8.32z m-30.56-2.08l-3.04 2.56h7.04z" fill="#FFFFFF" p-id="5610"></path>
    <path d="M176 128.96s0 24 4 24.64 13.28-18.72 13.28-18.72 23.36 19.36 27.36 14.72-8-26.72-7.36-29.92 7.36-13.28 3.36-20-13.92 1.28-13.92 1.28-12.64-32-17.28-32-2.72 30.72-4.64 32-32 6.72-32 10.08S176 128.96 176 128.96z m429.12 732.64a181.6 181.6 0 0 1-81.28-121.28c2.72-2.72 20 13.28 58.08 22.72a431.04 431.04 0 0 0 220.64-12c88-30.72 146.08-104.64 148.64-113.92s4-34.72-4.64-37.28-66.56 15.04-114.56 17.12-84-6.72-83.36-9.92a250.72 250.72 0 0 0 61.28-49.28c40-42.72 56.64-87.36 64-181.92S863.2 208 851.84 194.24s-34.72-1.28-38.72 6.08a393.6 393.6 0 0 1-41.92 115.36 171.04 171.04 0 0 1-100 71.36 314.72 314.72 0 0 0-28.64-125.92c-32-74.08-109.28-129.28-210.08-145.92s-158.56 7.04-161.92 8c-14.72 4-8.64 20.64-5.28 27.36s8 2.72 16 2.72 12-5.28 64 9.92 80 118.08 80 118.08a637.6 637.6 0 0 0-85.92 5.28 433.76 433.76 0 0 0-168.64 61.28c-81.92 50.08-104 166.72-104 172.64s19.36 16 23.36 17.28 8-9.28 41.28-44a126.88 126.88 0 0 1 86.72-33.92h17.12a354.72 354.72 0 0 0-49.28 53.28 393.92 393.92 0 0 0-54.08 172.48c-2.72 71.36 54.72 138.08 58.72 141.28a20.32 20.32 0 0 0 20.64-4.64c3.36-4.64 1.28-17.92 0-29.28a145.76 145.76 0 0 1 26.72-85.92 211.36 211.36 0 0 1 72.64-49.28 336 336 0 0 0 16 113.28C343.84 816 396.48 887.52 499.2 928s192 12.64 202.08 6.08a24.48 24.48 0 0 0 12-24.64c-2.08-7.84-44.16-11.2-108.16-47.84z m57.28-688c26.72 38.08 27.36 104.64 28 109.28s4.64 4 10.08 1.28 8-40-12-94.72a181.76 181.76 0 0 0-73.28-89.28 45.6 45.6 0 0 0-13.92 6.72 416 416 0 0 1 61.28 67.36z m132.64-48c3.36 0 0 34.72 6.08 36.64S816 144 818.56 141.6s16 2.72 16 2.72l2.72-20.64s6.72-8.64 6.08-12.64-16-4.64-18.72-4S810.56 80 803.2 80.96s-5.92 23.36-7.36 26.08-25.12-2.08-25.92 2.08c-1.92 9.12 21.92 16.48 25.28 16.48z m72 400l8 12a208 208 0 0 0 28-28.64 189.12 189.12 0 0 0 34.08-65.92c1.28-2.72-12.16-8.64-14.72-7.36-6.72 3.36-14.72 26.72-21.92 48a117.92 117.92 0 0 1-33.28 41.28z m-9.28 312c-1.92-4-64 4.64-104 0s-76.16-25.6-78.72-24a20.48 20.48 0 0 0-8 19.36c1.28 9.28 34.72 13.28 78.72 20.64a384 384 0 0 0 112 0 20.48 20.48 0 0 0 0-16.64z m-12.64 50.72c-32 10.72-37.28 44.64-17.92 58.08s62.72 8 64-24a33.6 33.6 0 0 0-46.08-34.88z m110.08-69.28a9.12 9.12 0 0 0 1.28-12 24.96 24.96 0 0 0-16-4c-3.36 0-9.28-22.72-16-23.36s-9.28 25.28-9.92 29.28-18.72-0.96-18.72 2.08c0 8.64 18.72 14.08 18.72 14.08s-5.92 21.28-1.92 26.08 16-7.36 16-7.36 9.28 5.28 14.72 2.72-5.92-20.64-5.92-22.72 14.4-3.52 17.76-5.6zM151.2 884.96c-6.72 0-9.92 21.28-11.36 24.64L112 916.96a17.44 17.44 0 0 0 2.72 12.64c4 4 19.36 3.36 19.36 3.36s0 20.64 4.64 22.72 16-11.36 18.72-13.92 21.28 6.08 23.36 2.72-4.64-14.72-4-17.92 10.72-9.28 10.08-12-18.72-2.72-21.28-3.36-7.84-25.6-14.4-26.24z m144-19.36c-34.72-56-5.28-113.92-4.64-117.28s-8.32-7.2-10.72-4.64c-18.72 20.64-25.28 72-9.28 112s68 96 74.08 94.72 12-5.28 10.08-12-24.16-16.8-58.88-72.8z m-160-624c5.28 1.28 24.64-10.72 65.28-19.36a137.76 137.76 0 0 1 78.72 9.28 21.6 21.6 0 0 0 4-11.36c0-5.92-38.72-24-82.72-18.72S126.08 224 127.2 225.6s3.36 15.36 8.64 16.64z" fill="#1D1D1B" p-id="5611"></path>
    <path d="M368 139.52c4-1.28 140 0 202.08 70.72S640 376.32 641.12 388.96s0 26.72 6.08 28.64 38.72 0 80-26.72a192.96 192.96 0 0 0 68-68.64c17.28-25.92 36-76 42.08-77.28S864 343.52 832 448s-89.28 140-106.72 144-25.28 2.72-28.64 7.36 5.28 21.28 9.28 22.72-1.28 14.72 78.08 16 125.28-9.92 126.72-5.92-32 59.36-96 82.72-144 32-177.28 26.72a600.96 600.96 0 0 1-105.28-32c-10.72-5.28-21.28-11.36-28-7.36s-21.92 54.08 12.64 105.28a448 448 0 0 0 104.64 101.28c10.72 7.36 17.28 8.64 14.72 11.36s-104.96 2.72-172.96-40.16-113.92-130.72-120-151.36-7.2-81.12-9.44-88.64-21.28-12.64-32-7.36-70.72 30.72-94.72 74.72-23.36 51.36-23.36 51.36a183.36 183.36 0 0 1-18.72-133.92 336 336 0 0 1 96-155.36c20.64-14.72 37.28-24 36.64-26.72a124.32 124.32 0 0 0-76-16 313.76 313.76 0 0 0-87.36 27.36 130.4 130.4 0 0 1-25.92 14.08s32-61.92 62.72-86.72a395.68 395.68 0 0 1 176-71.36 720 720 0 0 1 108.64-8.64 16 16 0 0 0 6.08-5.28s-5.28-58.72-33.28-93.92A507.2 507.2 0 0 0 368 139.52z" fill="#1F4863" p-id="5612"></path>
    <path d="M852.48 900.96c17.12-6.56 28.64 14.08 26.72 26.08s-27.36 18.08-39.36 11.36-11.36-28.16 12.64-37.44z" fill="#FFE19B" p-id="5613"></path>
    <path d="M435.84 170.88a148.64 148.64 0 0 1 22.08 2.08c2.72 1.28 38.72 48 58.72 132.64s16 93.28 16 93.28-12 0-12-4-16-104-39.36-150.72a665.44 665.44 0 0 0-45.44-73.28zM511.2 208c3.36 0 13.28-1.28 16 2.08a643.04 643.04 0 0 1 36 102.08 241.44 241.44 0 0 1 7.36 80c-2.72 0-8 1.28-9.28-1.28a806.08 806.08 0 0 0-20-109.28 534.4 534.4 0 0 0-30.08-73.6zM582.56 286.88s12.64 0 16 2.72a245.92 245.92 0 0 1 9.44 70.72c2.08 37.28 0 43.36-1.92 42.72s-8.64-1.92-9.28-4-1.28-36-5.28-64a382.4 382.4 0 0 0-8.96-48.16zM670.56 454.88a118.4 118.4 0 0 0 70.08-20.64c39.36-25.92 56-46.72 60-48s5.28 2.72 5.28 6.08a161.6 161.6 0 0 1-65.28 60.64c-37.28 17.28-65.92 17.28-68 16a26.56 26.56 0 0 1-2.08-14.08zM665.76 499.52c2.4-2.4 43.36 3.36 72.64-8.64a358.56 358.56 0 0 0 51.36-29.28c2.72 0 2.72 6.72 1.28 10.72s-21.28 32-68.64 40-60.64 9.28-61.28 5.28a53.92 53.92 0 0 1 4.64-18.08zM669.76 546.88c2.08 1.28 7.36 4.64 27.36 4s24.64-4.64 24-2.72-1.28 11.36-5.28 12.64a103.68 103.68 0 0 1-38.72 4c-12-2.72-9.92 0-12-2.72s4.64-15.2 4.64-15.2zM622.56 580.96s22.72 46.08 53.28 61.28a343.04 343.04 0 0 0 116 26.08c25.28 0 30.08-4.64 30.08-1.28s0 14.08-8.64 14.72-101.92 3.36-146.72-25.92-56.64-60-56-64 9.92-12.96 12-10.88zM573.12 592.96a280.32 280.32 0 0 0 54.08 70.08c36.64 32 83.36 37.28 84 41.28s4.64 7.36-2.72 8.64a146.56 146.56 0 0 1-97.28-43.36c-44-40.64-53.28-73.92-49.92-76a25.76 25.76 0 0 1 11.84-0.64zM525.76 593.6c2.88-3.68 13.28 4.64 13.28 4.64A179.36 179.36 0 0 0 576 670.88c28 30.72 32 30.72 30.72 33.28s-3.36 4.64-9.28 2.72a146.72 146.72 0 0 1-52-56c-20.96-36-22.24-53.92-19.68-57.28zM494.56 596.96c0-1.92 12 0 11.36 2.72a118.4 118.4 0 0 0 4 41.28c5.28 17.28 16 27.36 13.92 30.72s-14.72 2.72-17.92-1.28a160.8 160.8 0 0 1-11.36-73.44zM469.76 580.32c4.32-1.28 12 13.28 12 13.28s-33.28 89.28-7.36 148.64 74.08 131.36 73.28 136a9.76 9.76 0 0 1-5.92 6.72s-61.92-80-80-139.36a214.24 214.24 0 0 1-6.72-115.36c4.16-18.72 10.08-48.64 14.72-49.92z" fill="#1D1D1B" p-id="5614"></path>
    <path d="M446.56 546.88c3.36-1.12 8 8 8 8a254.72 254.72 0 0 0-32 141.28c6.72 78.72 41.28 142.08 40 146.72s-9.28 2.72-12.64 0-48-96-40-174.72 30.56-119.2 36.64-121.28zM422.56 525.6c3.2-0.96 4.64 8 4.64 8a188.96 188.96 0 0 0-43.2 102.72 560 560 0 0 0 2.08 92.64c-1.92 1.28-10.72 1.28-12.64-1.92a381.12 381.12 0 0 1-1.92-113.28c8.32-40.16 41.6-85.76 51.04-88.16zM359.84 556.96c3.36-2.56 6.08 4 6.08 4s-21.28 44-25.28 43.36-11.36-2.72-9.92-4.64 25.76-39.68 29.12-42.72zM183.2 682.24a348.96 348.96 0 0 1 99.36-113.92c64-44 128-70.72 130.72-68.64s2.72 9.28 0 10.72-93.28 39.2-142.72 82.56-69.28 96-73.28 96-14.08-6.72-14.08-6.72zM204.48 586.24a400 400 0 0 1 96-86.72 290.4 290.4 0 0 1 119.36-39.36c1.28 2.08 0 10.72 0 10.72a338.88 338.88 0 0 0-117.92 42.72 379.04 379.04 0 0 0-82.72 77.28 22.72 22.72 0 0 1-5.28 7.36s-8.8-11.36-9.44-12zM327.84 428.32c2.56 0 46.72-5.28 69.28-7.36s30.08 2.72 30.08 6.08a18.4 18.4 0 0 1-3.36 8 256 256 0 0 0-68.64 2.72c-24.64 6.72-32 10.08-32 8s1.92-16.8 4.64-17.44zM172.48 406.24a546.72 546.72 0 0 1 67.52-12c40-4.64 60.64 3.36 61.28 6.72s0 12-3.36 12a250.08 250.08 0 0 0-75.36-2.72c-32 6.08-53.28 12.64-53.92 10.08s4.48-14.08 3.84-14.08zM245.76 365.6c-2.88 0 7.36-9.28 13.28-12a307.36 307.36 0 0 1 138.08 0c71.36 14.4 86.72 46.4 86.72 46.4l-13.92 6.08S451.2 376.32 384 368a456.16 456.16 0 0 0-105.92-3.36 286.56 286.56 0 0 1-32.32 0.96zM389.76 328.96A104.32 104.32 0 0 1 416 320a113.76 113.76 0 0 1 66.72 30.72c27.36 26.72 21.28 36.64 21.28 36.64H496s-21.28-39.36-56-48-50.24-10.4-50.24-10.4zM519.2 416c49.12-12.64 114.72-1.92 106.08 90.08s-142.72 80-158.72 20.64c-10.24-38.56 0.64-97.76 52.64-110.72z" fill="#1D1D1B" p-id="5615"></path>
    <path d="M531.2 438.88c32.96-8.8 73.76-1.6 67.84 60.48s-90.56 56.96-104.48 20.96-8.8-69.28 36.64-81.44z" fill="#696A9B" p-id="5616"></path>
</svg>