<?xml version="1.0" standalone="no"?><!DOCTYPE svg PUBLIC "-//W3C//DTD SVG 1.1//EN" "http://www.w3.org/Graphics/SVG/1.1/DTD/svg11.dtd">
<svg t="1545013258925" class="icon" style="" viewBox="0 0 1024 1024" version="1.1" 
    xmlns="http://www.w3.org/2000/svg" p-id="4849" 
    xmlns:xlink="http://www.w3.org/1999/xlink" width="40" height="40">
    <defs>
        <style type="text/css"></style>
    </defs>
    <path d="M818.8 501.2c0 40.8 33.1 73.9 73.9 73.9 40.8 0 73.9-33.1 73.9-73.9V139.1c0-12.2-9.9-22.2-22.2-22.2-12.2 0-22.2 9.9-22.2 22.2v96.1s-24.8 39.8-44.3 0v-14.8c0-16.3-13.2-29.6-29.6-29.6-16.3 0-29.6 13.2-29.6 29.6v280.8z m0 0" fill="#EEAC38" p-id="4850"></path>
    <path d="M50.4 722.8c0 57.1 46.3 103.4 103.4 103.4 57.1 0 103.4-46.3 103.4-103.4V279.5c0-24.5-19.8-44.3-44.3-44.3-24.5 0-44.3 19.8-44.3 44.3v133c0 16.3-13.2 29.6-29.6 29.6-16.3 0-29.6-13.2-29.6-29.6v-29.6c0-16.3-13.2-29.6-29.6-29.6-16.3 0-29.6 13.2-29.6 29.6v339.9z m0 0" fill="#F0BB5D" p-id="4851"></path>
    <path d="M331.2 767.2c0 117.6 98.1 212.2 216.9 206.7C659.4 968.7 745 872.8 745 761.4v-568c0-24-18-45.5-41.9-46.8-25.6-1.3-46.7 19-46.7 44.3v77.3c0 22.6-18.3 40.9-40.9 40.9h-33c-24.5 0-44.3 19.9-44.3 44.3v41.8c0 24-18 45.5-41.9 46.8-25.6 1.3-46.7-19-46.7-44.3V119.5c0-30.9-22.6-58.4-53.3-61.4-35.3-3.4-64.9 24.3-64.9 58.8v650.3z m0 0" fill="#EEAC38" p-id="4852"></path>
    <path d="M538 395.2c0 24-18 45.5-41.9 46.8-25.6 1.3-46.7-19-46.7-44.3V119.5c0-30.9-22.6-58.4-53.3-61.4-35.3-3.4-64.9 24.3-64.9 58.8v650.2c0 117.6 98.1 212.2 216.9 206.7" fill="#F0BB5D" p-id="4853"></path>
    <path d="M922.3 501.2c0 16.3-13.2 29.6-29.6 29.6-16.3 0-29.6-13.2-29.6-29.6 0-16.3 13.2-29.6 29.6-29.6 16.4 0 29.6 13.3 29.6 29.6z m0 0M212.9 722.8c0 32.6-26.5 59.1-59.1 59.1s-59.1-26.5-59.1-59.1 26.5-59.1 59.1-59.1c32.7 0 59.1 26.5 59.1 59.1z m0 0" fill="#206BAB" p-id="4854"></path>
    <path d="M153.8 782c-32.6 0-59.1-26.5-59.1-59.1s26.5-59.1 59.1-59.1" fill="#74A2CA" p-id="4855"></path>
    <path d="M685.8 767.2c0 81.6-66.2 147.8-147.8 147.8-81.6 0-147.8-66.2-147.8-147.8 0-81.6 66.2-147.8 147.8-147.8 81.7 0 147.8 66.2 147.8 147.8z m0 0" fill="#206BAB" p-id="4856"></path>
    <path d="M538 915c-81.6 0-147.8-66.2-147.8-147.8 0-81.6 66.2-147.8 147.8-147.8" fill="#74A2CA" p-id="4857"></path>
    <path d="M153.8 791.6c-37.9 0-68.7-30.8-68.7-68.7 0-37.9 30.8-68.7 68.7-68.7 37.9 0 68.7 30.8 68.7 68.7 0.1 37.8-30.8 68.7-68.7 68.7z m0-108.4c-21.9 0-39.6 17.8-39.6 39.6 0 21.9 17.8 39.6 39.6 39.6 21.9 0 39.6-17.8 39.6-39.6s-17.7-39.6-39.6-39.6z m0 0M538 929.5c-89.5 0-162.3-72.8-162.3-162.3 0-89.5 72.8-162.3 162.3-162.3 89.5 0 162.3 72.8 162.3 162.3 0.1 89.5-72.7 162.3-162.3 162.3z m0-295.5c-73.5 0-133.2 59.8-133.2 133.2 0 73.5 59.8 133.2 133.2 133.2 73.5 0 133.2-59.8 133.2-133.2 0.1-73.5-59.7-133.2-133.2-133.2z m0 0M892.7 545.3c-24.3 0-44.1-19.8-44.1-44.1s19.8-44.1 44.1-44.1 44.1 19.8 44.1 44.1-19.7 44.1-44.1 44.1z m0-59.1c-8.3 0-15 6.7-15 15s6.7 15 15 15 15-6.7 15-15-6.7-15-15-15z m0 0" fill="#1C1C1A" p-id="4858"></path>
    <path d="M892.7 589.6c-48.8 0-88.4-39.7-88.4-88.4V220.4c0-24.3 19.8-44.1 44.1-44.1s44.1 19.8 44.1 44.1v7.4c0 4.2 3.4 7.6 7.6 7.6 4.2 0 7.6-3.4 7.6-7.6v-81.3c0-20.3 16.5-36.7 36.7-36.7 20.3 0 36.7 16.5 36.7 36.7v354.7c0.1 48.7-39.6 88.4-88.4 88.4z m-44.3-384.2c-8.3 0-15 6.7-15 15v280.8c0 32.7 26.6 59.3 59.3 59.3 32.7 0 59.3-26.6 59.3-59.3V146.5c0-4.2-3.4-7.6-7.6-7.6-4.2 0-7.6 3.4-7.6 7.6v81.3c0 20.3-16.5 36.7-36.7 36.7-20.3 0-36.7-16.5-36.7-36.7v-7.4c0-8.3-6.7-15-15-15z m0 0M153.8 840.8c-65.1 0-118-52.9-118-118V382.9c0-24.3 19.8-44.1 44.1-44.1s44.1 19.8 44.1 44.1v29.6c0 8.3 6.7 15 15 15s15-6.7 15-15v-133c0-32.5 26.4-58.9 58.9-58.9s58.9 26.4 58.9 58.9v443.3c0 65.1-52.9 118-118 118zM79.9 367.9c-8.3 0-15 6.7-15 15v339.9c0 49 39.9 88.9 88.9 88.9s88.9-39.9 88.9-88.9V279.5c0-16.4-13.4-29.8-29.8-29.8s-29.8 13.4-29.8 29.8v133c0 24.3-19.8 44.1-44.1 44.1s-44.1-19.8-44.1-44.1v-29.6c0-8.2-6.7-15-15-15z m0 0" fill="#1C1C1A" p-id="4859"></path>
    <path d="M80.1 486.4h29.1v133H80.1zM139.3 560.3h29.1v73.9h-29.1zM198.4 442.1h29.1v147.8h-29.1z" fill="#FFFFFF" p-id="4860"></path>
    <path d="M538 988.6c-122.1 0-221.5-99.3-221.5-221.5V116.9c0-40.6 33.1-73.7 73.7-73.7s73.7 33.1 73.7 73.7v280.8c0 16.4 13.4 29.8 29.8 29.8s29.8-13.4 29.8-29.8v-44.3c0-32.5 26.4-58.9 58.9-58.9H612c16.4 0 29.8-13.4 29.8-29.8v-73.9c0-32.5 26.4-58.9 58.9-58.9s58.9 26.4 58.9 58.9v576.3c-0.1 122.2-99.4 221.5-221.6 221.5zM390.3 72.4c-24.6 0-44.6 20-44.6 44.5v650.2c0 106.1 86.3 192.3 192.3 192.3 106.1 0 192.3-86.3 192.3-192.3V190.8c0-16.4-13.4-29.8-29.8-29.8s-29.8 13.4-29.8 29.8v73.9c0 32.5-26.4 58.9-58.9 58.9h-29.6c-16.4 0-29.8 13.4-29.8 29.8v44.3c0 32.5-26.4 58.9-58.9 58.9s-58.9-26.4-58.9-58.9V116.9c0.2-24.5-19.8-44.5-44.3-44.5z m0 0" fill="#1C1C1A" p-id="4861"></path>
    <path d="M523.5 471.6h29.1v266h-29.1zM612.1 382.9h29.1V575h-29.1zM671.3 589.8h29.1v59.1h-29.1zM375.7 368.2h29.1V649h-29.1zM449.6 560.3h29.1v133h-29.1zM567.8 767.2h29.1v44.3h-29.1zM848.6 323.8h29.1V442h-29.1zM907.7 279.5h29.1v162.6h-29.1z" fill="#FFFFFF" p-id="4862"></path>
</svg>