<?xml version="1.0" standalone="no"?><!DOCTYPE svg PUBLIC "-//W3C//DTD SVG 1.1//EN" "http://www.w3.org/Graphics/SVG/1.1/DTD/svg11.dtd">
<svg t="1545013612205" class="icon" style="" viewBox="0 0 1024 1024" version="1.1" 
    xmlns="http://www.w3.org/2000/svg" p-id="6255" 
    xmlns:xlink="http://www.w3.org/1999/xlink" width="100" height="100">
    <defs>
        <style type="text/css"></style>
    </defs>
    <path d="M528 753.184c183.616 0 336.896 32.224 374.8 75.28l-145.552-211.632-10.496 2.592c-133.248 32.8-304.288 32.8-437.536 0l-10.496-2.592-147.904 214.256h0.208c33.872-44.368 189.664-77.92 376.96-77.92z" fill="#DEEFDD" p-id="6256"></path>
    <path d="M80 465.168a448 192 0 1 0 896 0 448 192 0 1 0-896 0Z" fill="#7F8FA0" p-id="6257"></path>
    <path d="M528 600.672c-225.408 0-411.408-71.424-442.816-164.304a85.44 85.44 0 0 0-5.184 28.8c0 106.048 200.576 192 448 192s448-85.952 448-192a85.44 85.44 0 0 0-5.184-28.8C939.408 529.248 753.408 600.672 528 600.672z" fill="#738394" p-id="6258"></path>
    <path d="M273.936 307.12c-1.12 10.112-1.808 20.32-1.648 30.688 0.16 9.616 5.072 18.72 12.8 24.48 55.088 40.992 116.864 70.88 242.912 70.88s187.84-29.888 242.912-70.88c7.728-5.76 12.64-14.864 12.8-24.48a244.16 244.16 0 0 0-1.664-30.704c-72.224-21.36-159.68-33.92-254.048-33.92-94.4 0-181.84 12.56-254.064 33.92z" fill="#A6B5C8" p-id="6259"></path>
    <path d="M772.704 360.192C741.552 336.544 644.32 319.184 528 319.184s-213.552 17.36-244.704 41.008c0.688 0.608 1.04 1.536 1.792 2.08 55.088 41.008 116.864 70.912 242.912 70.912s187.84-29.92 242.912-70.896c0.752-0.56 1.104-1.488 1.792-2.096z" fill="#7F8FA0" p-id="6260"></path>
    <path d="M772.704 360.192C741.552 336.544 644.32 319.184 528 319.184s-213.552 17.36-244.704 41.008c0.688 0.608 1.04 1.536 1.792 2.08 55.088 41.008 116.864 70.912 242.912 70.912s187.84-29.92 242.912-70.896c0.752-0.56 1.104-1.488 1.792-2.096z" fill="#8D9DAE" p-id="6261"></path>
    <path d="M528 273.168c94.384 0 181.824 12.576 254.048 33.936-13.728-123.936-120.48-225.92-254.048-225.92-133.056 0-240.32 101.6-254.064 225.92 72.224-21.344 159.68-33.92 254.064-33.92z" fill="#CDDCF0" p-id="6262"></path>
    <path d="M528 433.168c36.064 0 66.4-2.672 93.296-7.12 11.52-27.312 18.704-58.656 18.704-90.88 0-61.744-50.24-112-112-112s-112 50.256-112 112c0 32.224 7.2 63.552 18.704 90.88 26.88 4.448 57.232 7.12 93.28 7.12z" fill="#ACC6B9" p-id="6263"></path>
    <path d="M528 465.168a64 64 0 1 0 0 128 64 64 0 0 0 0-128zM240 417.168a64 64 0 1 0 0 128 64 64 0 0 0 0-128zM816 417.168a64 64 0 1 0 0 128 64 64 0 0 0 0-128z" fill="#A6B5C8" p-id="6264"></path>
    <path d="M465.236254 377.178971a40.512 20.256 31.47 1 0 21.149373-34.553237 40.512 20.256 31.47 1 0-21.149373 34.553237Z" fill="" p-id="6265"></path>
    <path d="M545.503795 381.066998a20.256 40.512 58.539 1 0 69.113117-42.287889 20.256 40.512 58.539 1 0-69.113117 42.287889Z" fill="" p-id="6266"></path>
    <path d="M519.056 224.08a63.888 63.888 0 0 0-126.016 15.104c0 23.248 12.528 43.424 31.088 54.624a111.776 111.776 0 0 1 94.928-69.728z" fill="#DCE7F6" p-id="6267"></path>
    <path d="M521.04 239.168c0-5.216-0.8-10.224-1.984-15.088a111.776 111.776 0 0 0-94.928 69.728 63.424 63.424 0 0 0 32.912 9.36 64 64 0 0 0 64-64z" fill="#ACC6B9" p-id="6268"></path>
    <path d="M521.04 239.168c0-5.216-0.8-10.224-1.984-15.088a111.776 111.776 0 0 0-94.928 69.728 63.424 63.424 0 0 0 32.912 9.36 64 64 0 0 0 64-64z" fill="#C5D8D0" p-id="6269"></path>
    <path d="M144 849.184a384 96 0 1 0 768 0 384 96 0 1 0-768 0Z" fill="#C7E4C7" p-id="6270"></path>
    <path d="M528 497.168c17.648 0 32 14.368 32 32s-14.352 32-32 32-32-14.352-32-32 14.352-32 32-32" fill="#5886C5" p-id="6271"></path>
    <path d="M240 449.168c17.648 0 32 14.368 32 32 0 17.648-14.352 32-32 32s-32-14.352-32-32c0-17.632 14.352-32 32-32" fill="#EE6058" p-id="6272"></path>
    <path d="M816 449.168c17.648 0 32 14.368 32 32 0 17.648-14.352 32-32 32s-32-14.352-32-32c0-17.632 14.352-32 32-32" fill="#EB7A25" p-id="6273"></path>
</svg>