<?xml version="1.0" standalone="no"?><!DOCTYPE svg PUBLIC "-//W3C//DTD SVG 1.1//EN" "http://www.w3.org/Graphics/SVG/1.1/DTD/svg11.dtd">
<svg t="1545013596464" class="icon" style="" viewBox="0 0 1024 1024" version="1.1" 
    xmlns="http://www.w3.org/2000/svg" p-id="5962" 
    xmlns:xlink="http://www.w3.org/1999/xlink" width="100" height="100">
    <defs>
        <style type="text/css"></style>
    </defs>
    <path d="M844 999.68c-9.28 0-33.12-1.12-62.4-71.68a32 32 0 0 1-28-25.44c0-1.76-1.28-6.4-4.32-59.68l-120.64 62.88c1.76 38.24-4.64 49.6-17.12 56.48-16 8.8-120.96 12.16-138.24 12.16-37.92 0-65.28-1.76-72.96-25.76a184 184 0 0 1-5.92-38.88c-23.36-13.6-72.48-42.08-96-53.6l-7.52-3.68a57.12 57.12 0 0 1-4.16 29.44 35.2 35.2 0 0 1-18.56 16c-8.8 32-27.84 77.92-65.28 80h-3.04c-37.6 0-64-45.44-75.68-73.92a35.04 35.04 0 0 1-23.68-30.72v-16c-9.92-249.12-9.44-249.6 1.92-260.96s41.6-24.32 86.24-24.32H192a149.28 149.28 0 0 1 33.6 4q-8.48-13.12-16-27.84c-51.04-93.28-58.08-197.44-20.64-309.76 27.68-83.04 126.72-183.36 256-205.6a533.28 533.28 0 0 1 91.52-8.96c92.32 0 165.92 34.24 238.24 111.04 102.72 109.92 87.84 297.12 64.16 356.48l-3.04 7.68a519.2 519.2 0 0 1-42.72 89.44 269.28 269.28 0 0 1 49.76-3.68c32 0 80 20.64 80 51.84 0 1.76 0 11.04 1.12 24.8 11.04 232.64 9.28 234.08-3.68 245.6a52.32 52.32 0 0 1-21.6 10.4c-5.92 33.28-19.36 82.4-53.6 82.4h-1.28z" fill="#FFFFFF" p-id="5963"></path>
    <path d="M232.96 535.2c-58.88-107.52-44-212-18.72-288S332.96 80 448.96 59.84 656 49.28 754.24 153.92 832 435.84 813.6 481.28 768 605.92 695.04 650.56A383.04 383.04 0 0 1 555.04 704v30.72s32 2.08 36.64 10.72a188.8 188.8 0 0 1 4 42.72S784 689.28 784 685.28s-4.64-58.72 0-64 32-8.64 58.72-8.64S896 629.28 896 636.64s12.64 244.64 6.72 250.08a72.32 72.32 0 0 1-27.36 7.36s-11.36 80-29.92 78.72S800 901.28 800 901.28s-18.72 2.72-20-4-5.76-97.28-5.76-97.28l-173.92 89.92s4 45.28-1.92 48-167.36 16-172 2.08a233.76 233.76 0 0 1-5.28-46.72S343.04 848 310.24 832s-48-21.92-48-21.92a448 448 0 0 1 0 60c-2.72 5.28-16 6.08-16 6.08s-16 74.08-44.64 76-56-67.36-56-67.36-17.6-6.88-17.6-10.24-10.72-253.28-6.72-257.28 25.76-18.72 70.72-18.08 60.64 19.36 62.08 27.36 2.72 88 2.72 88L404.32 784s-1.28-37.92 12-44.64a80 80 0 0 1 34.08-5.28l-1.92-32s-127.52-6.24-215.52-166.88z" fill="#1D1D1B" p-id="5964"></path>
    <path d="M497.6 88.64c96-9.12 188.64 17.28 249.28 97.28s62.08 244.64 26.08 320S687.04 653.92 601.6 672s-216.64 5.28-280.64-69.28-109.28-180.64-96-268.64S307.04 106.56 497.6 88.64z" fill="#E6E4DA" p-id="5965"></path>
    <path d="M403.04 281.28c24-20.64 94.08-36.64 136-42.08s75.36 14.08 68.64 64-25.92 168-57.92 190.72-83.36 14.72-93.28 3.36-55.36-128-60.64-149.28-11.84-50.08 7.2-66.72z" fill="#1D1D1B" p-id="5966"></path>
    <path d="M435.04 289.92c9.44-5.44 120-32 132.64-21.92s0 56.64 0 56.64-13.28-7.36-16-5.28-9.92 8-5.28 10.72 17.28 4.64 17.28 8a113.28 113.28 0 0 1-3.36 16s-34.72-18.72-37.28-13.28-4 6.08-1.28 8.64 37.28 12 36.64 17.28-1.92 12.64-1.92 12.64a362.88 362.88 0 0 0-48-17.28c-1.28 2.08-5.28 10.72-3.36 12.64s46.72 16 46.08 20.64-3.36 14.72-3.36 14.72a310.88 310.88 0 0 0-48-20c-1.28 2.72-5.28 8.64-1.28 11.36s49.28 20 48 23.36-2.72 12.64-5.28 12-46.24-22.88-50.24-20.8-5.92 10.08-2.72 12 52 20 51.36 23.36 0 10.08-2.72 10.72-44.64-16-46.72-14.72-5.28 8 0 11.36 43.36 11.36 40 14.72a64.8 64.8 0 0 1-30.72 8.64c-12.64 0-18.72 2.72-36.64-39.36a647.52 647.52 0 0 1-40-125.28c-0.64-13.44-1.92-19.52 12.16-27.52z" fill="#92A0D1" p-id="5967"></path>
    <path d="M462.24 120.64c0.8-2.56 13.28-4 16 0a384 384 0 0 1 12 71.36c-2.72 3.36-8.64 6.72-9.92 4a677.44 677.44 0 0 1-18.08-75.36zM545.6 113.92a11.68 11.68 0 0 1 16 3.36 212.16 212.16 0 0 1-6.72 70.08c-4 1.28-9.92 1.28-10.72-1.28a519.36 519.36 0 0 1 1.44-72.16zM666.24 171.84c5.12-3.36 14.72 12 9.28 16s-45.28 40-48 39.36-9.28-1.92-6.72-4.64 43.52-49.28 45.44-50.72zM639.04 305.92c0-2.08 78.72-20 82.08-16s9.28 12.64 2.72 14.72a744.64 744.64 0 0 1-84.64 14.08c-2.88-1.44 0.8-10.08-0.16-12.8zM641.6 372.64c2.4-1.28 100.64 4.64 100.64 9.28s4 9.28-1.92 10.08a914.08 914.08 0 0 1-98.08-8c-3.2-2.08-5.92-8.8-0.64-11.36zM640 449.28c2.56-0.8 74.08 21.28 72 26.72s-3.36 9.28-6.72 9.28a541.6 541.6 0 0 1-72-24.64c-4.32-4 2.4-10.08 6.72-11.36zM595.68 513.28c2.56-1.6 71.36 70.72 68.64 74.08s-8 9.28-12 8-70.72-71.36-68-74.72a45.92 45.92 0 0 1 11.36-7.36zM483.68 549.28c27.04-16 80 1.28 69.28 51.36s-64 44-81.92 24a50.08 50.08 0 0 1 12.64-75.36z" fill="#1D1D1B" p-id="5968"></path>
    <path d="M492.16 564.64a29.76 29.76 0 0 1 44 32 30.4 30.4 0 0 1-52 16 32 32 0 0 1 8-48z" fill="#F2910D" p-id="5969"></path>
    <path d="M387.68 509.92c4.16 0 10.08 2.08 8.64 7.36a336 336 0 0 1-52.64 57.28c-4 0-12-2.72-9.92-7.36s46.56-55.2 53.92-57.28zM274.24 456.64c0.96-6.24 74.72-32 78.08-29.28s7.36 11.36 3.36 13.28-73.28 32-76 30.72-6.08-10.72-5.44-14.72zM252.96 345.92a771.52 771.52 0 0 1 89.28 16c2.72 2.72 4.64 7.36 0 8.64s-93.92-9.92-93.92-9.92 1.28-12.8 4.64-14.72zM280.96 256c2.56-0.8 72.64 23.36 72.64 27.36s-4 12-6.72 11.36-67.84-22.72-70.56-24.16 0.64-12.64 4.64-14.56zM362.24 169.92c0-2.4 11.36-11.36 14.72-9.28s52 58.72 48 64-9.28 9.28-11.36 7.36-50.56-58.72-51.36-62.08z" fill="#1D1D1B" p-id="5970"></path>
    <path d="M467.68 705.28c1.76-1.12 16 2.72 38.08 4.64s30.08-4.64 32 0a60.8 60.8 0 0 1 0 26.72c-1.92 0-28.64-2.72-44-1.92s-24.64 3.36-25.28 0-4.48-26.88-0.8-29.44z" fill="#DDC07C" p-id="5971"></path>
    <path d="M149.6 631.2c3.68-5.6 28.64-9.92 48-9.28s32 9.28 34.08 14.72 6.72 204 0 205.28a233.6 233.6 0 0 0-48 4c-16 5.28-27.36 10.08-27.36 10.08s-10.72-218.72-6.72-224.8z" fill="#E6E4DA" p-id="5972"></path>
    <path d="M168.96 643.2c4.96-4.96 16-4 17.28 0s3.36 51.36-1.28 56-17.28 4.64-17.28 0a312.96 312.96 0 0 1 1.28-56z" fill="#1D1D1B" p-id="5973"></path>
    <path d="M167.04 880c0-6.88 20-11.36 36.64-10.72s25.28 4 25.28 8-16 55.36-25.92 57.28-36-44.64-36-54.56z" fill="#F2910D" p-id="5974"></path>
    <path d="M263.04 739.84c3.84-2.88 148.64 65.28 148.64 68.64a362.88 362.88 0 0 1 1.28 53.28c-2.72 1.28-11.36-4-11.36-4a188.32 188.32 0 0 0-2.56-41.76c-3.36-1.28-16-1.28-16 1.28s6.08 37.28 2.72 36-19.36-8.64-19.36-11.36 3.36-22.72 0-24-14.72-7.36-13.92-4 0 20.64 0 20.64-90.72-36-90.72-40a364.64 364.64 0 0 1 1.28-54.72z" fill="#DDC07C" p-id="5975"></path>
    <path d="M439.68 764.64c2.56-3.68 125.28-6.72 126.72 0a324.8 324.8 0 0 1 2.08 54.72c-1.92-1.28-16-16-17.92-13.28s-6.72 9.28-4.64 11.36 24.64 17.28 25.28 22.72 1.28 22.08 1.28 22.08S547.68 832 544 833.28s-8.64 9.28-5.92 12 34.72 38.08 36.64 42.72 4.96 24 1.28 24a35.84 35.84 0 0 1-14.72 0c-1.92-1.28-32-46.72-34.72-46.72s-9.28 4-8.64 6.08A299.04 299.04 0 0 1 541.6 912a43.04 43.04 0 0 1-20.64 0c-1.92-1.92-18.72-32-21.92-32s-14.72 4.64-12.64 8 12.64 22.72 10.08 23.36-41.28 5.28-45.92 0-13.6-143.36-10.88-146.72z" fill="#E6E4DA" p-id="5976"></path>
    <path d="M460.96 781.92c3.52-1.76 11.36-4 12.64 1.28s5.28 48 0 49.28-8.64 6.72-11.36 1.28-5.28-49.76-1.28-51.84z" fill="#1D1D1B" p-id="5977"></path>
    <path d="M601.6 803.2c4.64-1.28 174.72-97.92 176-93.92a579.2 579.2 0 0 1 2.08 68 1062.72 1062.72 0 0 1-120.64 64c0-3.36 2.72-36.64 0-37.92s-10.72-2.72-10.72 0 3.36 43.36 0 44-16 12-16 8a313.12 313.12 0 0 0-2.72-45.28c-1.92 0-16 4.64-16 8.64s6.08 42.08 2.08 44.64a171.84 171.84 0 0 1-16 8s-2.72-66.72 1.92-68.16z" fill="#DDC07C" p-id="5978"></path>
    <path d="M807.68 635.84c3.68-5.92 26.08-1.28 42.08 2.08a74.08 74.08 0 0 1 21.28 6.72s2.72 171.36 0 168.64-16-18.72-20-18.72-8 11.36-6.72 14.08 25.28 18.08 26.08 22.08a67.68 67.68 0 0 1 0 12 180.32 180.32 0 0 0-30.72-21.92c-2.72 1.28-6.72 11.36-3.36 14.08a285.28 285.28 0 0 1 36 32c0 3.36 0 8-4.64 6.08S837.6 848 832 849.28a10.56 10.56 0 0 0-5.92 14.08 100.48 100.48 0 0 0 13.28 10.72s-24.64 8.64-27.36 3.36-7.68-236.16-4.32-241.6z" fill="#E6E4DA" p-id="5979"></path>
    <path d="M819.04 896c0-5.28 24.64-3.36 30.72-4a18.4 18.4 0 0 1 12 4.64s-11.36 50.08-17.92 50.72-24.16-44.8-24.8-51.36z" fill="#F2910D" p-id="5980"></path>
</svg>