<?xml version="1.0" standalone="no"?><!DOCTYPE svg PUBLIC "-//W3C//DTD SVG 1.1//EN" "http://www.w3.org/Graphics/SVG/1.1/DTD/svg11.dtd">
<svg t="1545013602991" class="icon" style="" viewBox="0 0 1024 1024" version="1.1" 
    xmlns="http://www.w3.org/2000/svg" p-id="6109" 
    xmlns:xlink="http://www.w3.org/1999/xlink" width="100" height="100">
    <defs>
        <style type="text/css"></style>
    </defs>
    <path d="M702.4 953.44a130.72 130.72 0 0 1-52.8-9.44 269.28 269.28 0 0 1-65.6-50.24 267.52 267.52 0 0 1-72.96 10.24h-12.8a224 224 0 0 1-68.48-13.44A171.84 171.84 0 0 1 304 947.36a166.72 166.72 0 0 1-19.04-1.12c-97.92-11.52-172.48-105.76-209.76-190.08a546.4 546.4 0 0 1-40.8-280C46.4 373.12 112 259.68 144 214.08l1.28-1.76c34.56-48 92.16-128 192.96-141.12a85.92 85.92 0 0 1 10.4 0 75.68 75.68 0 0 1 62.4 32 98.88 98.88 0 0 1 8.64 88.8 512 512 0 0 1-33.28 70.4c-21.28 40-45.44 85.44-51.52 129.12-7.52 54.72-1.92 98.4 16 130.08 2.24 4 4.8 7.84 7.36 11.52a188 188 0 0 1 160-98.56h2.56a152 152 0 0 1 141.76 86.24 163.2 163.2 0 0 0 9.76-51.36c4.16-87.84-10.4-167.04-40.96-223.04l-16-28.32c-34.4-62.56-43.68-80-39.84-97.12 2.72-13.12 16-43.36 77.76-43.36a310.88 310.88 0 0 1 51.2 4.96c90.08 16 202.56 106.24 250.72 202.72 55.52 111.04 32 285.28 23.84 336-16 94.56-80 216.48-146.4 277.6a194.24 194.24 0 0 1-130.24 54.56z" fill="#FFFFFF" p-id="6110"></path>
    <path d="M341.44 98.24c40.16-4.96 70.56 32 52.48 85.44s-75.52 128-85.92 204.48 4.48 120.96 20 147.52a289.44 289.44 0 0 0 37.44 48.96s36-120.96 154.08-122.56 134.08 115.04 134.08 115.04 43.04-20.48 47.04-105.92-9.12-172.64-44.64-237.28-54.72-97.28-52.64-106.72 16-32 97.76-17.28 187.68 101.28 231.04 188 36.64 227.36 21.28 320-80 208-137.92 262.08-125.28 52.64-154.72 39.36a304 304 0 0 1-68.8-57.44 228.8 228.8 0 0 1-92 14.08 156.48 156.48 0 0 1-77.28-20s-48 73.28-133.28 64-153.28-96-188-173.92a516 516 0 0 1-39.36-266.88c10.72-96 72-204.64 104-249.28s85.44-120.8 175.36-131.68z" fill="#1D1D1B" p-id="6111"></path>
    <path d="M346.08 129.12c32 2.72 26.08 43.36 4.64 82.72s-61.92 94.72-73.28 173.92a247.84 247.84 0 0 0 32 173.28 229.12 229.12 0 0 0 48 56.64 451.68 451.68 0 0 0-3.36 117.28 295.2 295.2 0 0 0 38.72 105.28S352 891.2 290.88 889.12s-128-64-168.64-174.72-44.16-209.28-22.72-290.56a644.48 644.48 0 0 1 128-232c44.48-46.72 86.56-65.28 118.56-62.72z" fill="#F2910D" p-id="6112"></path>
    <path d="M270.88 174.56a46.56 46.56 0 0 1 29.28-13.28c18.08-3.36 32-2.72 32 0s0 13.28-3.36 13.28a50.56 50.56 0 0 0-33.28 2.72c-12.64 8-21.28 16-23.36 14.08a24.32 24.32 0 0 1-1.28-16.8zM236.16 249.12c27.84-4.8 39.36 14.08 36.64 44.64s-52.64 44.64-72 20.64 4.64-59.84 35.36-65.28z" fill="#1D1D1B" p-id="6113"></path>
    <path d="M235.36 261.12c19.2-3.36 27.04 9.6 25.28 30.72a29.92 29.92 0 0 1-49.6 14.24c-13.28-16.48 3.2-41.28 24.32-44.96z" fill="#FFE19B" p-id="6114"></path>
    <path d="M152.8 444.48c17.76-22.08 89.28-23.36 88 57.28s-90.72 66.08-105.28 30.72a82.08 82.08 0 0 1 17.28-88z" fill="#1D1D1B" p-id="6115"></path>
    <path d="M162.4 460c12.48-16 62.72-16 61.76 40.16s-64 46.24-73.92 21.44a57.44 57.44 0 0 1 12.16-61.6z" fill="#F2910D" p-id="6116"></path>
    <path d="M186.08 643.2c24-28.48 98.72-23.36 102.72 54.08s-88 87.36-110.72 40-9.92-72.8 8-94.08z" fill="#1D1D1B" p-id="6117"></path>
    <path d="M196.48 656c17.92-21.28 73.92-17.44 76.8 40.48s-65.28 65.92-82.72 30.56-7.52-55.04 5.92-71.04z" fill="#E7413E" p-id="6118"></path>
    <path d="M229.44 814.56a76.96 76.96 0 0 0 36 32c23.36 8.64 34.08-5.28 38.72-4s8 12 4.64 14.72a43.2 43.2 0 0 1-54.72 1.28c-28.64-20-38.72-29.28-37.28-33.92s12.64-10.08 12.64-10.08z" fill="#1D1D1B" p-id="6119"></path>
    <path d="M512 490.56c43.36-2.4 94.08 12.64 109.28 72s10.72 162.72-9.28 215.36-52.64 66.72-112 65.28-87.36-23.36-104-69.92-11.36-176 8.64-217.92 60.16-62.24 107.36-64.8z" fill="#A42116" p-id="6120"></path>
    <path d="M487.52 512c35.04-4.96 88-6.72 110.72 59.36s-2.72 196-17.28 199.36-35.36-33.28-88-30.72-52.8 29.92-68.16 28-21.28-97.92-13.92-152.64 33.92-97.44 76.64-103.36z" fill="#1D1D1B" p-id="6121"></path>
    <path d="M512 527.2c43.36 0 58.72 24.64 66.72 56.64a208 208 0 0 1 6.72 56s-13.28-24.64-17.28-23.36-8 4.64-5.28 8 22.72 24.64 22.72 32a108.16 108.16 0 0 1-1.92 16 280.96 280.96 0 0 0-32-38.72 12 12 0 0 0-6.72 12.64c1.28 5.28 38.08 46.08 38.08 51.36s-1.92 18.72-1.92 18.72-38.72-51.36-43.36-49.28-9.28 8.64-6.72 12.64a574.88 574.88 0 0 1 42.08 60 10.4 10.4 0 0 1-3.36 6.72l-8-4s-36-56-40.64-56-11.36 3.36-9.92 8a394.72 394.72 0 0 0 21.28 34.08l-20.48-4.8c-3.36 0-7.36-16-10.72-17.28s-13.92 2.08-12 5.28a33.6 33.6 0 0 1 2.72 10.72 60.32 60.32 0 0 0-33.92 4.64c-16 8-24.64 16-27.36 12a640 640 0 0 1 0-135.36c6.72-40.64 33.28-77.28 81.28-76.64z" fill="#E7413E" p-id="6122"></path>
    <path d="M502.88 543.2a10.72 10.72 0 0 1 9.92 10.72c0 4-29.92 0-35.36 23.36s-1.92 56-5.92 56.64-16 3.36-18.72 0a194.24 194.24 0 0 1 5.28-68 46.56 46.56 0 0 1 44.8-22.72z" fill="#1D1D1B" p-id="6123"></path>
    <path d="M636.8 135.84c3.2-7.04 87.36-16 176 56a318.08 318.08 0 0 1 123.36 250.72c0 85.28-4.64 198.08-52.64 283.36s-82.72 128-101.92 144S752 889.92 752 886.56s-16-65.92-21.28-68-13.28 0-12 2.08 21.44 69.28 17.28 70.56-13.28 7.36-16 3.36-20-71.36-23.36-72-16 0-13.28 5.28 24 65.28 20 66.08a68.64 68.64 0 0 1-17.92-4.64s-17.28-56-21.28-56-12.64 0-11.36 5.28a250.56 250.56 0 0 1 10.08 42.72 407.52 407.52 0 0 1-33.92-23.36c-9.92-7.36-22.72-16-20-20a209.76 209.76 0 0 0 48-125.92c6.08-81.92 6.08-100.64 6.08-100.64s51.36-21.92 58.72-101.92 13.28-157.92-12-227.36-75.68-140.16-72.96-146.24z" fill="#F2910D" p-id="6124"></path>
    <path d="M690.08 160c10.88-1.76 64 18.72 66.08 26.08s2.72 11.36-3.36 10.72-32-14.72-44.64-17.92S686.08 160 690.08 160zM778.88 281.92c18.4-12.32 64-1.92 65.28 48S792.16 384 769.44 355.2a51.84 51.84 0 0 1 9.44-73.28z" fill="#1D1D1B" p-id="6125"></path>
    <path d="M786.08 296a32 32 0 0 1 44 32 27.36 27.36 0 0 1-50.24 17.44 34.88 34.88 0 0 1 6.24-49.44z" fill="#FFE19B" p-id="6126"></path>
    <path d="M774.88 464c22.88-20.96 94.08-8 90.08 48s-59.36 59.36-90.72 28.64a48.8 48.8 0 0 1 0.64-76.64z" fill="#1D1D1B" p-id="6127"></path>
    <path d="M786.4 478.24c16-14.24 64-5.44 61.12 32s-40.32 40.32-61.44 19.52a33.12 33.12 0 0 1 0.32-51.52z" fill="#F2910D" p-id="6128"></path>
    <path d="M730.88 655.2c32-12 84 8 76.64 70.08a59.84 59.84 0 0 1-104.64 33.28c-24.8-32.64-22.08-84.64 28-103.36z" fill="#1D1D1B" p-id="6129"></path>
    <path d="M736 672c23.2-8.64 60.8 5.76 55.36 50.56a43.36 43.36 0 0 1-75.68 24.16A46.72 46.72 0 0 1 736 672z" fill="#E7413E" p-id="6130"></path>
    <path d="M816 604.48c0.96-4.8 11.36-5.28 13.28-1.28S850.88 656 848 661.12s-13.92 7.36-16 4.64a395.2 395.2 0 0 1-16-61.28zM852.16 595.84c2.72-2.72 13.28-6.72 16-4.64s18.72 48 13.28 54.72-11.36 8-13.92 5.28a212.8 212.8 0 0 1-15.36-55.36zM883.52 582.56c1.76-3.52 8.64-6.72 11.36-4s8.64 22.72 6.08 24.64-11.36 8-12.64 4a142.08 142.08 0 0 1-4.8-24.64zM745.44 810.56c1.92-3.84 14.08-4.64 14.72-2.72s18.08 48 14.08 52-9.28 8-11.36 5.28a260.8 260.8 0 0 1-17.44-54.56zM777.44 802.56c0-1.92 10.08-4.64 12-1.92a118.72 118.72 0 0 1 6.72 32c-1.28 2.08-8.64 9.28-10.72 6.08a144 144 0 0 1-8-36.16z" fill="#1D1D1B" p-id="6131"></path>
</svg>