<?xml version="1.0" standalone="no"?><!DOCTYPE svg PUBLIC "-//W3C//DTD SVG 1.1//EN" "http://www.w3.org/Graphics/SVG/1.1/DTD/svg11.dtd">
<svg t="1545013573758" class="icon" style="" viewBox="0 0 1024 1024" version="1.1" 
    xmlns="http://www.w3.org/2000/svg" p-id="5621" 
    xmlns:xlink="http://www.w3.org/1999/xlink" width="100" height="100">
    <defs>
        <style type="text/css"></style>
    </defs>
    <path d="M499.52 994.4c-44.32 1.28-57.76 0-66.88-14.24-2.72-4.16-5.92-8.96-11.68-48a32 32 0 0 1-27.2-17.92s-0.8-2.08-3.68-10.24a29.44 29.44 0 0 1-2.4 8.8c-6.56 16-23.52 22.4-60.16 23.36a280.64 280.64 0 0 1-112-19.68C145.92 886.4 106.88 848 97.76 733.44S96 496 107.04 448c4.96-21.28 16-70.88 54.72-72a39.36 39.36 0 0 1 7.2 0 42.4 42.4 0 0 1 33.12 26.72c26.88 0 41.6 8.64 44 27.04a60.32 60.32 0 0 1 0 6.56 40.96 40.96 0 0 1 16 9.6c5.12-17.76 16-52.8 40.8-126.08-9.12-73.92-10.08-92.64 9.92-101.6-1.6-29.12 2.4-43.84 19.04-50.56a112 112 0 0 1 31.04-4.8H368c25.28-51.84 54.08-101.28 84.48-117.6a131.2 131.2 0 0 1 57.92-16 95.04 95.04 0 0 1 89.28 49.12c11.36 21.44 26.24 55.2 37.76 82.24 55.68 0 59.36 20.32 60.8 28.32a132.48 132.48 0 0 1 0 25.28 34.88 34.88 0 0 1 26.56 27.04c0 4 1.28 8.64-9.6 113.6a398.72 398.72 0 0 1 36.8 84.48 38.88 38.88 0 0 1 20.64-5.28h24.16a34.88 34.88 0 0 1 26.4-20.8h3.36c5.28 0 52.96 0.8 84.8 82.4 25.76 66.24 25.28 214.56-1.12 288-29.12 81.76-71.68 125.92-137.6 144a366.56 366.56 0 0 1-81.12 12.64 146.24 146.24 0 0 1-42.24-3.68c-9.12-2.72-30.88-9.28-36.96-28.16-6.24 16-10.24 18.4-14.4 21.28a33.44 33.44 0 0 1-12.32 5.28c-2.4 36.96-6.72 43.52-16 50.08-5.44 3.84-10.56 6.88-70.08 9.28z m218.56-412.16c-6.4 21.12-12.48 41.28-16.96 56.96l-2.24 7.68 13.44-13.28a146.24 146.24 0 0 0 15.2-17.12c-1.76-20-3.2-36.96-4.32-51.36z m-443.68 32.96A262.56 262.56 0 0 0 304 644.48l2.4 1.12h2.56c-12.64-36.64-25.76-76.32-35.52-112 0.8 30.72 0.96 63.2 0.96 81.6z" fill="#FFFFFF" p-id="5622"></path>
    <path d="M285.76 464c0-3.36 45.12-141.44 45.12-141.44s-9.6-78.4-5.76-80a82.72 82.72 0 0 1 17.28-1.12s-5.44-46.56 0-48a71.68 71.68 0 0 1 32-1.6c0 2.72-1.28 22.08 0 20.64s51.04-121.6 90.56-142.72S555.2 52.32 576 91.2s54.24 122.4 54.24 122.4 0-24.64 2.56-25.44 38.08 0.96 38.88 5.6 0 41.44 0 41.44 26.88 5.28 27.68 10.56-11.36 114.88-11.36 114.88 36 65.6 37.92 84.96-35.36 130.4-51.04 186.24-36.48 119.2-36.48 119.2l40.32-13.92a228 228 0 0 1 13.92-48 397.92 397.92 0 0 0 38.88-36.48c22.08-21.92 23.84-30.72 23.84-30.72s-10.88-120.32-6.24-123.84a56.64 56.64 0 0 1 18.88-5.12s-4.16-27.84-0.96-30.72a153.12 153.12 0 0 1 48 2.56c0 1.92 5.92-23.52 12.64-24.32S864 448 885.92 505.6s23.84 198.4-1.28 269.44-59.52 110.4-119.04 126.24-98.4 12.16-108.48 9.12-19.52-6.08-19.04-13.44 3.2-26.72 3.2-26.72h-44.64a197.28 197.28 0 0 1-14.24 37.12 69.92 69.92 0 0 1-22.56 1.92 268.48 268.48 0 0 1-5.76 53.6c-3.84 2.72-95.2 7.52-98.72 2.24a489.76 489.76 0 0 1-10.4-60.32s-24.64 1.44-26.08-1.92-16-46.24-16-46.24l-48-2.56a187.2 187.2 0 0 1 6.72 48c-3.04 7.36-78.88 14.4-136.96-10.72s-92.16-52-100.8-160-2.72-230.08 8.48-277.76 23.84-52 31.2-50.88a14.72 14.72 0 0 1 12.32 11.68c0.8 4.64 1.92 17.28 1.92 17.28s39.2-5.12 40 1.44a210.56 210.56 0 0 1-1.12 27.36s27.2-2.88 28.32 9.76 1.28 155.36 1.28 155.36a320 320 0 0 0 44.64 42.72c12.16 6.24 10.72 1.76 12.16 6.24s16 71.52 20.16 74.08a553.92 553.92 0 0 0 54.88 7.68S297.6 546.88 285.76 464z" fill="#1D1D1B" p-id="5623"></path>
    <path d="M512 79.04c37.28 0 54.56 41.12 80 99.68s104.64 268.32 105.12 286.4-128 416-131.84 416-8 0.96-8-2.4 42.08-201.28 40.96-217.28-60.32-215.68-68-224-51.68-9.76-58.08-3.68-45.44 246.08-43.84 256 46.08 181.44 40.8 182.88a30.08 30.08 0 0 1-18.56 1.92c-5.44-2.56-123.04-375.2-126.56-404.48S368 295.36 396.32 231.84 461.28 78.56 512 79.04z" fill="#E6E4DA" p-id="5624"></path>
    <path d="M441.6 206.4c4.8-7.52 35.36-19.68 72.8-19.52a127.04 127.04 0 0 1 66.56 16c1.44 2.56 45.12 126.72 39.2 129.6s-59.84-18.88-117.12-16-102.24 17.6-105.6 15.04S432 221.44 441.6 206.4z" fill="#1D1D1B" p-id="5625"></path>
    <path d="M513.6 202.4a116.16 116.16 0 0 1 57.12 13.6c4.16 5.28 32 91.84 26.72 92.64a339.52 339.52 0 0 0-100.48-13.76c-51.2 3.52-76.8 20.32-76.96 16s29.28-96 34.4-98.4a160 160 0 0 1 59.2-10.08z" fill="#CBE7F5" p-id="5626"></path>
    <path d="M457.6 160c1.28-4 24.48-52.8 30.4-53.6s12.48-4.96 8.8 1.76S474.24 157.44 470.4 160s-12.8 0-12.8 0zM379.04 364.96s16 0 14.72 2.88-25.76 73.6-29.12 76.96-9.92 4.32-12 1.76 26.4-81.6 26.4-81.6zM359.52 496c0-4.64 10.56-3.68 13.44 0.96s19.36 67.52 16 68.96-9.12 6.88-11.36 0-18.08-66.24-18.08-69.92z" fill="#1D1D1B" p-id="5627"></path>
    <path d="M494.4 459.04c2.08-2.72 14.72 0 16 2.24s37.6 123.68 35.04 123.68-22.4-14.72-22.4-12.64-4.32 13.44-1.6 16 28.64 19.2 30.72 25.76 12.64 42.24 12.64 42.24a316.16 316.16 0 0 0-34.88-32c-1.92 1.44-5.76 6.88-3.04 9.44S562.56 666.4 560 672a73.12 73.12 0 0 0-2.4 10.08 276.96 276.96 0 0 0-36-23.68c-1.92 1.44-5.76 7.52-2.4 10.72s35.36 24.32 35.52 28.32-2.56 22.56-2.56 22.56a146.08 146.08 0 0 0-28.96-9.12c0 2.08-4.8 16 0 18.72s24.48 13.28 24.48 13.28-21.44 133.28-25.44 134.08-21.92 3.36-24 0-42.88-186.08-42.24-192S490.56 464 494.4 459.04z" fill="#E7413E" p-id="5628"></path>
    <path d="M628.48 412.32a155.2 155.2 0 0 1 37.6 32 22.88 22.88 0 0 1-4.48 8.8s-40.8-28.16-41.6-30.72 7.84-7.36 8.48-10.08zM601.44 444.48c0-4.64 56.8 47.04 56.8 49.76s0 9.28-3.04 8.16A587.2 587.2 0 0 1 592 456.16c-1.12-4.64 8.8-8.16 9.44-11.68zM589.12 478.24a371.52 371.52 0 0 1 63.04 56.8c0.8 4.64 0.8 4.64-1.76 6.08a347.84 347.84 0 0 1-66.24-52.8c-0.96-5.92 3.04-7.36 4.96-10.08zM589.6 522.24a412.32 412.32 0 0 1 55.52 49.12c0 2.72 1.44 5.92-1.12 6.72a512 512 0 0 1-61.44-46.24c-0.64-2.72 5.76-9.6 7.04-9.6zM594.4 568.16a405.12 405.12 0 0 1 40.32 33.44c0 1.92 0 11.36-2.4 10.72a320 320 0 0 1-43.68-34.72c0-2.56 5.76-9.44 5.76-9.44z" fill="#1D1D1B" p-id="5629"></path>
    <path d="M769.6 516.32c2.88-1.6 30.56-4.16 29.92-1.6a768 768 0 0 1-29.6 80.96 620.96 620.96 0 0 1-0.32-79.36zM785.28 485.76s-5.44-5.92 1.12-7.36a100.16 100.16 0 0 1 22.08 0s0 10.72-3.04 11.36a98.88 98.88 0 0 1-20.16-4z" fill="#F2910D" p-id="5630"></path>
    <path d="M720 705.76a497.92 497.92 0 0 0 82.08-110.4c29.6-60.16 38.4-99.84 41.76-100.64s21.12 39.36 22.08 94.72 3.84 129.28-11.52 177.12a181.44 181.44 0 0 1-53.76 78.24 695.68 695.68 0 0 0-46.08-70.72c-4 0-12 1.76-9.76 5.6s45.44 73.44 42.88 76.16a109.76 109.76 0 0 1-21.12 8.64s-32-61.76-35.84-61.6-13.92 3.68-12.48 5.76S755.2 865.6 752 868.32a21.6 21.6 0 0 1-9.28 3.68l-28.64-41.92s-10.56 3.68-8.48 6.88 24.48 36 19.84 38.08-48 8.8-48 4S720 708.48 720 705.76z" fill="#A42116" p-id="5631"></path>
    <path d="M775.04 748.16a332.8 332.8 0 0 1 42.4 58.72c0 2.72-7.68 8.96-10.4 7.68a650.08 650.08 0 0 1-40.32-58.24c-1.6-4.32 7.68-6.08 8.32-8.16zM791.68 725.76c0-3.36 7.2-6.88 10.56-6.24a295.84 295.84 0 0 1 36.16 49.6c0 3.36 2.24 10.56-3.84 8.16a346.88 346.88 0 0 1-42.88-51.52zM811.52 697.76s6.4-11.52 8.32-9.6 32.96 33.76 32 38.4 0 11.36-3.68 10.08-34.56-36.96-36.64-38.88zM829.12 660.64c0-2.08 0.96-12 4.96-12.16s19.84 16 21.28 20 1.12 13.92-0.96 13.44-25.28-21.28-25.28-21.28z" fill="#1D1D1B" p-id="5632"></path>
    <path d="M464 908.8a710.08 710.08 0 0 1 76-1.6c0 2.72 0 42.08-5.44 43.52a344.16 344.16 0 0 1-64 1.28c-1.12-2.72-10.24-43.04-6.56-43.2zM184.48 443.52c2.24-2.4 18.56-1.92 19.36 0s2.56 17.92 0 19.36-21.28 4-21.28 1.28a160 160 0 0 1 1.92-20.64zM183.68 481.44c0-4.64 37.92-1.12 38.08 1.6s7.04 105.12 3.68 103.2a329.12 329.12 0 0 1-41.76-104.8z" fill="#F2910D" p-id="5633"></path>
    <path d="M157.76 509.6c0-6.24 13.92 87.68 51.04 125.92a355.68 355.68 0 0 0 67.68 56s41.12 130.24 38.4 128-28.48-38.56-31.2-39.04-9.12 6.24-8.48 8.32 43.68 55.36 45.76 60 6.56 18.56 4.64 19.84-6.56 2.88-8 0a720 720 0 0 0-58.08-72.32c-5.44-1.12-9.28 0-10.56 3.04s55.52 71.68 51.52 71.84a64 64 0 0 1-20-1.44c-2.72-1.92-40.96-56.16-43.68-57.44s-13.12 5.76-11.04 8.96 40 46.24 36 46.24a112 112 0 0 1-91.36-66.72C144 740.8 155.2 536.96 157.76 509.6z" fill="#A42116" p-id="5634"></path>
</svg>