<?xml version="1.0" standalone="no"?><!DOCTYPE svg PUBLIC "-//W3C//DTD SVG 1.1//EN" "http://www.w3.org/Graphics/SVG/1.1/DTD/svg11.dtd">
<svg t="1545013588704" class="icon" style="" viewBox="0 0 1024 1024" version="1.1" 
    xmlns="http://www.w3.org/2000/svg" p-id="5805" 
    xmlns:xlink="http://www.w3.org/1999/xlink" width="100" height="100">
    <defs>
        <style type="text/css"></style>
    </defs>
    <path d="M496 997.6c-58.24 0-64.96-3.04-70.08-5.28a55.84 55.84 0 0 1-23.04-19.84c-32-5.28-107.52-22.24-158.72-70.56-66.08-62.24-100.96-130.24-106.4-208-2.88-40-3.04-142.88-1.76-227.04 2.56-185.28 4.8-188.8 24.8-196.16 0-22.56 3.36-28.8 8.64-34.72a28.96 28.96 0 0 1 20.8-9.28h5.28c8.16 0 21.6-1.6 32-1.6a66.72 66.72 0 0 1 23.84 3.52c52.16-141.76 55.84-144 64-149.44l4.64-1.28c0-22.24 3.68-45.12 26.4-49.76A343.2 343.2 0 0 1 384 26.4c32 0 64 0 69.12 27.68a168.48 168.48 0 0 1 1.44 20.64 30.24 30.24 0 0 1 9.44 16 170.4 170.4 0 0 1 0 44.32c0 10.72-1.28 25.92-1.76 39.52 16 0 46.4-0.8 72-0.8h25.28c-0.96-64-1.12-86.56 8.8-96-2.08-21.76 2.72-28.48 5.76-32a30.88 30.88 0 0 1 20.8-12C598.56 32 612 32 625.12 32c23.04 0 46.88 0 54.72 21.28a70.4 70.4 0 0 1 3.52 19.2 30.24 30.24 0 0 1 6.88 5.12c3.84 3.84 3.84 3.84 37.28 64 12 21.92 28.96 52.96 41.44 75.2 10.08-1.12 24-1.92 33.76-1.92 12.96 0 43.04 0 48 26.4a209.92 209.92 0 0 1 1.44 24.32 30.56 30.56 0 0 1 26.08 26.24c0 2.72 16 360.16 7.84 407.36-11.84 73.6-43.84 171.2-128 218.08a451.84 451.84 0 0 1-126.24 51.36A68.48 68.48 0 0 1 596.8 992a743.68 743.68 0 0 1-100.8 5.6z" fill="#FFFFFF" p-id="5806"></path>
    <path d="M256 297.6s70.08-192 75.36-195.36a50.56 50.56 0 0 1 16-4.64s-3.36-41.28 3.36-42.72 74.08-3.36 75.36 4 1.28 37.92 1.28 37.92 8.64-5.28 10.08 0-6.72 112-1.92 114.72a35.68 35.68 0 0 0 12 3.36s2.08-13.28 5.28-13.28 118.72-2.72 120.64 0 0 7.36 2.72 8 8.64 3.36 10.08 1.28-2.72-112 1.28-112a59.84 59.84 0 0 1 11.36 0s-8.64-37.92-1.92-38.72 55.36-2.72 57.28 2.72A252.64 252.64 0 0 1 657.6 96s10.72-1.92 13.28 0 91.36 168 92 164-2.72-13.92 2.08-16 57.28-5.92 58.72 1.28 1.28 48 1.28 48 25.28-5.28 26.08 0 14.72 358.72 8 400-29.28 151.36-114.72 198.72-128 50.08-128 50.08a46.08 46.08 0 0 1-25.92 22.08 832 832 0 0 1-152 1.28 40.64 40.64 0 0 1-16-20s-98.72-9.92-157.28-65.28-92.64-116-97.92-189.92-1.28-393.28 6.08-396a44.64 44.64 0 0 1 18.72 0s-4-41.28 0-41.28 52-4.64 52.64 0-2.72 41.28 0 42.08a96 96 0 0 0 11.36 2.56z" fill="#1D1D1B" p-id="5807"></path>
    <path d="M364.32 94.24c-1.92 0-4.64-24.64 0-25.28s48-3.36 46.72 1.28 4.64 22.72 0 24-43.04-0.64-46.72 0z" fill="#85BFE9" p-id="5808"></path>
    <path d="M353.6 120.8a381.6 381.6 0 0 1 54.72-1.92c-1.28 2.72-2.72 114.72 2.08 116.64s30.72 8 30.72 8l-20.8 113.28s-16-23.36-18.72-22.72-8.64 4.64-6.72 6.08S416 368.8 416 368.8v18.08l-17.28 5.28a407.04 407.04 0 0 0-33.92-45.92c-3.36 0-12.64 4-9.92 7.36S384 396.16 384 396.16l-16 9.28a311.04 311.04 0 0 0-37.28-42.72c-4 0-9.28 4-7.36 7.36s35.36 38.08 32 40-9.28 8.64-9.28 8.64a381.12 381.12 0 0 0-39.36-41.28c-2.72 1.28-5.92 13.28-5.92 13.28l36 36-8.64 7.36a83.52 83.52 0 0 1-56.64-57.28c-12-45.92-9.92-41.92-9.92-41.92s88-212.64 92-214.08z" fill="#E6E4DA" p-id="5809"></path>
    <path d="M206.4 294.88s-6.72-25.28-1.92-24.64 23.36-4.64 24 0 2.08 24.64-1.28 25.28a181.6 181.6 0 0 1-20.8-0.64z" fill="#92A0D1" p-id="5810"></path>
    <path d="M612.96 93.6s-1.92-16 1.28-16a81.76 81.76 0 0 1 26.08 0c0 2.08 2.72 19.36 0 19.36s-27.36-3.36-27.36-3.36z" fill="#85BFE9" p-id="5811"></path>
    <path d="M616.32 122.88h37.28l90.72 173.28a372.64 372.64 0 0 0-35.36-25.92c-1.92 0-8 6.72-4.64 8.64a216.8 216.8 0 0 1 32 28c0 2.72 0 22.08-4 24.64s-40-36-41.92-35.36-5.28 8.64-5.28 8.64a400 400 0 0 1 42.72 40.64 128 128 0 0 1-7.84 20.8 515.52 515.52 0 0 0-49.28-42.72c-2.72 1.28-7.36 7.36-5.92 10.08s48 41.28 46.08 46.08a51.2 51.2 0 0 1-10.72 12 563.68 563.68 0 0 0-48-49.28c-3.36 0-12 9.28-7.36 11.36a300.48 300.48 0 0 1 48 48l-9.92 7.36s-44.64-48-48-48-8 10.72-5.28 12S656 400.8 656 400.8a144 144 0 0 0-27.36-9.92h-12l-31.04-153.28s32-8.64 32-16-1.28-98.72-1.28-98.72z" fill="#E6E4DA" p-id="5812"></path>
    <path d="M780.96 259.52c0-2.08 29.28-2.72 30.08 2.08s1.28 28.64-1.28 29.28-29.28 0-29.28 0 1.12-28 0.48-31.36z" fill="#92A0D1" p-id="5813"></path>
    <path d="M196.96 320a225.44 225.44 0 0 1 43.04-1.12s2.08 67.36 14.72 88a394.24 394.24 0 0 0 48 54.08 198.4 198.4 0 0 0-32 74.08 249.76 249.76 0 0 0-1.28 60s-24 10.72-48 23.36a360 360 0 0 0-35.36 20s5.92-313.6 10.88-318.4zM762.4 322.24a434.24 434.24 0 0 1 60 3.36c1.28 3.36 9.28 265.92 10.72 298.72a194.4 194.4 0 0 1-1.92 46.72 214.4 214.4 0 0 0-41.28-25.28 174.88 174.88 0 0 1-24-10.72s7.36-76-7.36-124.64-20.64-56-35.36-69.92a136.96 136.96 0 0 0-19.36-16 170.24 170.24 0 0 0 43.36-51.36 242.72 242.72 0 0 0 15.2-50.88z" fill="#DDC07C" p-id="5814"></path>
    <path d="M471.04 226.24c3.84-5.6 78.72-3.36 82.08 0s17.28 85.92 17.28 85.92-16-16-17.92-13.92-4.64 9.28-2.72 10.72a144.96 144.96 0 0 1 24.64 20.64l3.36 17.28a148.64 148.64 0 0 0-21.92-17.28c-1.92 0-4.64 12-1.92 14.72a318.88 318.88 0 0 1 26.08 26.08c1.28 3.36 9.28 34.08 9.28 34.08s-32-39.36-36-37.92-5.92 13.28-4 16 41.28 40 42.08 42.72 5.28 26.72 5.28 26.72-47.04-54.4-50.24-52a14.72 14.72 0 0 0-3.36 14.72c1.28 6.08 55.36 59.36 58.08 65.28s9.28 45.28 9.28 45.28-66.4-86.4-70.08-83.04a22.56 22.56 0 0 0-2.72 18.08c1.28 2.08 73.28 86.72 74.72 90.72a84.32 84.32 0 0 1 2.08 14.08L596.32 560s-69.92-84-72.64-82.72a16 16 0 0 0-3.36 13.28c1.28 2.72 57.28 65.28 53.28 65.28a76.64 76.64 0 0 1-13.92-1.28c-1.92 0-41.28-40.64-43.36-40.64s-6.72 9.28-4.64 13.28a310.08 310.08 0 0 0 24 25.28 321.76 321.76 0 0 0-61.28 0 412.16 412.16 0 0 0-57.92 7.36s49.12-325.6 54.56-333.6zM403.04 428.8c4.8-2.24-12 132.64-12 132.64a329.76 329.76 0 0 0-49.92 12c-23.36 8-48 16-48 16s2.72-68.64 28.64-104 69.92-51.2 81.28-56.64z" fill="#E6E4DA" p-id="5815"></path>
    <path d="M355.04 482.24c3.84-1.92 10.72 5.28 8.64 10.72s-14.72 10.08-19.36 27.36-1.28 28.64-4.64 28.64-9.92 1.28-11.36 0a67.52 67.52 0 0 1 26.72-66.08z" fill="#1D1D1B" p-id="5816"></path>
    <path d="M624.96 420.8c3.36 0 80 17.28 98.72 80a360 360 0 0 1 13.28 121.28 224 224 0 0 0-48-28 416 416 0 0 1-39.36-16z" fill="#E6E4DA" p-id="5817"></path>
    <path d="M192 659.52c0-2.08 171.36-88.64 331.36-78.72s302.24 122.08 302.24 122.08l-16 64S673.6 656 613.6 626.88a252.48 252.48 0 0 0-216.64 8.64c-61.92 36.48-180.64 124.64-180.64 124.64A193.6 193.6 0 0 1 192 659.52z" fill="#DDC07C" p-id="5818"></path>
    <path d="M236.32 650.24a30.72 30.72 0 0 1 42.08 39.36 31.04 31.04 0 0 1-56.64 8.64 40.16 40.16 0 0 1 14.56-48z" fill="#1D1D1B" p-id="5819"></path>
    <path d="M242.56 664.32a16 16 0 0 1 22.24 20.8 16 16 0 0 1-29.92 4.64 21.28 21.28 0 0 1 7.68-25.44z" fill="#85BFE9" p-id="5820"></path>
    <path d="M797.92 695.52a24.16 24.16 0 0 1-37.12 25.92 24.48 24.48 0 0 1 2.56-45.12 32 32 0 0 1 34.56 19.2z" fill="#1D1D1B" p-id="5821"></path>
    <path d="M786.08 698.08a12.8 12.8 0 0 1-19.68 13.76A12.96 12.96 0 0 1 768 688a16 16 0 0 1 18.08 10.08z" fill="#85BFE9" p-id="5822"></path>
    <path d="M323.04 721.6s84-92.64 198.72-88 194.08 90.72 194.08 90.72-23.36 22.72-45.28 44.64a171.84 171.84 0 0 1-43.36 32s2.08-67.36-5.92-89.28-29.92-24.64-52.64-24.64-116.64 0-128 2.08-24 16-25.28 48a402.08 402.08 0 0 1-4 64 163.2 163.2 0 0 1-88.32-79.52z" fill="#E6E4DA" p-id="5823"></path>
    <path d="M360.32 715.52c2.08 0 8.64 19.36 16 29.28s18.72 13.28 20.64 16a12.64 12.64 0 0 1-1.92 12 74.56 74.56 0 0 1-35.36-20.64c-9.28-10.72-19.36-24.64-16-29.28a24.48 24.48 0 0 1 16.64-7.36z" fill="#1D1D1B" p-id="5824"></path>
    <path d="M295.68 740.8a595.2 595.2 0 0 0 52.64 56.64 170.72 170.72 0 0 0 62.08 32s0 82.08-4.64 82.72a245.44 245.44 0 0 1-109.28-48 260.48 260.48 0 0 1-64-76.64 678.08 678.08 0 0 1 63.2-46.72z" fill="#DDC07C" p-id="5825"></path>
    <path d="M296.96 784.8c3.04 0 6.72 5.28 6.08 9.28a99.2 99.2 0 0 1-24.64 25.28c-3.36 0-10.72-2.72-8.64-7.36a117.92 117.92 0 0 1 27.2-27.2zM320 814.88c2.4-1.28 12 5.28 10.72 8.64a146.08 146.08 0 0 1-25.28 30.08c-1.92-1.28-9.92-3.36-8-6.72a301.6 301.6 0 0 1 22.56-32zM352 840.16c2.4-3.52 14.08 2.08 11.36 7.36a164.64 164.64 0 0 1-19.36 30.72c-1.92 0-9.92 0-8.64-4s15.68-32 16.64-34.08z" fill="#1D1D1B" p-id="5826"></path>
    <path d="M445.6 714.24c6.88-6.88 141.28-1.28 146.08 4s3.36 214.08-1.28 215.36-139.36 5.28-145.28-1.92-2.08-214.88 0.48-217.44z" fill="#E6E4DA" p-id="5827"></path>
    <path d="M489.6 743.52a46.56 46.56 0 0 1 71.36 21.28c14.08 39.36-20 64-53.28 58.72a45.28 45.28 0 0 1-18.08-80z" fill="#1D1D1B" p-id="5828"></path>
    <path d="M501.44 758.56a27.2 27.2 0 0 1 41.6 12.48A25.76 25.76 0 0 1 512 805.12a26.4 26.4 0 0 1-10.56-46.56z" fill="#92A0D1" p-id="5829"></path>
    <path d="M497.76 862.56a33.12 33.12 0 0 1 50.88 16 32 32 0 0 1-38.08 41.92 32 32 0 0 1-12.8-57.92z" fill="#1D1D1B" p-id="5830"></path>
    <path d="M506.24 873.28a19.36 19.36 0 0 1 29.6 8.8 18.4 18.4 0 0 1-22.24 24.48 18.88 18.88 0 0 1-7.36-33.28z" fill="#E7413E" p-id="5831"></path>
    <path d="M624.96 825.6a234.56 234.56 0 0 0 64-38.72c34.08-28 46.72-42.72 48-43.36s56.64 44.64 57.28 51.36-32 57.28-75.36 82.72a362.4 362.4 0 0 1-90.72 40.64 539.68 539.68 0 0 1-3.2-92.64z" fill="#DDC07C" p-id="5832"></path>
    <path d="M642.4 841.6a8 8 0 0 1 10.08-4.64c4 2.08 26.08 32 22.08 38.08a20 20 0 0 1-16 6.72 211.04 211.04 0 0 1-16.16-40.16zM680.96 824.16c0-2.72 5.28-5.28 8-5.28s26.08 25.28 22.08 29.28a74.72 74.72 0 0 1-12 8.64s-17.44-29.28-18.08-32.64zM716.96 792.8c0-3.36 7.36-8 9.28-6.72s28.64 30.72 26.08 36a13.28 13.28 0 0 1-9.28 8.64c-4.64 1.28-26.08-33.92-26.08-37.92zM362.56 149.6c2.08-1.44 10.08 1.44 10.08 4a373.6 373.6 0 0 1-21.44 50.56c-2.56 1.44-16 0-16-1.92a435.84 435.84 0 0 1 27.36-52.64z" fill="#1D1D1B" p-id="5833"></path>
</svg>