<?xml version="1.0" standalone="no"?><!DOCTYPE svg PUBLIC "-//W3C//DTD SVG 1.1//EN" "http://www.w3.org/Graphics/SVG/1.1/DTD/svg11.dtd">
<svg t="1543454093776" class="icon" style="" viewBox="0 0 1024 1024" version="1.1" 
    xmlns="http://www.w3.org/2000/svg" p-id="8830" 
    xmlns:xlink="http://www.w3.org/1999/xlink" width="200" height="200">
    <defs>
        <style type="text/css"></style>
    </defs>
    <path d="M708.2 129.9c-77.3 0-149.1 35.4-196.4 93.9-47.3-58.5-119.1-93.9-196.4-93.9-139.3 0-252.6 113.3-252.6 252.6 0 83.1 40.6 141.4 73.2 188.2 94.8 136.1 333.3 305.4 343.4 312.5 9.7 6.9 21.1 10.3 32.4 10.3 11.4 0 22.7-3.4 32.4-10.3 10.1-7.1 248.6-176.5 343.4-312.5 32.6-46.8 73.2-105.1 73.2-188.2 0.1-139.3-113.3-252.6-252.6-252.6z m133.3 408.7c-90.3 129.5-329.7 298.7-329.7 298.7S272.4 668.1 182.1 538.6c-33.3-47.8-63.1-93.3-63.1-156.1 0-108.5 87.9-196.4 196.4-196.4 80.2 0 149 48.1 179.5 117v-0.3h0.1c2.3 7.2 8.9 12.4 16.8 12.4s14.6-5.2 16.8-12.4h0.2c30.6-68.7 99.3-116.6 179.4-116.6 108.5 0 196.4 88 196.4 196.4 0.1 62.7-29.8 108.1-63.1 156z" fill="#FF0000" p-id="8831"></path>
    <path d="M577.7 345.4c2.7 1.4 5.7 2.1 8.6 2.1 6.8 0 13.4-3.7 16.7-10.2 0.7-1.3 1.3-2.7 1.9-4.1 18.8-42.1 60.6-69.4 106.6-69.4 31.6 0 61.3 12.5 83.4 35.2 7.2 7.4 19.1 7.5 26.5 0.3 7.4-7.2 7.5-19.1 0.3-26.5-29.3-30-68.4-46.5-110.2-46.5-60.7 0-116 36-140.8 91.6-0.3 0.8-0.7 1.5-1.1 2.3-4.8 9.1-1.1 20.4 8.1 25.2z" fill="#FF0000" p-id="8832"></path>
    <path d="M846.9 361.8c-10.4 0-18.7 8.4-18.7 18.7 0 37.8-18.6 67.2-49.3 111.2-59.6 85.6-199 196.4-267 248-68.1-51.6-207.4-162.4-267-248-30.7-44-49.3-73.4-49.3-111.2 0-64.3 52.3-116.7 116.7-116.7 46.1 0 87.9 27.3 106.6 69.5 0.7 1.5 1.4 2.9 2.1 4.4 4.8 9.2 16.1 12.7 25.3 8 9.2-4.8 12.7-16.1 8-25.3-0.4-0.7-0.7-1.4-1-2.2-24.7-55.8-80.1-91.8-140.9-91.8-85 0-154.2 69.2-154.2 154.2 0 48.5 23.2 85.6 56 132.6 63.8 91.6 206.9 205.4 286.5 265 3.3 2.5 7.3 3.7 11.2 3.7 4 0 7.9-1.2 11.2-3.7 79.6-59.6 222.7-173.3 286.5-265 32.8-47.1 56-84.1 56-132.6 0-10.4-8.4-18.8-18.7-18.8z" fill="#FF0000" p-id="8833"></path>
</svg>