<?xml version="1.0" standalone="no"?><!DOCTYPE svg PUBLIC "-//W3C//DTD SVG 1.1//EN" "http://www.w3.org/Graphics/SVG/1.1/DTD/svg11.dtd">
<svg t="1545014528022" class="icon" style="" viewBox="0 0 1024 1024" version="1.1" 
    xmlns="http://www.w3.org/2000/svg" p-id="36998" 
    xmlns:xlink="http://www.w3.org/1999/xlink" width="30" height="30">
    <defs>
        <style type="text/css"></style>
    </defs>
    <path d="M572.601011 721.468197c-11.990718 0-23.643154 1.801122-34.815596 5.357652-18.719783-20.232908-45.284046-31.963058-73.553432-31.963057-48.730863 0-89.397819 34.678455-97.918863 80.300782C319.794802 780.03666 283.415796 818.948209 283.415796 866.074519c0 42.998358 30.783643 79.871073 72.227733 89.173822 12.754138 40.538958 50.778839 68.753488 95.043468 68.753488 49.421141 0 90.545235-35.643015 98.261717-82.216189 7.71191 1.609124 15.606676 2.4274 23.647726 2.4274 62.367276 0 113.09583-49.965134 113.09583-111.372421s-50.728554-111.372422-113.09583-111.372422z" fill="#E06C3E" p-id="36999"></path>
    <path d="M276.577018 456.881554a18.267217 18.267217 0 0 0 24.863712 7.108489 18.276359 18.276359 0 0 0 7.099346-24.85914l-182.855021-329.139037a18.262645 18.262645 0 0 0-24.868282-7.103917 18.276359 18.276359 0 0 0-7.094775 24.854568l182.85502 329.139037zM402.756125 635.023486a18.285502 18.285502 0 1 0 35.601873-8.319903l-127.998515-548.565061a18.276359 18.276359 0 1 0-35.606444 8.319903l127.998515 548.565061zM447.967029 402.294759c0.383996 0 0.767991-0.018286 1.161129-0.036571a18.271788 18.271788 0 0 0 17.106087-19.391775l-18.285502-292.568033c-0.635421-10.093597-9.179322-17.394084-19.391774-17.106087a18.271788 18.271788 0 0 0-17.106088 19.391775l18.285502 292.568033a18.276359 18.276359 0 0 0 18.230646 17.142658zM491.564237 612.450034a18.285502 18.285502 0 0 0 20.296907-16.0181l36.571005-310.853534a18.285502 18.285502 0 0 0-16.027243-20.301479c-9.974741-1.266271-19.10835 5.983931-20.296907 16.0181l-36.571004 310.853534a18.285502 18.285502 0 0 0 16.027242 20.301479zM661.125698 438.184628l-127.998515 201.140523a18.294645 18.294645 0 0 0 15.405536 28.109388 18.308359 18.308359 0 0 0 15.451249-8.466188l127.998514-201.140522a18.299216 18.299216 0 0 0-5.609077-25.252279 18.331216 18.331216 0 0 0-25.247707 5.609078zM702.839499 408.274118a18.299216 18.299216 0 0 0 25.407705-4.836515l155.426768-228.568776a18.294645 18.294645 0 0 0-30.248792-20.571189l-155.426767 228.568775a18.294645 18.294645 0 0 0 4.841086 25.407705zM578.269517 464.954603c2.249117 0.909704 4.571376 1.339413 6.84792 1.339413 7.231916 0 14.079837-4.324521 16.959803-11.428439l173.71227-429.709298A18.285502 18.285502 0 0 0 765.695912 1.348556a18.271788 18.271788 0 0 0-23.812295 10.093597l-173.712269 429.709298a18.285502 18.285502 0 0 0 10.098169 23.803152zM854.632023 408.722113l-210.283273 246.854278a18.299216 18.299216 0 0 0 2.06169 25.782558 18.194075 18.194075 0 0 0 11.849005 4.361092c5.165654 0 10.313023-2.180546 13.928981-6.431926l210.283274-246.854277a18.299216 18.299216 0 0 0-2.066262-25.782558 18.271788 18.271788 0 0 0-25.773415 2.070833zM848.437809 616.235133l-146.284016 109.713012a18.267217 18.267217 0 0 0-3.657101 25.59056 18.216931 18.216931 0 0 0 14.646688 7.323344 18.239788 18.239788 0 0 0 10.953015-3.661672l146.284017-109.713012a18.267217 18.267217 0 0 0 3.6571-25.59056 18.271788 18.271788 0 0 0-25.599703-3.657101zM1010.98678 519.056832c-6.217071-7.963336-17.723223-9.426176-25.659131-3.195391l-82.284759 63.999257a18.290073 18.290073 0 0 0-3.218249 25.663702 18.285502 18.285502 0 0 0 25.663702 3.195392l82.28476-63.999258a18.290073 18.290073 0 0 0 3.213677-25.663702zM190.370019 469.791118a18.276359 18.276359 0 0 0-4.022811 25.535704l146.284017 201.140523a18.248931 18.248931 0 0 0 14.802114 7.538198 18.276359 18.276359 0 0 0 14.765543-29.037377l-146.284017-201.140523a18.271788 18.271788 0 0 0-25.544846-4.036525zM132.450691 441.704587a18.280931 18.280931 0 0 0 13.832982 6.303927 18.194075 18.194075 0 0 0 11.96329-4.466234 18.303788 18.303788 0 0 0 1.846836-25.805414l-118.855763-137.141266c-6.605638-7.588483-18.157504-8.461616-25.791701-1.837693s-8.457045 18.162075-1.851407 25.805415l118.855763 137.141265zM286.693472 708.878629l-246.854277-228.568775a18.271788 18.271788 0 0 0-25.841986 0.982845 18.285502 18.285502 0 0 0 1.005703 25.837415l246.854277 228.568775A18.175789 18.175789 0 0 0 274.273045 740.576547a18.285502 18.285502 0 0 0 12.420427-31.697918zM225.976463 760.073463l-118.855764-45.713755a18.331216 18.331216 0 0 0-23.634011 10.50045 18.299216 18.299216 0 0 0 10.514164 23.643154l118.855763 45.713755a18.294645 18.294645 0 0 0 23.634011-10.500449 18.299216 18.299216 0 0 0-10.514163-23.643155z" fill="#F8A131" p-id="37000"></path>
</svg>