<?xml version="1.0" standalone="no"?><!DOCTYPE svg PUBLIC "-//W3C//DTD SVG 1.1//EN" "http://www.w3.org/Graphics/SVG/1.1/DTD/svg11.dtd">
<svg t="1545035672863" class="icon" style="" viewBox="0 0 1024 1024" version="1.1" 
    xmlns="http://www.w3.org/2000/svg" p-id="24897" 
    xmlns:xlink="http://www.w3.org/1999/xlink" width="400" height="400">
    <defs>
        <style type="text/css"></style>
    </defs>
    <path d="M1020.82005 539.391324q-174.172118-42.538011-175.060274-125.557249t59.132509-171.60114q-153.604289 55.533139-207.594841-4.253801t-13.602814-215.027306q-94.56527 139.814494-183.614622 127.240071Q417.294495 139.393789 355.404027 2.617724 355.824732 177.631253 295.850812 221.524871T90.079029 201.003786Q196.237075 281.639026 178.193479 375.970571t-174.826549 121.537173q127.006346 31.412685 154.024995 102.04448t-90.825665 193.945282q131.914578-35.33927 194.599713 8.367367 54.644983 38.237464 45.57644 216.663383 50.063966-77.40983 99.006051-110.318357a38.56468 38.56468 0 0 1 5.749643-3.69286q36.975348-23.372533 73.71697-20.801555a113.169806 113.169806 0 0 1 48.240909 16.874969 65.443093 65.443093 0 0 1 5.656153 3.50588q48.942085 32.441076 95.453426 117.330117-5.375683-161.504205 56.982236-210.119074t208.015546 37.022093q-91.854056-125.697484-62.217683-205.678293t183.474386-103.119617m-104.054518-19.632928l4.674506 1.729567-4.674506-1.729567m-19.352458-8.928308l9.629484 4.674507-9.629484-4.674507a160.382324 160.382324 0 0 1-45.108989-31.973626 160.382324 160.382324 0 0 0 45.108989 31.973626M522.938346 168.28224c4.674507-0.514196 10.33066-1.355607 17.5294-2.430744-7.19874 1.075137-12.995129 1.916548-17.5294 2.430744a103.446832 103.446832 0 0 1-26.317473 0 102.839147 102.839147 0 0 1-22.951828-6.6378 102.839147 102.839147 0 0 0 22.951828 6.6378 103.446832 103.446832 0 0 0 26.317473 0m-63.760271-12.574423l6.076858 2.430743-6.076858-2.430743M552.247502 890.587009c5.936623 3.926586 12.527678 8.741327 19.679673 14.490971a137.056535 137.056535 0 0 1 25.102101 26.317472 137.056535 137.056535 0 0 0-25.102101-26.317472 265.465233 265.465233 0 0 0-19.679673-14.490971m-144.161785-2.056783l5.095212-2.944939-5.095212 2.944939M370.081978 916.203305a202.265903 202.265903 0 0 1 25.00861-19.445947 202.265903 202.265903 0 0 0-25.00861 19.445947c-6.91827 6.497564-13.228854 12.854893-18.698027 19.165478 5.609408-6.310584 11.919992-12.667913 18.698027-19.165478m-30.618019 32.721547a12.200462 12.200462 0 0 1 2.197018-2.197018 12.200462 12.200462 0 0 0-2.197018 2.197018m263.595431-8.320622c2.430743 3.973331 4.674507 8.273877 6.91827 12.808148-2.197018-4.674507-4.674507-8.834818-6.91827-12.808148M234.287559 262.800764a131.634108 131.634108 0 0 0 15.612853-0.701176 131.634108 131.634108 0 0 1-15.612853 0.701176m-16.874969-2.477488a19.399203 19.399203 0 0 0 3.272155 0.701176 19.399203 19.399203 0 0 1-3.272155-0.701176m116.068001-37.162328a52.074004 52.074004 0 0 0 4.394036-6.076859 52.074004 52.074004 0 0 1-4.394036 6.076859M281.032626 255.321554a116.301726 116.301726 0 0 0 46.745067-25.148846 116.301726 116.301726 0 0 1-46.745067 25.148846M129.57861 742.171422a189.78497 189.78497 0 0 0 29.542882-47.679967 189.78497 189.78497 0 0 1-29.542882 47.679967z" fill="#F0A635" p-id="24898"></path>
    <path d="M921.440038 524.199177a2.944939 2.944939 0 0 1-0.888156 0l-4.674507-1.729568a2.617724 2.617724 0 0 1 1.776313-4.674506l4.674507 1.729567a2.617724 2.617724 0 0 1 1.542587 3.365645 2.570979 2.570979 0 0 1-2.430744 1.308862zM906.949068 518.449534a2.524234 2.524234 0 0 1-1.168627-0.280471l-9.629484-4.674506a165.758006 165.758006 0 0 1-45.85691-32.721547 2.617724 2.617724 0 0 1 0-3.69286 2.524234 2.524234 0 0 1 3.646115 0 159.260442 159.260442 0 0 0 44.407813 31.412685l9.629484 4.674506a2.617724 2.617724 0 0 1-1.168626 4.954977z" fill="#4E2B12" p-id="24899"></path>
    <path d="M901.52664 850.059036a61.516508 61.516508 0 0 1-8.320622-2.617724 40.481228 40.481228 0 0 1-4.020076-2.103528l-3.038429-1.682822c-4.066821-2.290508-8.133642-4.674507-12.247207-6.684544-8.227132-4.347291-16.501009-8.601092-24.915121-12.480933a351.943606 351.943606 0 0 0-51.793534-20.053634 175.38749 175.38749 0 0 0-54.364512-7.899916 84.14112 84.14112 0 0 0-50.437927 17.482655 117.330117 117.330117 0 0 0-32.721547 43.426167 227.461494 227.461494 0 0 0-16.080303 52.86867 521.581453 521.581453 0 0 0-6.637799 111.019533 2.570979 2.570979 0 0 1-2.477488 2.664469 2.617724 2.617724 0 0 1-2.383999-1.308862 512.23244 512.23244 0 0 0-38.47119-60.768586 252.049399 252.049399 0 0 0-49.503025-51.185848c-18.698027-14.02352-41.369384-24.400925-64.835408-24.821631a120.088076 120.088076 0 0 0-66.377994 20.94179 72.828814 72.828814 0 0 0-7.806426 5.188703c-2.711214 1.823058-5.282193 3.739605-7.806426 5.702898-5.141957 3.879841-10.050189 8.040151-14.864932 12.340697a335.582833 335.582833 0 0 0-27.018648 27.67308 547.618455 547.618455 0 0 0-46.324361 62.170938 2.570979 2.570979 0 0 1-4.674507-1.495842 781.063318 781.063318 0 0 0-2.570978-106.905967 303.468972 303.468972 0 0 0-9.629484-52.074004 115.179844 115.179844 0 0 0-23.372533-45.810166 61.095802 61.095802 0 0 0-9.349014-8.367367 110.271612 110.271612 0 0 0-11.172071-6.591054 129.53058 129.53058 0 0 0-23.980219-9.909954 186.232345 186.232345 0 0 0-51.887024-7.245485 423.510303 423.510303 0 0 0-105.1764 14.49097 2.570979 2.570979 0 0 1-3.178664-1.869802 2.664469 2.664469 0 0 1 0.607686-2.430744 541.728577 541.728577 0 0 0 64.695172-80.495005 224.93726 224.93726 0 0 0 22.951828-45.85691 104.521969 104.521969 0 0 0 6.217093-49.783496 95.126211 95.126211 0 0 0-21.549475-45.295969 155.100131 155.100131 0 0 0-38.751661-32.721547c-29.309157-17.856615-62.357919-28.981941-95.733896-37.396053a2.524234 2.524234 0 0 1-1.869803-3.13192 2.617724 2.617724 0 0 1 2.056783-1.963293c35.24578-6.263839 70.585051-15.566107 102.184716-32.300841a160.148598 160.148598 0 0 0 42.44452-31.973625 114.151453 114.151453 0 0 0 25.803277-45.810165 135.560693 135.560693 0 0 0 3.879841-52.681691 141.637552 141.637552 0 0 0-16.547754-50.437926c-17.108694-31.45943-43.519657-56.935491-71.987402-78.625202a2.617724 2.617724 0 0 1-0.467451-3.646116 2.617724 2.617724 0 0 1 3.131919-0.841411A475.864778 475.864778 0 0 0 196.891506 233.398118a181.978544 181.978544 0 0 0 55.112434 2.103528 87.92747 87.92747 0 0 0 49.082319-21.783201 122.659055 122.659055 0 0 0 29.309157-45.950401 282.293457 282.293457 0 0 0 14.350736-53.663336A657.843322 657.843322 0 0 0 352.786303 2.617724 2.570979 2.570979 0 0 1 355.357282 0a2.664469 2.664469 0 0 1 2.383998 1.495842 519.33769 519.33769 0 0 0 26.504453 49.2693 307.115088 307.115088 0 0 0 32.721547 44.968754A176.322391 176.322391 0 0 0 458.663879 131.166657a111.440239 111.440239 0 0 0 51.419573 15.519362 112.515375 112.515375 0 0 0 52.5882-10.79811 199.74167 199.74167 0 0 0 45.810165-30.290804 351.335921 351.335921 0 0 0 38.985386-39.686561c12.153717-14.02352 23.372533-29.028686 34.170644-44.314323a2.617724 2.617724 0 0 1 3.646115-0.654431 2.711214 2.711214 0 0 1 1.028391 2.757959 487.410809 487.410809 0 0 0-16.968459 108.588789 211.194211 211.194211 0 0 0 5.188703 54.271023 114.291688 114.291688 0 0 0 23.372533 48.194163 86.899079 86.899079 0 0 0 45.342714 27.299119 161.504205 161.504205 0 0 0 54.084043 3.599371c36.461152-3.131919 72.080893-13.462579 106.625496-25.803277a2.617724 2.617724 0 0 1 3.3189 1.589332 2.757959 2.757959 0 0 1-0.28047 2.337253 368.49136 368.49136 0 0 0-45.716675 91.760566 247.748853 247.748853 0 0 0-10.844856 49.970476 221.010675 221.010675 0 0 0-1.402352 25.476062 71.940658 71.940658 0 0 0 3.646115 24.494414 93.022683 93.022683 0 0 0 28.607981 40.294248 202.639864 202.639864 0 0 0 42.865226 27.392609 522.048904 522.048904 0 0 0 97.182994 33.749938 2.617724 2.617724 0 0 1-0.280471 5.095212c-36.367662 5.469173-72.641834 13.696305-106.064556 28.841706a177.631253 177.631253 0 0 0-45.810165 29.496137 110.598828 110.598828 0 0 0-30.010333 44.501304 123.219996 123.219996 0 0 0-5.843133 53.616591 201.003786 201.003786 0 0 0 13.415834 52.962161 358.020465 358.020465 0 0 0 24.307435 49.36279q7.01176 11.826502 14.67795 23.372533l7.806427 11.452542c1.262117 1.916548 2.570979 3.50588 4.347291 6.404074a55.720119 55.720119 0 0 1 3.646115 8.040151z m-3.879841-3.459135c-1.776313-1.495842-3.59937-2.197018-4.674506-3.178664a40.340992 40.340992 0 0 1-3.646115-4.908232l-7.853172-11.499287c-5.141957-7.759681-10.096934-15.612852-14.818186-23.653003a358.534661 358.534661 0 0 1-24.681395-50.110712 206.519704 206.519704 0 0 1-13.743049-54.317767 127.427052 127.427052 0 0 1 6.123603-56.09408 115.179844 115.179844 0 0 1 31.412685-46.745067 179.688036 179.688036 0 0 1 47.165772-30.384293c34.123899-15.472617 70.772031-23.746494 107.513653-29.262412l-0.233725 5.095213a481.894892 481.894892 0 0 1-98.772326-32.768292 207.968801 207.968801 0 0 1-44.407813-28.04704 97.884169 97.884169 0 0 1-30.711509-43.192442 78.438222 78.438222 0 0 1-3.87984-26.597942 234.333019 234.333019 0 0 1 1.589332-26.223983 254.433398 254.433398 0 0 1 11.359051-51.139103A358.487916 358.487916 0 0 1 902.742012 240.783838l3.038429 3.926586c-34.825075 12.434188-70.772031 22.905083-107.981104 26.083747a167.908279 167.908279 0 0 1-56.09408-3.739605 92.555232 92.555232 0 0 1-47.960438-28.935197 119.667371 119.667371 0 0 1-24.63465-50.391182 216.429658 216.429658 0 0 1-5.282193-55.626629 490.823199 490.823199 0 0 1 17.34242-109.710671l4.674507 2.103528a431.036259 431.036259 0 0 1-72.221128 87.179549A197.264181 197.264181 0 0 1 566.177532 143.64759a120.695762 120.695762 0 0 1-56.56153 11.919992 119.48039 119.48039 0 0 1-55.299414-16.96846 177.210547 177.210547 0 0 1-43.519657-37.396053C385.88181 71.987403 367.97845 38.190719 353.020028 3.69286l4.954978-1.075136a660.741516 660.741516 0 0 1-7.993407 112.18816 289.305217 289.305217 0 0 1-14.584461 54.644982 128.829404 128.829404 0 0 1-30.618018 47.913694A92.929192 92.929192 0 0 1 252.985586 240.643603 185.90513 185.90513 0 0 1 196.143585 238.39984a479.464148 479.464148 0 0 1-107.092948-34.96531l2.617724-4.440781c28.794961 22.016926 55.766864 47.866948 73.389755 80.308024a147.761156 147.761156 0 0 1 17.108694 52.167494A139.861239 139.861239 0 0 1 178.193479 386.347975a118.872704 118.872704 0 0 1-26.971903 47.866949 164.075184 164.075184 0 0 1-43.846873 33.235742c-32.394331 17.015204-68.060817 26.410963-103.774047 32.721547v-5.095213c33.703193 8.460857 67.172661 19.679673 97.182993 37.956994a159.774638 159.774638 0 0 1 40.107267 34.030409 118.638979 118.638979 0 0 1 14.444226 22.250652 82.785513 82.785513 0 0 1 8.180386 25.382571 109.850907 109.850907 0 0 1-6.404074 52.307729 236.763762 236.763762 0 0 1-23.372533 46.745067 547.29124 547.29124 0 0 1-65.443093 81.242926l-2.570979-4.300546a396.398165 396.398165 0 0 1 106.578752-17.06195 193.150615 193.150615 0 0 1 54.084042 7.245486 130.886186 130.886186 0 0 1 25.569551 10.470895 115.226589 115.226589 0 0 1 11.779757 7.38572 68.060817 68.060817 0 0 1 10.564385 9.349013 121.911134 121.911134 0 0 1 24.774886 49.035575 307.302068 307.302068 0 0 1 9.349013 53.382866 679.766759 679.766759 0 0 1 0.560941 107.513653l-4.674507-1.542587a556.266293 556.266293 0 0 1 46.745067-62.872114 346.380944 346.380944 0 0 1 27.486099-28.04704c4.674507-4.394036 9.909954-8.647837 15.145401-12.621168 2.617724-2.010038 5.235447-3.926586 7.946662-5.796388a67.780347 67.780347 0 0 1 8.694582-4.954978 125.370269 125.370269 0 0 1 69.369679-21.455985c25.055356 0.514196 48.334399 11.546031 67.873837 25.896767a256.11622 256.11622 0 0 1 50.578162 52.214239 516.205771 516.205771 0 0 1 38.891895 61.189292l-4.908232 1.355607a527.658312 527.658312 0 0 1 6.6378-112.18816A232.463216 232.463216 0 0 1 654.993159 855.434719a121.537173 121.537173 0 0 1 34.030408-45.342715 89.189587 89.189587 0 0 1 53.523101-18.698026 180.903408 180.903408 0 0 1 56.09408 8.133641 367.229243 367.229243 0 0 1 52.68169 20.193869c8.507602 3.973331 16.828224 8.273877 25.148846 12.667913 4.113566 2.197018 8.227132 4.674507 12.293953 6.73129l3.085174 1.729567a8.086897 8.086897 0 0 1 2.010038 1.402352c1.028391 1.028391 2.056783 2.757959 3.78635 4.347291z" fill="#4E2B12" p-id="24900"></path>
    <path d="M510.550903 171.60114a105.784086 105.784086 0 0 1-14.02352-0.934902 105.55036 105.55036 0 0 1-23.372533-6.778034 2.617724 2.617724 0 1 1 1.869802-4.674507 98.819071 98.819071 0 0 0 22.390887 6.497564 102.231461 102.231461 0 0 0 25.616297 0c4.674507-0.560941 10.33066-1.355607 17.43591-2.430743a2.617724 2.617724 0 1 1 0.794666 5.141957c-7.19874 1.121882-13.041874 1.916548-17.576145 2.430743a95.266446 95.266446 0 0 1-13.135364 0.747922zM465.254933 160.756284a2.430743 2.430743 0 0 1-0.981646 0l-6.076859-2.477488a2.617724 2.617724 0 0 1 2.010038-4.674507c1.916548 0.794666 3.879841 1.636077 5.983369 2.430743a2.617724 2.617724 0 0 1-0.934902 5.048468zM540.467746 885.819012a2.524234 2.524234 0 0 1-1.308862-0.37396l-5.656153-3.22541a2.617724 2.617724 0 0 1 2.524233-4.674507l5.749643 3.272155a2.617724 2.617724 0 0 1-1.308861 4.674507zM597.029276 933.966431a2.711214 2.711214 0 0 1-2.103528-1.028392 135.934654 135.934654 0 0 0-24.587905-25.803276c-7.10525-5.656153-13.649559-10.51764-19.539438-14.397481a2.617724 2.617724 0 0 1 2.851449-4.347291c6.030114 3.973331 12.714658 8.881563 19.913399 14.677951a140.749396 140.749396 0 0 1 25.569551 26.784923 2.570979 2.570979 0 0 1-0.560941 3.59937 2.383998 2.383998 0 0 1-1.542587 0.514196zM408.085717 891.14795a2.524234 2.524234 0 0 1-2.290508-1.355607 2.617724 2.617724 0 0 1 0.981646-3.50588l5.141957-2.804704a2.664469 2.664469 0 0 1 3.552625 0.934901 2.524234 2.524234 0 0 1-0.934901 3.552625l-5.141957 2.991684a3.178665 3.178665 0 0 1-1.308862 0.186981zM351.150226 937.706036a2.430743 2.430743 0 0 1-1.729568-0.654431 2.570979 2.570979 0 0 1-0.233725-3.646115c5.656153-6.310584 12.060227-12.808148 19.025242-19.352458a209.043938 209.043938 0 0 1 25.382571-19.679673 2.617724 2.617724 0 1 1 2.851449 4.347292 197.825122 197.825122 0 0 0-24.681395 19.165477 295.218468 295.218468 0 0 0-18.698026 18.978497 2.570979 2.570979 0 0 1-1.916548 0.841411zM339.463959 951.402341a2.570979 2.570979 0 0 1-1.636077-0.560941 2.617724 2.617724 0 0 1-0.420706-3.646115 16.173793 16.173793 0 0 1 2.711214-2.664469 2.664469 2.664469 0 0 1 3.646115 0.514196 2.617724 2.617724 0 0 1-0.514195 3.646115 10.61113 10.61113 0 0 0-1.776313 1.776312 2.664469 2.664469 0 0 1-2.010038 0.934902zM609.97766 955.936612a2.570979 2.570979 0 0 1-2.337254-1.495842c-2.150273-4.674507-4.674507-8.694582-6.824779-12.621168a2.617724 2.617724 0 0 1 4.674506-2.664469c2.430743 4.066821 4.674507 8.414112 7.01176 13.041874a2.570979 2.570979 0 0 1-1.215372 3.459135 2.477489 2.477489 0 0 1-1.308861 0.28047zM236.204107 265.418488H234.287559a2.617724 2.617724 0 0 1-2.524233-2.664469 2.570979 2.570979 0 0 1 2.570978-2.524233 139.160063 139.160063 0 0 0 15.332382-0.747921 2.664469 2.664469 0 0 1 2.851449 2.337253 2.617724 2.617724 0 0 1-2.337253 2.851449 139.019828 139.019828 0 0 1-13.976775 0.747921zM220.82498 263.642176H220.264039a20.380849 20.380849 0 0 1-3.646115-0.794666 2.617724 2.617724 0 1 1 1.542587-4.954978 20.053634 20.053634 0 0 0 2.804704 0.607686 2.570979 2.570979 0 0 1 2.243764 2.898194 2.664469 2.664469 0 0 1-2.383999 2.243764zM333.620826 225.778672a2.570979 2.570979 0 0 1-1.682823-0.607686 2.664469 2.664469 0 0 1-0.327215-3.69286 57.122471 57.122471 0 0 0 4.207056-5.749644 2.570979 2.570979 0 1 1 4.394036 2.757959 61.609998 61.609998 0 0 1-4.674506 6.357329 2.664469 2.664469 0 0 1-1.916548 0.934902zM260.792012 263.081235a2.570979 2.570979 0 0 1-2.524234-2.103528 2.617724 2.617724 0 0 1 2.010038-3.085175c6.357329-1.308862 13.041874-3.038429 19.866654-5.048467a115.133099 115.133099 0 0 0 45.76342-24.54116 2.617724 2.617724 0 0 1 3.69286 0 2.617724 2.617724 0 0 1 0 3.692861 119.714116 119.714116 0 0 1-47.866948 25.803276c-6.965015 2.056783-14.02352 3.78635-20.287359 5.141958zM164.169959 685.282676a2.991684 2.991684 0 0 1-0.934901 0 2.617724 2.617724 0 0 1-1.495842-3.365644c1.636077-4.253801 3.131919-8.834818 4.674507-13.602815a2.617724 2.617724 0 0 1 5.001722 1.449097c-1.402352 4.674507-2.944939 9.629484-4.674507 14.02352a2.617724 2.617724 0 0 1-2.570979 1.495842zM116.723717 758.345216a2.617724 2.617724 0 0 1-1.776313-4.674507c1.636077-1.589332 3.3189-3.272155 5.001722-5.048467a2.570979 2.570979 0 0 1 3.692861 0 2.570979 2.570979 0 0 1 0 3.646115c-1.729567 1.869803-3.50588 3.59937-5.188703 5.235447a2.524234 2.524234 0 0 1-1.729567 0.841412zM129.57861 744.789146a2.711214 2.711214 0 0 1-1.682822-0.654431 2.570979 2.570979 0 0 1-0.280471-3.646115 190.439401 190.439401 0 0 0 29.168922-47.025537 2.570979 2.570979 0 1 1 4.674507 2.103528A193.805046 193.805046 0 0 1 131.448413 743.854245a2.664469 2.664469 0 0 1-1.869803 0.934901z" fill="#4E2B12" p-id="24901"></path>
</svg>