<?xml version="1.0" standalone="no"?><!DOCTYPE svg PUBLIC "-//W3C//DTD SVG 1.1//EN" "http://www.w3.org/Graphics/SVG/1.1/DTD/svg11.dtd">
<svg t="1545013850244" class="icon" style="" viewBox="0 0 1024 1024" version="1.1" 
    xmlns="http://www.w3.org/2000/svg" p-id="14715" 
    xmlns:xlink="http://www.w3.org/1999/xlink" width="60" height="60">
    <defs>
        <style type="text/css"></style>
    </defs>
    <path d="M528 111.536a14.72 14.72 0 0 0-8.224 2.464A241.792 241.792 0 0 0 416 312.144V608c0 8.832 7.184 16 16 16h192c8.816 0 16-7.168 16-16V312.144c0-78.816-38.816-152.896-103.808-198.144A14.624 14.624 0 0 0 528 111.536z" fill="#EEEDED" p-id="14716"></path>
    <path d="M624 624c8.816 0 16-7.168 16-16V312.144c0-78.816-38.816-152.896-103.808-198.144A14.464 14.464 0 0 0 528 111.536V624h96z" fill="#DFDCDC" p-id="14717"></path>
    <path d="M540.576 485.888H528V624h96c8.816 0 16-7.168 16-16v-22.672l-99.424-99.44z" fill="#D0CCCC" p-id="14718"></path>
    <path d="M528 383.568m-47.664 0a47.664 47.664 0 1 0 95.328 0 47.664 47.664 0 1 0-95.328 0Z" fill="#7F8EA0" p-id="14719"></path>
    <path d="M422.784 255.904h210.448a241.984 241.984 0 0 0-97.024-141.888c-2.32-1.616-5.232-2.512-8.208-2.512s-5.888 0.896-8.208 2.496a242.112 242.112 0 0 0-97.008 141.904z" fill="#CB5741" p-id="14720"></path>
    <path d="M288 624v-21.488c0-12.816 4.992-24.88 14.064-33.952l114-113.968L416 576.016A48.048 48.048 0 0 1 368 624h-80zM688 624c-26.464 0-48-21.536-48-47.984l-0.064-121.424 114 113.968c9.072 9.088 14.064 21.152 14.064 33.952V624h-80z" fill="#115081" p-id="14721"></path>
    <path d="M560 671.904h-64c-25.6 24.592-64 54.208-64 96 0 64.096 31.84 95.84 96 160 64.144-64.144 96-95.904 96-160 0-41.792-44.352-78.432-64-96z" fill="#ECC02F" p-id="14722"></path>
    <path d="M457.872 687.904L489.68 624h76.512l31.936 63.904z" fill="#5C6976" p-id="14723"></path>
    <path d="M496.256 704s-24.336 48.304 0.736 85.504C515.744 817.328 527.84 831.776 528 832c0.16-0.224 12.256-14.688 31.008-42.496 25.072-37.2 0.752-85.504 0.752-85.504h-63.504z" fill="#E4753B" p-id="14724"></path>
    <path d="M528 319.904c-35.104 0-63.664 28.56-63.664 63.664s28.56 63.664 63.664 63.664 63.664-28.56 63.664-63.664-28.56-63.664-63.664-63.664z m0 95.328c-17.456 0-31.664-14.208-31.664-31.664s14.208-31.664 31.664-31.664c17.456 0 31.664 14.208 31.664 31.664s-14.208 31.664-31.664 31.664z" fill="#010101" p-id="14725"></path>
    <path d="M765.248 557.264L656 448v-135.872c0-87.584-43.84-164.752-110.656-211.264-5.152-3.568-11.248-5.36-17.344-5.36s-12.192 1.792-17.344 5.376C443.84 147.392 400 224.56 400 312.144V448l-109.248 109.264A63.92 63.92 0 0 0 272 602.512V640h96.016c14.608 0 27.92-5.088 38.688-13.328 5.824 7.888 14.736 13.328 25.296 13.328h31.872l-20.288 40.752c-3.184 6.368-1.344 13.104 2.912 17.728C429.776 717.504 416 739.84 416 767.904c0 69.28 33.44 106.736 112 182.416 72.624-72.624 112-108.304 112-182.416 0-26.672-14.064-50.288-30.368-69.552 4.176-4.624 5.952-11.296 2.784-17.6L592.08 640H624c10.56 0 19.472-5.44 25.296-13.328a63.408 63.408 0 0 0 38.688 13.328H784v-37.488a63.92 63.92 0 0 0-18.752-45.248zM400 576.08A32.016 32.016 0 0 1 368.016 608H304v-5.488c0-8.544 3.328-16.576 9.376-22.624L400 493.264v82.816z m128-448.272A226.176 226.176 0 0 1 616.672 256H439.328c13.28-51.2 44.304-96.976 88.672-128.192z m80 640.096c0 53.824-25.12 82.288-80 137.36-54.848-55.024-80-83.488-80-137.36 0-24.672 18.208-45.648 37.264-64H512v24.432a16 16 0 1 0 32 0v-24.432h27.248c17.744 17.424 36.752 40.56 36.752 64z m-124.272-96L499.616 640h56.704l15.936 31.904h-88.528zM624 608h-80v-112.096a16 16 0 1 0-32 0V608h-80c0-79.024 0.096-101.696 0-295.856 0-8.16 0.608-16.224 1.472-24.24h189.04c0.88 8.016 1.488 16.08 1.488 24.24V608z m128 0h-64.016A32.032 32.032 0 0 1 656 576.08v-82.816l86.624 86.624c6.048 6.048 9.376 14.08 9.376 22.624V608z" fill="#010101" p-id="14726"></path>
    <path d="M528 776.336m-16 0a16 16 0 1 0 32 0 16 16 0 1 0-32 0Z" fill="#010101" p-id="14727"></path>
    <path d="M528 818.336m-10 0a10 10 0 1 0 20 0 10 10 0 1 0-20 0Z" fill="#010101" p-id="14728"></path>
</svg>