<?xml version="1.0" standalone="no"?><!DOCTYPE svg PUBLIC "-//W3C//DTD SVG 1.1//EN" "http://www.w3.org/Graphics/SVG/1.1/DTD/svg11.dtd">
<svg t="1543471724932" class="icon" style="" viewBox="0 0 1024 1024" version="1.1" 
    xmlns="http://www.w3.org/2000/svg" p-id="33145" 
    xmlns:xlink="http://www.w3.org/1999/xlink" width="50" height="50">
    <defs>
        <style type="text/css"></style>
    </defs>
    <path d="M512.4 777.3c-52.8 0-96 42.1-96 93.6 0 51.5 43.2 93.6 96 93.6s96-42.1 96-93.6c0-51.4-43.2-93.6-96-93.6z m256-62.3c-52.8 0-96 42.1-96 93.6s43.2 93.6 96 93.6 96-42.1 96-93.6-43.2-93.6-96-93.6z m-512 0c-52.8 0-96 42.1-96 93.6s43.2 93.6 96 93.6 96-42.1 96-93.6-43.2-93.6-96-93.6z" fill="#283E49" p-id="33146"></path>
    <path d="M218 476.3c162.4-97.5 425.6-97.5 588 0s162.4 255.8 0 352.5c-162.4 97.5-425.6 97.5-588 0s-162.4-255 0-352.5z" fill="#009887" p-id="33147"></path>
    <path d="M258 805.4C101.2 711 95.6 560.5 242 463c-8 3.9-16 8.6-24 13.3-162.4 97.5-162.4 255.8 0 352.5 162.4 97.5 425.6 97.5 588 0 5.6-3.1 11.2-7 16-10.1-163.2 84.2-409.6 79.5-564-13.3z" fill="#007261" p-id="33148"></path>
    <path d="M150 302.4c200-115.4 524-115.4 724 0s200 303.4 0 418.8-524 115.4-724 0-200-302.6 0-418.8z" fill="#324D5B" p-id="33149"></path>
    <path d="M906.8 690.8c-200 115.4-524 115.4-724 0C21.2 597.2-10 457.6 88.4 346.1-46.8 461.5-26 619.8 150 722c200 115.4 524 115.4 724 0 38.4-22.6 69.6-47.6 93.6-74.1-17.6 14.8-37.6 28.8-60.8 42.9z" fill="#283E49" p-id="33150"></path>
    <path d="M512.4 59.9c176.8 0 320 139.6 320 312s-143.2 249.6-320 249.6-320-77.2-320-249.6 143.2-312 320-312z" fill="#E4E7E7" p-id="33151"></path>
    <path d="M192.4 371.8c0 171.6 142.4 248.8 317.6 249.6h2.4V59.9c-176.8 0-320 139.6-320 311.9z" fill="#D8DBDB" p-id="33152"></path>
    <path d="M512.4 621.4c72 0 138.4-12.5 192-39.8V371.8c0-103.7-85.6-187.2-192-187.2s-192 83.4-192 187.2v209.8c53.6 27.3 120 39.8 192 39.8z" fill="#0AC2AD" p-id="33153"></path>
    <path d="M320.4 371.8v209.8c52.8 26.5 119.2 39.8 190.4 39.8h1.6V184.6c-106.4 0-192 84.3-192 187.2z" fill="#009887" p-id="33154"></path>
    <path d="M512.4 309.4c52.8 0 96 42.1 96 93.6s-43.2 93.6-96 93.6-96-42.1-96-93.6 43.2-93.6 96-93.6z" fill="#FFFFFF" p-id="33155"></path>
    <path d="M512.4 309.4c-52.8 0-96 42.1-96 93.6s43.2 93.6 96 93.6V309.4z" fill="#F2F2F2" p-id="33156"></path>
    <path d="M512.4 356.2c26.4 0 48 21.1 48 46.8s-21.6 46.8-48 46.8-48-21.1-48-46.8 21.6-46.8 48-46.8z" fill="#324D5B" p-id="33157"></path>
    <path d="M512.4 356.2c-26.4 0-48 21.1-48 46.8s21.6 46.8 48 46.8v-93.6z" fill="#2F4956" p-id="33158"></path>
</svg>