<?xml version="1.0" standalone="no"?><!DOCTYPE svg PUBLIC "-//W3C//DTD SVG 1.1//EN" "http://www.w3.org/Graphics/SVG/1.1/DTD/svg11.dtd">
<svg t="1543471660996" class="icon" style="" viewBox="0 0 1024 1024" version="1.1" 
    xmlns="http://www.w3.org/2000/svg" p-id="31773" 
    xmlns:xlink="http://www.w3.org/1999/xlink" width="50" height="50">
    <defs>
        <style type="text/css"></style>
    </defs>
    <path d="M568.8 689.7c0 30.6-24.8 55.4-55.3 55.4-30.5 0-55.3-24.8-55.3-55.4M844.2 689.7c0 30.6-24.7 55.4-55.3 55.4-30.5 0-55.3-24.8-55.3-55.4M289.2 689.7c0 30.6-24.8 55.4-55.3 55.4-30.5 0-55.3-24.8-55.3-55.4" fill="#FBBA22" p-id="31774"></path>
    <path d="M387.5 421.8c0-65.7 53.6-118.9 119.8-118.9 66.2 0 119.8 53.3 119.8 118.9" fill="#CDE9E3" p-id="31775"></path>
    <path d="M144.9 620.5s97.9-127 175.3-127h386.6s125.5 36.8 175.3 127H144.9z" fill="#AB978C" p-id="31776"></path>
    <path d="M846.1 620.5H144.9v35.9c0 19.8 16.1 35.9 36 35.9h665.2c19.9 0 36-16.1 36-35.9v-35.9h-36zM671 421.8H356c-19.9 0-36 16.1-36 35.9v35.9h387v-35.9c0-19.9-16.1-35.9-36-35.9z" fill="#CCCCCC" p-id="31777"></path>
    <path d="M900 616.3c-0.1-0.3-0.2-0.7-0.3-1-0.3-1.1-0.7-2.1-1.2-3.1-0.1-0.2-0.1-0.4-0.3-0.6-43.5-78.7-137.6-118.6-172.8-131.3v-22.7c0-29.9-24.4-54.3-54.5-54.3h-26.8c-9.1-67-66.9-118.9-136.8-118.9s-127.7 51.9-136.8 118.9H356c-30 0-54.5 24.4-54.5 54.3V477c-78.9 15.2-161.4 119.5-171.2 132.2-0.1 0.1-0.1 0.3-0.2 0.4-0.9 1.2-1.7 2.6-2.3 4-0.1 0.2-0.1 0.4-0.2 0.6-0.4 1.2-0.7 2.4-0.9 3.7-0.1 0.4-0.1 0.9-0.1 1.3s-0.1 0.8-0.1 1.2v35.9c0 23.5 15 43.4 35.9 51 7.9 32.2 36.9 56.2 71.5 56.2 33.4 0 61.6-22.4 70.6-52.9h138.3c9 30.6 37.3 52.9 70.7 52.9 33.4 0 61.6-22.4 70.6-52.9h134.3c9 30.6 37.2 52.9 70.5 52.9 34 0 62.6-23.3 71.1-54.8 23.3-6.2 40.5-27.3 40.5-52.4v-35.9c0-1.3-0.2-2.7-0.5-4.1z m-392.7-295c49.5 0 90.8 35.4 99.6 82.1H407.7c8.8-46.7 50.1-82.1 99.6-82.1zM338.4 457.6c0-9.6 7.9-17.4 17.6-17.4h315c9.7 0 17.6 7.8 17.6 17.4V475H338.4v-17.4z m-18.2 54.3H704c14.8 4.8 94.9 32.7 143.1 90.1H184.7c35.6-38.8 92.3-90.1 135.5-90.1z m-86.3 214.8c-12.6 0-23.6-6.4-30.2-16.1h60.4c-6.7 9.7-17.7 16.1-30.2 16.1z m279.6 0c-12.6 0-23.6-6.4-30.2-16.1h60.4c-6.6 9.7-17.6 16.1-30.2 16.1z m275.5 0c-12.6 0-23.5-6.4-30.1-16.1h60.3c-6.7 9.7-17.7 16.1-30.2 16.1z m74.6-70.4c0 9.6-7.9 17.4-17.6 17.4H180.9c-9.7 0-17.5-7.8-17.5-17.4v-17.4h700.3v17.4z" fill="#211F1E" p-id="31778"></path>
    <path d="M320 547.2c-6.4 0-11.5 5.2-11.5 11.5 0 6.4 5.2 11.6 11.5 11.6 6.4 0 11.5-5.2 11.5-11.6 0-6.3-5.2-11.5-11.5-11.5zM416.7 547.2c-6.4 0-11.5 5.2-11.5 11.5 0 6.4 5.2 11.6 11.5 11.6 6.4 0 11.5-5.2 11.5-11.6 0.1-6.3-5.1-11.5-11.5-11.5zM610.2 547.2c-6.4 0-11.5 5.2-11.5 11.5 0 6.4 5.2 11.6 11.5 11.6 6.4 0 11.5-5.2 11.5-11.6 0.1-6.3-5.1-11.5-11.5-11.5zM707 547.2c-6.4 0-11.5 5.2-11.5 11.5 0 6.4 5.2 11.6 11.5 11.6 6.4 0 11.5-5.2 11.5-11.6 0-6.3-5.1-11.5-11.5-11.5zM513.5 547.2c-6.4 0-11.5 5.2-11.5 11.5 0 6.4 5.2 11.6 11.5 11.6 6.4 0 11.5-5.2 11.5-11.6 0-6.3-5.2-11.5-11.5-11.5z" fill="#211F1E" p-id="31779"></path>
</svg>