<?xml version="1.0" standalone="no"?><!DOCTYPE svg PUBLIC "-//W3C//DTD SVG 1.1//EN" "http://www.w3.org/Graphics/SVG/1.1/DTD/svg11.dtd">
<svg t="1543462562760" class="icon" style="" viewBox="0 0 1024 1024" version="1.1" 
    xmlns="http://www.w3.org/2000/svg" p-id="20709" 
    xmlns:xlink="http://www.w3.org/1999/xlink" width="50" height="50">
    <defs>
        <style type="text/css"></style>
    </defs>
    <path d="M49.4 375h71.6v119.8H49.4zM172.6 341.8h71.6v119.8H172.6zM974.056 494.918h-71.6v-119.8h71.6zM850.69 461.638h-71.6v-119.8h71.6z" fill="#7BABF1" p-id="20711"></path>
    <path d="M121.2 506.6H49.4c-6.4 0-11.8-5.2-11.8-11.8v-119.8c0-6.4 5.2-11.8 11.8-11.8h71.6c6.4 0 11.8 5.2 11.8 11.8v119.8c0 6.6-5.2 11.8-11.6 11.8z m-60-23.4h48.2v-96.4H61.2v96.4zM244.4 473.4H172.6c-6.4 0-11.8-5.2-11.8-11.8v-119.8c0-6.4 5.2-11.8 11.8-11.8h71.6c6.4 0 11.8 5.2 11.8 11.8v119.8c0 6.4-5.2 11.8-11.6 11.8z m-60-23.6h48.2v-96.4H184.4v96.4zM974 506.6h-71.6c-6.4 0-11.8-5.2-11.8-11.8v-119.8c0-6.4 5.2-11.8 11.8-11.8H974c6.4 0 11.8 5.2 11.8 11.8v119.8c-0.2 6.6-5.4 11.8-11.8 11.8z m-60-23.4h48.2v-96.4H914v96.4zM850.8 473.4h-71.6c-6.4 0-11.8-5.2-11.8-11.8v-119.8c0-6.4 5.2-11.8 11.8-11.8h71.6c6.4 0 11.8 5.2 11.8 11.8v119.8c-0.2 6.4-5.4 11.8-11.8 11.8z m-60-23.6h48.2v-96.4h-48.2v96.4z" fill="#4C4372" p-id="20712"></path>
    <path d="M400.8 336L11.8 482.8v124.6l389-63M623.2 336l389 146.8v124.6l-389-63M411.8 738l-205.6 76v81.2h217.4M607.2 736.4l210 77.6v81.2H599.8" fill="#FD919E" p-id="20713"></path>
    <path d="M763.2 891.4h54v-80.8l-54-17.8zM950 601.2h62.2v-114.4L950 461.6zM342.4 556.6l62.2-12.2v-214L342.4 358zM364.6 891.4h54v-161l-54 21z" fill="#E8677D" p-id="20714"></path>
    <path d="M537 939.8h-50.6c-36.8 0-66.6-29.8-66.6-66.6l-19.6-724c0-40 15.4-78.4 42.8-107.4 37.2-39.2 99.8-39.2 137 0 27.6 29 42.8 67.4 42.8 107.4l-19.6 724c0.4 36.8-29.4 66.6-66.2 66.6z" fill="#D3E6F8" p-id="20715"></path>
    <path d="M580.2 41.8c-9.6-10.2-21-17.8-33.2-22.6v920c32-4.8 56.6-32.4 56.6-65.8l19.6-724c0-40.2-15.4-78.6-43-107.6z" fill="#A4CFF2" p-id="20716"></path>
    <path d="M443 148c0-38 30.8-68.6 68.6-68.6 38 0 68.6 30.8 68.6 68.6h-137.2z" fill="#FFFFFF" p-id="20717"></path>
    <path d="M537 951.6h-50.6c-43.2 0-78.2-35-78.4-78.2l-19.6-724v-0.4c0-43.2 16.4-84.2 46.2-115.4C454.8 12.2 482.2 0.6 511.6 0.6s56.8 11.8 77 33c29.8 31.4 46.2 72.4 46.2 115.4v0.4l-19.6 724c0 43.2-35 78.2-78.2 78.2zM412 149l19.6 724v0.4c0 30.2 24.6 54.8 54.8 54.8h50.6c30.2 0 54.8-24.6 54.8-54.8v-0.4l19.6-724c0-37-14.2-72.4-39.6-99.2-15.8-16.6-37.2-25.8-60-25.8-23 0-44.2 9.2-60 25.8C426.2 76.8 412 112 412 149z" fill="#4C4372" p-id="20718"></path>
    <path d="M423.6 907H206.2c-6.4 0-11.8-5.2-11.8-11.8V814c0-5 3-9.2 7.6-11l205.6-76c6-2.2 12.8 0.8 15 7 2.2 6-0.8 12.8-7 15l-198 73.2v61.4h205.6c6.4 0 11.8 5.2 11.8 11.8 0.2 6.4-5 11.6-11.4 11.6zM817.2 907H599.8c-6.4 0-11.8-5.2-11.8-11.8 0-6.4 5.2-11.8 11.8-11.8h205.6V822l-202.2-74.8c-6-2.2-9.2-9-7-15 2.2-6 9-9.2 15-7l209.8 77.6c4.6 1.8 7.6 6 7.6 11v81.2c0.2 6.8-5 12-11.4 12zM1012.2 619.2c-0.6 0-1.2 0-1.8-0.2L621.2 556c-6.4-1-10.8-7-9.6-13.4 1-6.4 7-10.8 13.4-9.6l375.6 60.8v-102.6l-381.6-144c-6-2.2-9.2-9-6.8-15.2 2.2-6 9-9.2 15.2-6.8L1016.4 472c4.6 1.8 7.6 6 7.6 11v124.6c0 3.4-1.6 6.8-4.2 9-2 1.6-4.8 2.6-7.6 2.6z" fill="#4C4372" p-id="20719"></path>
    <path d="M11.8 619.2c-2.8 0-5.4-1-7.6-2.8C1.6 614 0 610.8 0 607.4v-124.6c0-4.8 3-9.2 7.6-11l389.2-147c6-2.2 12.8 0.8 15.2 6.8 2.2 6-0.8 12.8-6.8 15.2l-381.6 144v102.6l375.6-60.8c6.4-1 12.4 3.4 13.4 9.6 1 6.4-3.4 12.4-9.6 13.4L13.6 619c-0.6 0-1.2 0.2-1.8 0.2z" fill="#4C4372" p-id="20720"></path>
    <path d="M559.8 1011.6h-96.2l19.6-201h57z" fill="#FD919E" p-id="20721"></path>
    <path d="M525.4 84v64h55s-7-59.2-55-64z" fill="#D3E6F8" p-id="20722"></path>
    <path d="M580.4 159.6h-137.4c-6.4 0-11.8-5.2-11.8-11.8 0-44.4 36-80.4 80.4-80.4 44.4 0 80.4 36 80.4 80.4 0 6.6-5.2 11.8-11.6 11.8zM456 136.2h111.4c-5.4-25.8-28.4-45.2-55.8-45.2s-50.2 19.4-55.6 45.2z" fill="#4C4372" p-id="20723"></path>
    <path d="M511.8 815.8v195.8h48l-30.2-201z" fill="#E8677D" p-id="20724"></path>
    <path d="M559.8 1023.4h-96.2c-3.4 0-6.4-1.4-8.6-3.8-2.2-2.4-3.4-5.8-3-9l19.6-201c0.6-6 5.6-10.6 11.6-10.6h57.2c6 0 11 4.6 11.6 10.6l19.6 201c0.4 3.2-0.8 6.6-3 9-2.4 2.4-5.4 3.8-8.8 3.8zM476.6 1000h70.4l-17.2-177.6H494l-17.4 177.6z" fill="#4C4372" p-id="20725"></path>
</svg>