<?xml version="1.0" standalone="no"?><!DOCTYPE svg PUBLIC "-//W3C//DTD SVG 1.1//EN" "http://www.w3.org/Graphics/SVG/1.1/DTD/svg11.dtd"><svg t="1543484581109" class="icon" style="" viewBox="0 0 1024 1024" version="1.1" xmlns="http://www.w3.org/2000/svg" p-id="10991" xmlns:xlink="http://www.w3.org/1999/xlink" width="50" height="50"><defs><style type="text/css"></style></defs><path d="M265.7 277.9c-29.2 0-52.9-23.8-52.9-53s23.8-53 52.9-53c1.2 0 2.4 0 3.7 0.1l245.8 16.8c6.9 0.5 12.3 6.2 12.3 13.2v45.9c0 7-5.4 12.7-12.3 13.2l-245.8 16.8h-3.7z" fill="#FFDBA0" p-id="10992"></path><path d="M265.7 185.2c0.9 0 1.8 0 2.8 0.1L514.2 202v45.9l-245.8 16.8c-0.9 0.1-1.8 0.1-2.8 0.1-21.8 0-39.7-17.7-39.7-39.8 0.1-22.2 18-39.8 39.8-39.8m0-26.5c-36.5 0-66.2 29.7-66.2 66.2s29.7 66.2 66.2 66.2c1.5 0 3-0.1 4.6-0.2L516 274.2c13.9-0.9 24.6-12.5 24.6-26.4V202c0-13.9-10.8-25.4-24.6-26.4l-245.8-16.8c-1.5 0-3-0.1-4.5-0.1z" fill="#282F63" p-id="10993"></path><path d="M514.2 202l-91.8-6.3c-5.4 19.8-10.5 39-8.4 59l100.2-6.8V202z" fill="#FCC975" p-id="10994"></path><path d="M762.7 277.9c-1.2 0-2.4 0-3.7-0.1L513.2 261c-6.9-0.5-12.3-6.2-12.3-13.2V202c0-7 5.4-12.7 12.3-13.2L759 172c1.2-0.1 2.4-0.1 3.7-0.1 29.2 0 52.9 23.8 52.9 53 0 14.2-5.5 27.5-15.6 37.5-9.9 10-23.2 15.5-37.3 15.5z" fill="#FFDBA0" p-id="10995"></path><path d="M762.7 185.2c21.8 0 39.7 17.7 39.7 39.8 0 22.1-18 39.8-39.7 39.8-0.9 0-1.8 0-2.8-0.1l-245.8-16.8V202L760 185.2h2.7m0-26.5c-1.5 0-3 0.1-4.6 0.2l-245.8 16.8c-13.9 0.9-24.6 12.5-24.6 26.4V248c0 13.9 10.8 25.4 24.6 26.4L758.2 291c1.5 0.1 3 0.2 4.6 0.2 36.5 0 66.2-29.7 66.2-66.2s-29.8-66.3-66.3-66.3z" fill="#282F63" p-id="10996"></path><path d="M514.2 202v45.9l109 7.4c-0.3-21.4-1.8-41.1-7.9-60.2L514.2 202z" fill="#FCC975" p-id="10997"></path><path d="M512.7 280.7c-30.8 0-55.8-25-55.8-55.8s25-55.8 55.8-55.8 55.8 25 55.8 55.8-25 55.8-55.8 55.8z" fill="#EF765E" p-id="10998"></path><path d="M512.7 182.4c23.5 0 42.6 19.1 42.6 42.6s-19.1 42.6-42.6 42.6-42.6-19.1-42.6-42.6 19.1-42.6 42.6-42.6m0-26.5c-38.1 0-69 31-69 69s31 69 69 69 69-31 69-69-30.9-69-69-69z" fill="#282F63" p-id="10999"></path><path d="M358.8 844.1c-21.7 0-39.4-17.7-39.4-39.4v-52.4c0-21.7 17.7-39.4 39.4-39.4h307.9c21.7 0 39.4 17.7 39.4 39.4v52.4c0 21.7-17.7 39.4-39.4 39.4H358.8z" fill="#E5F1F9" p-id="11000"></path><path d="M666.7 726.1c14.5 0 26.2 11.7 26.2 26.2v52.4c0 14.5-11.7 26.2-26.2 26.2H358.8c-14.5 0-26.2-11.7-26.2-26.2v-52.4c0-14.5 11.7-26.2 26.2-26.2h307.9m0-26.4H358.8c-29 0-52.6 23.6-52.6 52.6v52.4c0 29 23.6 52.6 52.6 52.6h307.9c29 0 52.6-23.6 52.6-52.6v-52.4c0-29-23.6-52.6-52.6-52.6z" fill="#282F63" p-id="11001"></path><path d="M650.4 726.1H533.2c-5 35.3-13.9 70-22.2 104.8h117.4c21.3-27.3 20.2-68.9 22-104.8z" fill="#AAD4E9" p-id="11002"></path><path d="M352.4 804.7v-52.4c0-14.5 11.7-26.2 26.2-26.2h-19.8c-14.5 0-26.2 11.7-26.2 26.2v52.4c0 14.5 11.7 26.2 26.2 26.2h19.8c-14.5 0-26.2-11.7-26.2-26.2z" fill="#FFFFFF" p-id="11003"></path><path d="M512.7 863.1c-49.1 0-90-38.4-93.1-87.4l-27.1-425.3c-2.1-33.6 9.4-65.6 32.4-90.2 23-24.5 54.2-38.1 87.9-38.1s64.9 13.5 87.9 38.1c23 24.5 34.5 56.6 32.4 90.2L606 775.7c-3.2 49-44.2 87.4-93.3 87.4z" fill="#1E62A1" p-id="11004"></path><path d="M512.7 235.5c62 0 111 52.3 107.1 114.2L592.7 775c-2.7 42.2-37.7 75-80 75s-77.3-32.8-80-75l-27.1-425.3c-3.9-61.9 45.2-114.2 107.1-114.2m0-26.5c-18.8 0-37.1 3.8-54.1 11.4-16.4 7.3-31 17.7-43.4 30.8-12.4 13.2-21.8 28.4-28 45.3-6.5 17.5-9.1 36-7.9 54.8l27.1 425.3c1.7 27.1 13.6 52.3 33.4 70.9 19.8 18.6 45.7 28.8 72.9 28.8s53.1-10.2 72.9-28.8c19.8-18.6 31.7-43.8 33.4-70.9l27.1-425.3c1.2-18.8-1.5-37.2-7.9-54.8-6.2-16.9-15.6-32.1-28-45.3-12.4-13.2-27-23.5-43.4-30.8-17-7.5-35.2-11.4-54.1-11.4z" fill="#282F63" p-id="11005"></path><path d="M459.2 794.7l-27.1-425.3c-3.9-61.8 45.1-114.2 107.1-114.2 18.3 0 35.4 4.6 50.4 12.6-19.4-19.9-46.6-32.5-76.8-32.5-62 0-111 52.3-107.1 114.2l27.1 425.3c1.9 30.1 20.3 55.4 46.1 67.4-11.3-12.8-18.5-29.3-19.7-47.5z" fill="#3381BC" p-id="11006"></path><path d="M165.5 614.9c-29 0-52.5-23.6-52.5-52.5v-118c0-29 23.6-52.5 52.5-52.5H860c29 0 52.5 23.6 52.5 52.5v117.9c0 29-23.6 52.5-52.5 52.5H165.5z" fill="#FFFFFF" p-id="11007"></path><path d="M860 405.1c21.7 0 39.3 17.6 39.3 39.3v117.9c0 21.7-17.6 39.3-39.3 39.3H165.5c-21.7 0-39.3-17.6-39.3-39.3V444.4c0-21.7 17.6-39.3 39.3-39.3H860m0-26.4H165.5c-36.3 0-65.7 29.5-65.7 65.7v117.9c0 36.3 29.5 65.7 65.7 65.7H860c36.3 0 65.7-29.5 65.7-65.7V444.4c0-36.2-29.5-65.7-65.7-65.7z" fill="#282F63" p-id="11008"></path><path d="M496.5 942.4c-14.6 0-26.4-11.9-26.4-26.4V791.7c0-14.6 11.9-26.4 26.4-26.4H529c14.6 0 26.4 11.9 26.4 26.4V916c0 14.6-11.9 26.4-26.4 26.4h-32.5z" fill="#E5F1F9" p-id="11009"></path><path d="M529 778.5c7.3 0 13.2 5.9 13.2 13.2V916c0 7.3-5.9 13.2-13.2 13.2h-32.5c-7.3 0-13.2-5.9-13.2-13.2V791.7c0-7.3 5.9-13.2 13.2-13.2H529m0-26.4h-32.5c-21.9 0-39.7 17.8-39.7 39.7V916c0 21.9 17.8 39.7 39.7 39.7H529c21.9 0 39.7-17.8 39.7-39.7V791.7c0-21.8-17.8-39.6-39.7-39.6z" fill="#282F63" p-id="11010"></path><path d="M503.1 916V791.7c0-7.3 5.9-13.2 13.2-13.2h-19.8c-7.3 0-13.2 5.9-13.2 13.2V916c0 7.3 5.9 13.2 13.2 13.2h19.8c-7.3 0-13.2-5.9-13.2-13.2z" fill="#FFFFFF" p-id="11011"></path><path d="M405.3 336.3h214.9" fill="#FFFFFF" p-id="11012"></path><path d="M620.2 349.5H405.3c-7.3 0-13.2-5.9-13.2-13.2s5.9-13.2 13.2-13.2h214.9c7.3 0 13.2 5.9 13.2 13.2s-5.9 13.2-13.2 13.2z" fill="#282F63" p-id="11013"></path><path d="M209 614.9c-6.1 0-11.4-4.2-12.9-10.1-8-33.2-12-67.5-12-101.8 0-34 4-67.9 11.8-100.9 1.4-6 6.7-10.2 12.9-10.2h608c6.1 0 11.4 4.2 12.9 10.2 7.8 32.9 11.8 66.9 11.8 100.9 0 34.3-4 68.6-12 101.8-1.4 5.9-6.7 10.1-12.9 10.1H209z" fill="#E5F1F9" p-id="11014"></path><path d="M816.7 405.1c7.4 31.1 11.4 63.9 11.4 97.8 0 34.2-4.1 67.3-11.7 98.7H209c-7.5-31.4-11.7-64.5-11.7-98.7 0-33.9 4-66.7 11.4-97.8h608m0-26.4h-608c-12.2 0-22.9 8.4-25.7 20.3-8.1 33.9-12.1 68.9-12.1 103.9 0 35.3 4.2 70.6 12.4 104.9 2.9 11.9 13.5 20.3 25.7 20.3h607.5c12.2 0 22.9-8.4 25.7-20.3 8.2-34.3 12.4-69.5 12.4-104.9 0-35-4.1-70-12.1-103.9-2.9-11.9-13.5-20.3-25.8-20.3z" fill="#282F63" p-id="11015"></path><path d="M208.7 433.5h608c6.2 26.2 10 53.5 11.1 81.6 0.1-4.1 0.3-8.1 0.3-12.2 0-33.9-4-66.7-11.4-97.8h-608c-7.4 31.1-11.4 63.9-11.4 97.8 0 4.1 0.2 8.1 0.3 12.2 1.1-28.1 4.9-55.4 11.1-81.6z" fill="#FFFFFF" p-id="11016"></path><path d="M846 704.9c-4.6 0-8.3-3.7-8.3-8.3 0-7.6-5.5-14.5-13.1-15.2-8.6-0.8-15.9 6-15.9 14.4v0.8c0 4.6-3.7 8.3-8.3 8.3-7.6 0-14.5 5.5-15.2 13.1-0.8 8.6 6 15.9 14.4 15.9h0.8c4.6 0 8.3 3.7 8.3 8.3 0 7.6 5.5 14.5 13.1 15.2 8.6 0.8 15.9-6 15.9-14.4v-0.8c0-4.6 3.7-8.3 8.3-8.3h0.8c8.4 0 15.2-7.3 14.4-15.9-0.8-7.6-7.6-13.1-15.2-13.1z" fill="#9AD6E8" p-id="11017"></path><path d="M178.4 691.7c-4.6 0-8.3-3.7-8.3-8.3 0-7.6-5.5-14.5-13.1-15.2-8.6-0.8-15.9 6-15.9 14.4v0.8c0 4.6-3.7 8.3-8.3 8.3-7.6 0-14.5 5.5-15.2 13.1-0.8 8.6 6 15.9 14.4 15.9h0.8c4.6 0 8.3 3.7 8.3 8.3 0 7.6 5.5 14.5 13.1 15.2 8.6 0.8 15.9-6 15.9-14.4v-0.8c0-4.6 3.7-8.3 8.3-8.3h0.8c8.4 0 15.2-7.3 14.4-15.9-0.7-7.6-7.6-13.1-15.2-13.1z" fill="#9AD6E8" p-id="11018"></path><path d="M898.8 275.3c-4.6 0-8.3-3.7-8.3-8.3 0-7.6-5.5-14.5-13.1-15.2-8.6-0.8-15.9 6-15.9 14.4v0.8c0 4.6-3.7 8.3-8.3 8.3-7.6 0-14.5 5.5-15.2 13.1-0.8 8.6 6 15.9 14.4 15.9h0.8c4.6 0 8.3 3.7 8.3 8.3 0 7.6 5.5 14.5 13.1 15.2 8.6 0.8 15.9-6 15.9-14.4v-0.8c0-4.6 3.7-8.3 8.3-8.3h0.8c8.4 0 15.2-7.3 14.4-15.9-0.7-7.6-7.6-13.1-15.2-13.1z" fill="#9AD6E8" p-id="11019"></path></svg>