<?xml version="1.0" standalone="no"?><!DOCTYPE svg PUBLIC "-//W3C//DTD SVG 1.1//EN" "http://www.w3.org/Graphics/SVG/1.1/DTD/svg11.dtd">
<svg t="1544664353613" class="icon" style="" viewBox="0 0 1024 1024" version="1.1" 
    xmlns="http://www.w3.org/2000/svg" p-id="3948" 
    xmlns:xlink="http://www.w3.org/1999/xlink" width="200" height="200">
    <defs>
        <style type="text/css"></style>
    </defs>
    <path d="M512-0.436c-283.524 0-512.436 228.911-512.436 512.436s228.911 512.436 512.436 512.436c283.524 0 512.436-228.911 512.436-512.436 0-283.524-228.911-512.436-512.436-512.436v0 0zM495.732 822.251c-32.535 0-59.261-26.725-59.261-60.423 0-33.697 26.725-60.423 59.261-60.423 32.535 0 59.261 26.725 59.261 60.423 0 32.535-26.725 60.423-59.261 60.423v0 0zM661.897 441.119c-8.134 15.106-17.429 29.050-29.050 40.67-11.62 11.62-31.374 30.211-60.423 56.938-8.134 8.134-15.106 13.943-19.754 19.754-4.647 5.81-8.134 10.458-10.458 16.268-2.324 4.647-4.647 9.296-5.81 13.943-1.162 4.647-3.486 12.782-5.81 25.564-4.647 25.564-18.592 38.346-42.993 38.346-12.782 0-23.239-4.647-31.374-12.782-8.134-8.134-12.782-20.916-12.782-37.184 0-20.916 3.486-38.346 9.296-53.452 5.81-15.106 13.943-27.888 24.402-39.507 10.458-11.62 24.402-24.402 41.831-40.67 15.106-13.943 26.725-24.402 32.535-31.374 6.972-6.972 12.782-15.106 17.429-23.239 4.647-8.134 6.972-17.429 6.972-27.888 0-19.754-6.972-36.021-20.916-49.966-13.943-13.943-32.535-19.754-54.613-19.754-25.564 0-45.317 6.972-58.099 19.754-12.782 13.943-23.239 33.697-31.374 60.423-8.134 27.888-23.239 41.831-46.479 41.831-12.782 0-24.402-4.647-33.697-13.943-9.296-9.296-13.943-19.754-13.943-31.374 0-23.239 6.972-46.479 22.078-70.881 13.943-23.239 36.021-42.993 63.909-59.261 27.888-15.106 60.423-23.239 97.606-23.239 34.86 0 65.071 6.972 91.797 19.754 26.725 12.782 46.479 31.374 61.585 53.452 13.943 22.078 22.078 46.479 22.078 73.205-2.324 20.916-5.81 39.507-13.943 54.613v0 0zM661.897 441.119z" p-id="3949" fill="#1296db"></path>
</svg>