<?xml version="1.0" standalone="no"?><!DOCTYPE svg PUBLIC "-//W3C//DTD SVG 1.1//EN" "http://www.w3.org/Graphics/SVG/1.1/DTD/svg11.dtd">
<svg t="1543454213474" class="icon" style="" viewBox="0 0 1024 1024" version="1.1" 
    xmlns="http://www.w3.org/2000/svg" p-id="11624" 
    xmlns:xlink="http://www.w3.org/1999/xlink" width="200" height="200">
    <defs>
        <style type="text/css"></style>
    </defs>
    <path d="M819.2 456.704a165.888 165.888 0 0 0-44.032-107.861333A166.912 166.912 0 0 0 819.2 240.981333C819.2 107.861333 635.562667 0 409.6 0S0 107.861333 0 240.981333a165.205333 165.205333 0 0 0 44.032 108.202667A165.205333 165.205333 0 0 0 0 456.704a165.888 165.888 0 0 0 41.642667 105.813333A167.594667 167.594667 0 0 0 0 668.330667c0 132.778667 182.954667 240.64 409.6 240.64s409.6-107.861333 409.6-238.933334a167.936 167.936 0 0 0-41.984-105.813333A163.84 163.84 0 0 0 819.2 456.704zM409.6 53.248c200.021333 0 362.154667 85.333333 362.154667 190.122667S608.597333 433.152 409.6 433.152 47.445333 348.16 47.445333 243.029333 210.602667 52.906667 409.6 53.248z m-332.117333 328.704A538.282667 538.282667 0 0 0 409.6 481.962667a539.306667 539.306667 0 0 0 332.117333-100.010667 130.730667 130.730667 0 0 1 30.037334 77.141333C771.413333 564.224 609.28 648.533333 409.6 648.533333S47.445333 563.541333 47.445333 458.752a129.024 129.024 0 0 1 30.037334-76.8z m331.776 477.866667c-200.021333 0-361.813333-84.992-361.813334-190.122667a127.658667 127.658667 0 0 1 27.989334-74.752c74.410667 61.781333 196.266667 102.4 334.165333 102.4s259.413333-39.936 333.482667-102.4a130.389333 130.389333 0 0 1 27.989333 74.069333c0.341333 106.496-161.792 191.488-361.472 191.488z" fill="#FFFF00" p-id="11625"></path>
    <path d="M682.666667 1024a341.333333 341.333333 0 1 1 341.333333-341.333333 341.333333 341.333333 0 0 1-341.333333 341.333333z m0-68.266667a273.066667 273.066667 0 1 0-273.066667-273.066666 273.066667 273.066667 0 0 0 273.066667 273.066666z" fill="#FFFF00" p-id="11626"></path>
    <path d="M682.666667 682.666667m-307.2 0a307.2 307.2 0 1 0 614.4 0 307.2 307.2 0 1 0-614.4 0Z" fill="#FFA500" p-id="11627"></path>
    <path d="M512 648.533333h341.333333v68.266667H512z" fill="#FFFF00" p-id="11628"></path>
    <path d="M648.533333 512h68.266667v341.333333h-68.266667z" fill="#FFFF00" p-id="11629"></path>
</svg>