<?xml version="1.0" standalone="no"?><!DOCTYPE svg PUBLIC "-//W3C//DTD SVG 1.1//EN" "http://www.w3.org/Graphics/SVG/1.1/DTD/svg11.dtd">
<svg t="1543396485248" class="icon" style="" viewBox="0 0 1024 1024" version="1.1" 
    xmlns="http://www.w3.org/2000/svg" p-id="4121" 
    xmlns:xlink="http://www.w3.org/1999/xlink" width="200" height="200">
    <defs>
        <style type="text/css"></style>
    </defs>
    <path d="M762 395.67a88.73 88.73 0 0 1 88.63 88.63V667A88.73 88.73 0 0 1 762 755.67H579.26A88.73 88.73 0 0 1 490.62 667V484.3a88.73 88.73 0 0 1 88.64-88.63H762" fill="#00FFFF" p-id="4122"></path>
    <path d="M762 395.67a88.73 88.73 0 0 1 88.63 88.63V667A88.73 88.73 0 0 1 762 755.67H579.26A88.73 88.73 0 0 1 490.62 667V484.3a88.73 88.73 0 0 1 88.64-88.63H762m0-40H579.26A128.63 128.63 0 0 0 450.62 484.3V667a128.63 128.63 0 0 0 128.64 128.67H762A128.63 128.63 0 0 0 890.62 667V484.3A128.63 128.63 0 0 0 762 355.67z" fill="#00BFFF" p-id="4123"></path>
    <path d="M670.606372 253.82138m-37.41917 51.921149a64 64 0 1 0 74.838339-103.842299 64 64 0 1 0-74.838339 103.842299Z" fill="#00FFFF" p-id="4124"></path>
    <path d="M399.48 299.87m-93 0a93 93 0 1 0 186 0 93 93 0 1 0-186 0Z" fill="#00FFFF" p-id="4125"></path>
    <path d="M670.62 209.84a44 44 0 1 1-44 44 44.05 44.05 0 0 1 44-44m0-40a84 84 0 0 0-84 84 84 84 0 0 0 168 0 84 84 0 0 0-84-84zM490.85 471.49a88.73 88.73 0 0 1 88.63 88.63v182.73a88.74 88.74 0 0 1-88.63 88.64H308.12a88.74 88.74 0 0 1-88.64-88.64V560.12a88.73 88.73 0 0 1 88.64-88.63h182.73m0-40H308.12a128.63 128.63 0 0 0-128.64 128.63v182.73a128.64 128.64 0 0 0 128.64 128.64h182.73a128.64 128.64 0 0 0 128.63-128.64V560.12a128.63 128.63 0 0 0-128.63-128.63zM399.48 226.87a73 73 0 1 1-73 73 73.09 73.09 0 0 1 73-73m0-40a113 113 0 0 0-113 113 113 113 0 0 0 113 113 113 113 0 0 0 113-113 113 113 0 0 0-113-113z" fill="#00BFFF" p-id="4126"></path>
    <path d="M490.85 471.49a88.73 88.73 0 0 1 88.63 88.63v182.73a88.74 88.74 0 0 1-88.63 88.64H308.12a88.74 88.74 0 0 1-88.64-88.64V560.12a88.73 88.73 0 0 1 88.64-88.63h182.73" fill="#00FFFF" p-id="4127"></path>
</svg>