<?xml version="1.0" standalone="no"?><!DOCTYPE svg PUBLIC "-//W3C//DTD SVG 1.1//EN" "http://www.w3.org/Graphics/SVG/1.1/DTD/svg11.dtd">
<svg t="1543454003115" class="icon" style="" viewBox="0 0 1024 1024" version="1.1" 
    xmlns="http://www.w3.org/2000/svg" p-id="1515" 
    xmlns:xlink="http://www.w3.org/1999/xlink" width="200" height="200">
    <defs>
        <style type="text/css"></style>
    </defs>
    <path d="M512 924.9c-6.5 0-13-1.4-19.1-4.2l-298-139.3c-15.8-7.4-25.9-23.3-25.9-40.8V144.1c0-24.9 20.1-45 45-45h596.1c24.9 0 45 20.1 45 45v596.5c0 17.5-10.1 33.4-25.9 40.8L531.1 920.7c-6.1 2.8-12.6 4.2-19.1 4.2z m-253.1-213L512 830.2l253.1-118.3V189.1H258.9v522.8z m551.2 28.7z" fill="#008000" p-id="1516"></path>
    <path d="M536.9 344.7l37.4 75.9c4 8.2 11.9 13.9 20.9 15.2l83.7 12.2c22.8 3.3 31.9 31.3 15.4 47.4l-60.6 59c-6.5 6.4-9.5 15.6-8 24.6l14.3 83.4c3.9 22.7-19.9 40-40.3 29.3l-74.9-39.4c-8.1-4.3-17.8-4.3-25.8 0l-74.9 39.4c-20.4 10.7-44.2-6.6-40.3-29.3l14.3-83.4c1.5-9-1.4-18.2-8-24.6l-60.6-59c-16.5-16.1-7.4-44.1 15.4-47.4l83.7-12.2c9-1.3 16.9-7 20.9-15.2l37.4-75.9c10.4-20.6 39.8-20.6 50 0z" fill="#FFCE00" p-id="1517"></path>
</svg>