<?xml version="1.0" standalone="no"?><!DOCTYPE svg PUBLIC "-//W3C//DTD SVG 1.1//EN" "http://www.w3.org/Graphics/SVG/1.1/DTD/svg11.dtd">
<svg t="1543471673837" class="icon" style="" viewBox="0 0 1024 1024" version="1.1" 
    xmlns="http://www.w3.org/2000/svg" p-id="31917" 
    xmlns:xlink="http://www.w3.org/1999/xlink" width="50" height="50">
    <defs>
        <style type="text/css"></style>
    </defs>
    <path d="M963.1 670.7S760 773.2 509.4 773.2 55.7 670.7 55.7 670.7s203.1-102.5 453.7-102.5 453.7 102.5 453.7 102.5z m0 0" fill="#206BAB" p-id="31918"></path>
    <path d="M509.4 568.2c62.3 0 121.6 6.3 175.6 15.8v-59.7H333.7V584c54.1-9.5 113.4-15.8 175.7-15.8z m0 0" fill="#EEAC38" p-id="31919"></path>
    <path d="M538.6 202.3c0 16.2-13.1 29.3-29.3 29.3-16.2 0-29.3-13.1-29.3-29.3 0-16.2 13.1-29.3 29.3-29.3 16.2 0 29.3 13.1 29.3 29.3z m0 0" fill="#F0BB5D" p-id="31920"></path>
    <path d="M363 524.3c0-80.8 65.5-146.4 146.4-146.4 80.8 0 146.4 65.5 146.4 146.4H363z m0 0" fill="#74A2CA" p-id="31921"></path>
    <path d="M377.6 655.7h29.3v29.8h-29.3zM436.2 655.7h29.3v29.8h-29.3zM494.7 655.7H524v29.8h-29.3zM553.3 655.7h29.3v29.8h-29.3zM611.8 655.7h29.3v29.8h-29.3z" fill="#FFFFFF" p-id="31922"></path>
    <path d="M969.8 657.3c-2.1-1.1-52.8-26.5-135.2-52.1-36.3-11.3-82.3-23.7-134.7-33.5v-62.3h-30c-7.6-82-76.7-146.4-160.6-146.4s-153 64.4-160.6 146.4h-30v62.3c-52.4 9.8-98.4 22.2-134.7 33.5-82.3 25.7-133 51.1-135.2 52.1l-26.4 13.3L48.9 684c2.1 1.1 52.8 26.5 135.2 52.2C260 759.8 378 788 509.4 788s249.4-28.2 325.3-51.9c82.3-25.7 133-51.1 135.2-52.2l26.4-13.3-26.5-13.3zM509.4 392.9c67.4 0 123.1 51 130.6 116.5H378.8c7.4-65.5 63.1-116.5 130.6-116.5zM348.7 539.2h321.4v27.3c-49.5-7.9-103.9-13.2-160.7-13.2s-111.2 5.3-160.7 13.2v-27.3z m160.7 219c-159.6 0-300.9-42.8-380.1-72.6h219v-29.9h-219c79.2-29.8 220.5-72.6 380.1-72.6s300.9 42.8 380.1 72.6H670.4v29.9h219.1c-79.2 29.8-220.5 72.6-380.1 72.6z m0 0M494.4 243.9v75.2h-14.3V349h58.5v-29.9h-14.3v-75.2c17-6.1 29.3-22.5 29.3-41.6 0-24.4-19.8-44.2-44.2-44.2-24.4 0-44.2 19.8-44.2 44.2 0 19.1 12.2 35.5 29.2 41.6z m15-55.9c7.9 0 14.3 6.4 14.3 14.3s-6.4 14.3-14.3 14.3-14.3-6.4-14.3-14.3c-0.1-7.9 6.4-14.3 14.3-14.3z m0 0" fill="#1C1C1A" p-id="31923"></path>
    <path d="M446.8 490.9l-21.1-21.1 43.9-43.9 21.1 21.1-43.9 43.9z m0 0M549.2 490.9l-21.1-21.1 43.9-43.9 21.1 21.1-43.9 43.9z m0 0" fill="#FFFFFF" p-id="31924"></path>
</svg>