<?xml version="1.0" standalone="no"?><!DOCTYPE svg PUBLIC "-//W3C//DTD SVG 1.1//EN" "http://www.w3.org/Graphics/SVG/1.1/DTD/svg11.dtd">
<svg t="1543396433358" class="icon" style="" viewBox="0 0 1024 1024" version="1.1" 
    xmlns="http://www.w3.org/2000/svg" p-id="2189" 
    xmlns:xlink="http://www.w3.org/1999/xlink" width="200" height="200">
    <defs>
        <style type="text/css"></style>
    </defs>
    <path d="M571.59418 372.963578V168.483547c0-16.498389-9.799043-38.496241-26.897373-60.394103-13.398692-17.19832-26.397422-28.097256-33.99668-33.396738-7.599258 5.399473-20.398008 16.498389-33.7967 33.99668-16.598379 21.797871-26.497412 44.095694-26.497412 59.69417V372.963578L132.137096 562.945025c-0.09999 0.09999-0.19998 0.19998-0.19998 0.299971v69.493213c0 0.09999 0.19998 0.19998 0.29997 0.299971H132.537057L461.00498 576.343716l-13.798652 236.776878-108.089445 74.092764v64.393712c0 0.09999 0.19998 0.19998 0.299971 0.19998h0.19998l170.783322-52.494873L682.283371 951.90704h0.19998c0.09999 0 0.299971-0.19998 0.299971-0.29997v-64.493702l-108.089444-74.092765-13.798653-236.776877L891.662924 632.93819h0.19998c0.09999 0 0.299971-0.19998 0.299971-0.299971v-69.493214c0-0.09999-0.09999-0.299971-0.199981-0.399961L571.59418 372.963578z" fill="#FFEB3B" p-id="2190"></path>
    <path d="M928.659311 501.051069L643.58715 331.967581V168.483547c0-47.895323-30.397032-91.091104-48.495264-112.589005C580.893272 39.096182 544.296846 0 510.500146 0c-14.098623 0-29.297139 6.499365-46.595449 19.798067-12.69876 9.799043-25.797481 22.697783-37.796309 37.196367-17.798262 21.597891-47.695342 64.793672-47.695342 111.489113v163.584025L95.240699 501.151059c-12.298799 7.299287-21.897862 18.098233-27.997266 30.597012 26.397422 7.699248 53.694756 14.798555 81.692023 21.09794l301.570549-179.982423V168.483547c0-15.598477 9.899033-37.996289 26.497413-59.694171 13.398692-17.498291 26.197442-28.697198 33.796699-33.99668 7.599258 5.199492 20.597988 16.098428 33.99668 33.396739 17.09833 21.897862 26.897373 43.895713 26.897373 60.394102V372.963578l303.370374 179.882433c27.997266-6.299385 55.2946-13.398692 81.792013-21.09794-6.199395-12.59877-15.898447-23.397715-28.197246-30.697002z" fill="#FF9800" p-id="2191"></path>
    <path d="M956.756567 531.748071c-26.497412 7.699248-53.694756 14.798555-81.792013 21.09794l16.99834 10.099014c0.09999 0.09999 0.19998 0.19998 0.199981 0.399961v69.493213c0 0.09999-0.19998 0.19998-0.299971 0.299971h-0.19998l-262.874329-45.095596-67.79338-11.598867 0.899912 14.798554 12.798751 221.878333 108.089444 74.092764v64.493702c-0.09999 0.09999-0.299971 0.19998-0.299971 0.299971h-0.19998l-171.783225-52.494874-170.783321 52.494874h-0.199981c-0.09999 0-0.299971-0.19998-0.299971-0.199981v-64.393711l108.089445-74.092765 12.89874-222.178303 0.899912-14.598574-66.893467 11.498877L132.537057 632.93819H132.237086c-0.09999 0-0.299971-0.19998-0.29997-0.299971v-69.493214c0-0.09999 0.09999-0.299971 0.19998-0.29997l16.79836-9.999024c-27.997266-6.299385-55.19461-13.398692-81.692023-21.09794-4.699541 9.699053-7.299287 20.497998-7.299287 31.596915v69.293233c0 21.497901 9.499072 41.695928 25.897471 55.494581 16.398399 13.798652 37.996289 19.498096 59.094229 15.798457l238.976663-41.195977-6.499366 110.989161-110.289229 75.592618v102.19002c0 23.197735 10.698955 44.395664 29.397129 58.194317s42.095889 17.798262 64.293721 10.998926l149.685382-45.995508 150.685285 46.095498c7.099307 2.199785 14.298604 3.199688 21.39791 3.199688 15.198516 0 30.097061-4.899522 42.795821-14.298604 18.598184-13.798652 29.297139-34.996582 29.297139-58.194317V849.217069l-110.289229-75.592618-6.399375-110.989161L879.164144 703.931257c21.09794 3.699639 42.59584-1.999805 59.094229-15.798457s25.897471-33.99668 25.897471-55.494581v-69.293233c0-11.098916-2.599746-21.897862-7.399277-31.596915z" fill="#FF5722" p-id="2192"></path>
</svg>